<svg width="16" height="16" viewBox="0 0 16 16" fill="none" xmlns="http://www.w3.org/2000/svg">
<path d="M15.3118 13.2585C15.3118 13.6565 15.3118 14.0575 15.3118 14.4554C15.0218 15.1676 14.7855 15.3232 14.0021 15.3232C9.7229 15.3232 5.44075 15.3232 1.16158 15.3232C0.425958 15.3232 0.00132904 14.8983 0.00132904 14.1622C0.00132904 10.0269 0.00132904 5.89468 0.00132904 1.75943C0.00132904 1.52005 -0.0016613 1.28067 0.00132904 1.04129C0.00730971 0.571515 0.309335 0.176541 0.757885 0.0388988C0.793769 0.0269299 0.829652 0.0119689 0.865536 0C4.19378 0 7.52501 0 10.8533 0C10.9549 0.0388989 11.0626 0.0628366 11.1583 0.113704C11.5709 0.332137 11.7384 0.688211 11.7384 1.14602C11.7354 3.45003 11.7354 5.75106 11.7354 8.05507C11.7354 8.12389 11.7354 8.18972 11.7354 8.27051C11.9477 8.27051 12.1361 8.27051 12.3245 8.27051C12.9973 8.2735 13.6701 8.26153 14.34 8.28248C14.7945 8.29744 15.1534 8.61761 15.276 9.05746C15.2849 9.09038 15.2969 9.12329 15.3088 9.15621C15.3088 9.55417 15.3088 9.95513 15.3088 10.3531C15.255 10.4788 15.1982 10.6044 15.1474 10.7301C15.1384 10.7541 15.1384 10.787 15.1474 10.8109C15.1982 10.9366 15.255 11.0623 15.3088 11.1909C15.3088 11.5889 15.3088 11.9898 15.3088 12.3878C15.255 12.5195 15.1982 12.6481 15.1474 12.7828C15.1384 12.8067 15.1384 12.8396 15.1474 12.8636C15.2042 12.9982 15.258 13.1299 15.3118 13.2585ZM10.8353 4.53322C7.51903 4.53322 4.21471 4.53322 0.901419 4.53322C0.901419 4.57212 0.901419 4.60204 0.901419 4.63196C0.901419 7.82467 0.901419 11.0144 0.901419 14.2071C0.901419 14.3866 0.943284 14.4255 1.13766 14.4255C3.12025 14.4255 5.10583 14.4255 7.08842 14.4255C7.13627 14.4255 7.18411 14.4255 7.22299 14.4255C7.22299 14.0365 7.22299 13.6685 7.22299 13.2915C7.16916 13.3094 7.1273 13.3214 7.08543 13.3334C6.52923 13.5039 5.96405 13.5608 5.38692 13.4919C3.10829 13.2256 1.50248 11.0832 1.88225 8.81809C2.17829 7.03472 3.61066 5.6583 5.38692 5.45183C7.20803 5.24238 8.92149 6.25076 9.61824 7.94436C9.75281 8.2735 9.75281 8.2735 10.1176 8.2735C10.3539 8.2735 10.5931 8.2735 10.8353 8.2735C10.8353 7.01677 10.8353 5.78397 10.8353 4.53322ZM0.898429 3.61161C4.22069 3.61161 7.528 3.61161 10.8413 3.61161C10.8413 3.54878 10.8413 3.5009 10.8413 3.45003C10.8413 2.693 10.8413 1.93298 10.8413 1.17594C10.8413 0.924597 10.8174 0.90066 10.5692 0.90066C7.4353 0.90066 4.29844 0.90066 1.16457 0.90066C1.13467 0.90066 1.10476 0.90066 1.07486 0.90066C0.958237 0.90066 0.898429 0.957512 0.898429 1.07421C0.898429 1.91802 0.898429 2.76182 0.898429 3.61161ZM11.2689 10.3262C12.2318 10.3262 13.1917 10.3262 14.1546 10.3262C14.3848 10.3262 14.4177 10.2962 14.4177 10.0718C14.4177 9.86237 14.4177 9.65292 14.4177 9.44346C14.4177 9.1981 14.3908 9.17117 14.1426 9.17117C13.2007 9.17117 12.2587 9.17117 11.3168 9.17117C10.3359 9.17117 9.35509 9.17117 8.37127 9.17117C8.15896 9.17117 8.12307 9.20707 8.12307 9.41055C8.12307 9.63496 8.12307 9.85938 8.12307 10.0838C8.12307 10.2903 8.15896 10.3232 8.36828 10.3232C9.33416 10.3262 10.3 10.3262 11.2689 10.3262ZM11.2659 11.2238C10.2941 11.2238 9.3222 11.2238 8.35034 11.2238C8.16195 11.2238 8.12307 11.2597 8.12307 11.4512C8.12008 11.6607 8.12307 11.8702 8.12307 12.0796C8.12307 12.3579 8.14401 12.3758 8.41912 12.3758C10.0728 12.3758 11.7264 12.3758 13.3831 12.3758C13.6582 12.3758 13.9303 12.3788 14.2054 12.3758C14.3759 12.3728 14.4177 12.331 14.4177 12.1604C14.4177 11.93 14.4177 11.7026 14.4177 11.4722C14.4177 11.2538 14.3848 11.2238 14.1665 11.2208C13.1977 11.2238 12.2318 11.2238 11.2659 11.2238ZM11.2629 14.4255C12.2408 14.4255 13.2156 14.4255 14.1935 14.4255C14.3729 14.4255 14.4177 14.3836 14.4177 14.2101C14.4177 13.9707 14.4177 13.7313 14.4177 13.4919C14.4177 13.3184 14.3789 13.2765 14.2084 13.2765C12.2497 13.2765 10.2911 13.2765 8.33539 13.2765C8.16494 13.2765 8.12606 13.3154 8.12606 13.4919C8.12307 13.7164 8.12606 13.9408 8.12606 14.1652C8.12606 14.3956 8.15597 14.4255 8.38024 14.4255C9.34014 14.4255 10.3 14.4255 11.2629 14.4255ZM8.76899 8.27649C8.35333 7.18732 7.14524 6.24178 5.69792 6.33155C4.54066 6.40336 3.20098 7.31599 3.05745 8.12688C3.34751 8.12688 3.63757 8.12389 3.92465 8.12987C4.02034 8.13287 4.08613 8.10294 4.15191 8.02515C5.09387 6.91204 6.82527 6.9659 7.67751 8.14184C7.78517 8.29145 7.86591 8.39319 8.06925 8.30342C8.16793 8.26153 8.29352 8.27948 8.41015 8.27649C8.52378 8.2735 8.63741 8.27649 8.76899 8.27649ZM4.96827 10.4668C5.46467 10.9725 6.32888 10.9426 6.84321 10.4099C7.3725 9.86237 7.33961 8.98565 6.77145 8.47099C6.25113 8.00121 5.38393 8.00719 4.97426 8.48296C5.56335 9.07542 5.51849 9.9282 4.96827 10.4668ZM7.22598 11.2777C7.17215 11.3106 7.14225 11.3286 7.11533 11.3465C6.17637 11.9629 4.9593 11.8163 4.20873 10.9785C4.09509 10.8528 3.98744 10.8079 3.82597 10.8169C3.5688 10.8289 3.31462 10.8199 3.02755 10.8199C3.07838 10.9186 3.11128 10.9904 3.15015 11.0563C3.43722 11.544 3.81999 11.936 4.31638 12.2083C5.21946 12.705 6.15245 12.7588 7.10337 12.3639C7.15122 12.3429 7.21701 12.2831 7.21701 12.2412C7.22897 11.93 7.22598 11.6158 7.22598 11.2777ZM2.74646 9.92521C3.15613 9.92521 3.54488 9.92521 3.93063 9.92521C3.99044 9.92521 4.05024 9.92521 4.11005 9.91623C4.34329 9.88332 4.50776 9.69182 4.50178 9.46441C4.4958 9.22802 4.31638 9.0425 4.07416 9.03053C3.92465 9.02156 3.77513 9.02754 3.62561 9.02754C3.33854 9.02754 3.05147 9.02754 2.74346 9.02754C2.74645 9.32976 2.74646 9.61402 2.74646 9.92521Z" fill="#41454F"/>
<path d="M3.41627 1.81626C3.76017 1.81626 4.10406 1.81626 4.44795 1.81626C4.73802 1.81925 4.93239 1.9898 4.94136 2.24415C4.95033 2.51045 4.76194 2.70794 4.46888 2.70794C3.76615 2.71393 3.06341 2.71393 2.36068 2.70794C2.06762 2.70495 1.87624 2.51345 1.88222 2.24714C1.8882 1.98981 2.08257 1.81626 2.36964 1.81326C2.71952 1.81626 3.06939 1.81626 3.41627 1.81626Z" fill="#41454F"/>
<path d="M7.65953 2.2681C7.65654 2.51346 7.45321 2.71095 7.20801 2.70796C6.96281 2.70496 6.75947 2.4985 6.76545 2.25613C6.76844 2.01077 6.97477 1.81328 7.21997 1.81627C7.46816 1.81926 7.66252 2.02274 7.65953 2.2681Z" fill="#41454F"/>
<path d="M8.66727 2.25613C8.67026 2.00778 8.87361 1.81328 9.11883 1.81627C9.36405 1.81926 9.5674 2.02573 9.56142 2.2681C9.55544 2.51346 9.35209 2.71095 9.10388 2.70796C8.85866 2.70496 8.66428 2.50449 8.66727 2.25613Z" fill="#41454F"/>
</svg>
