<svg width="16" height="16" viewBox="0 0 16 16" fill="none" xmlns="http://www.w3.org/2000/svg">
<path d="M0.00897108 13.1826C0.0598067 13.0868 0.0986812 12.9821 0.161478 12.8983C0.302024 12.7068 0.499385 12.6081 0.738612 12.6081C1.02568 12.6081 1.31276 12.6081 1.63272 12.6081C0.72067 11.6535 0.370801 10.5614 0.735622 9.31061C1.10044 8.06285 1.98259 7.33274 3.23853 7.01856C3.23255 6.98265 3.23255 6.94376 3.22358 6.90785C3.05612 6.26153 2.88567 5.6182 2.7212 4.97188C2.6913 4.85817 2.64345 4.82226 2.52683 4.82825C2.32947 4.83722 2.12912 4.83423 1.92876 4.83124C1.6387 4.82824 1.43835 4.64273 1.43835 4.37941C1.43835 4.1161 1.63571 3.93357 1.92876 3.93357C2.74213 3.93357 3.55251 3.93357 4.36588 3.93357C4.66193 3.93357 4.85929 4.11311 4.86527 4.37343C4.86826 4.63974 4.66492 4.82824 4.36289 4.83124C4.12068 4.83423 3.87547 4.83124 3.61531 4.83124C3.62727 4.88809 3.63325 4.92999 3.64222 4.97188C3.8037 5.59426 3.96817 6.21365 4.12666 6.83603C4.15357 6.94375 4.19842 6.97966 4.31206 6.99762C5.43044 7.18313 6.54883 7.38062 7.66721 7.57212C8.61813 7.7367 9.56906 7.90127 10.523 8.06584C10.5618 8.07183 10.6007 8.07482 10.6456 8.0808C10.6456 6.18074 10.6456 4.28964 10.6456 2.3806C10.4034 2.3806 10.1641 2.37461 9.9279 2.38658C9.87407 2.38958 9.80829 2.45541 9.77838 2.50927C9.63784 2.74865 9.50626 2.997 9.36871 3.23937C9.22517 3.49371 8.968 3.58048 8.73775 3.45481C8.51048 3.32914 8.44469 3.06283 8.58524 2.8055C8.72579 2.54816 8.86334 2.28784 9.00987 2.0335C9.21919 1.67144 9.53317 1.48293 9.95182 1.48293C10.52 1.48293 11.0881 1.48293 11.6563 1.48293C12.1288 1.48293 12.4906 1.28245 12.7328 0.878502C12.8584 0.669046 12.984 0.459585 13.1126 0.253121C13.2651 0.00775821 13.5312 -0.0700383 13.7525 0.0676043C13.9738 0.205247 14.0276 0.47156 13.8781 0.722907C13.7495 0.938348 13.6239 1.15079 13.4924 1.36324C13.0767 2.02752 12.4757 2.36564 11.6922 2.38658C11.6473 2.38658 11.6055 2.38658 11.5546 2.38658C11.5546 4.3435 11.5546 6.28845 11.5546 8.25136C11.8327 8.29923 12.1138 8.36207 12.3949 8.39499C13.3877 8.51468 14.1114 9.02036 14.5061 9.93599C14.8978 10.8486 14.7663 11.7194 14.1712 12.5153C14.1562 12.5362 14.1443 12.5542 14.1293 12.5751C14.1263 12.5781 14.1293 12.5841 14.1263 12.611C14.2639 12.611 14.4014 12.611 14.536 12.611C15.0085 12.614 15.3075 12.9162 15.3105 13.389C15.3105 13.7571 15.3105 14.1281 15.3105 14.4961C15.3105 14.93 15.1131 15.1844 14.6915 15.2891C14.6765 15.2921 14.6646 15.3041 14.6526 15.31C9.98771 15.31 5.32279 15.31 0.657873 15.31C0.322956 15.2382 0.101671 15.0377 0 14.7116C0.00897099 14.1999 0.00897108 13.6912 0.00897108 13.1826ZM7.99914 12.6081C9.32983 12.6081 10.6605 12.6081 11.9882 12.6081C12.1078 12.6081 12.2275 12.6021 12.3471 12.5901C13.5163 12.4674 14.1921 11.1748 13.6239 10.1454C13.3458 9.64574 12.9152 9.37644 12.3501 9.28966C11.4889 9.15501 10.6336 8.99942 9.77539 8.8498C8.12174 8.56554 6.47108 8.27829 4.81742 7.99403C4.41672 7.92521 4.01901 7.83544 3.60335 7.88032C1.89587 8.07183 0.944945 9.9689 1.84204 11.4321C2.32349 12.2161 3.04715 12.6021 3.96219 12.6051C5.30784 12.614 6.65349 12.6081 7.99914 12.6081ZM14.4194 13.5177C9.90996 13.5177 5.4125 13.5177 0.918032 13.5177C0.918032 13.8169 0.918032 14.1042 0.918032 14.3914C5.42446 14.3914 9.92192 14.3914 14.4194 14.3914C14.4194 14.0952 14.4194 13.8109 14.4194 13.5177Z" fill="#41454F"/>
<path d="M6.495 10.6961C6.18102 10.6961 5.86703 10.6991 5.55305 10.6931C5.46633 10.6931 5.42446 10.717 5.38559 10.7978C5.12543 11.3514 4.5782 11.6536 3.98611 11.5728C3.40001 11.495 2.94847 11.0611 2.84082 10.4716C2.7212 9.81632 3.10696 9.17297 3.75287 8.96052C4.37785 8.75405 5.0746 9.0443 5.36466 9.64276C5.42147 9.75946 5.48128 9.79837 5.60987 9.79538C6.22587 9.7864 6.84487 9.78939 7.46088 9.79238C7.82271 9.79537 8.04101 10.1365 7.87953 10.4417C7.78982 10.6123 7.63731 10.6871 7.44892 10.6871C7.13195 10.6961 6.81497 10.6961 6.495 10.6961ZM4.61408 10.2472C4.61408 9.98987 4.41672 9.79537 4.15955 9.79836C3.91435 9.80136 3.71698 10.0018 3.71997 10.2472C3.72297 10.4896 3.92631 10.6931 4.16852 10.6931C4.40775 10.6931 4.61408 10.4896 4.61408 10.2472Z" fill="#41454F"/>
</svg>
