<svg width="16" height="14" viewBox="0 0 16 14" fill="none" xmlns="http://www.w3.org/2000/svg">
<path d="M0 7.47774C0.0388743 7.38797 0.0687777 7.29222 0.119613 7.20844C0.302024 6.89126 0.580126 6.73866 0.965879 6.7237C0.965879 6.66087 0.965879 6.59803 0.965879 6.53519C0.965879 4.54537 0.965879 2.55554 0.965879 0.565714C0.965879 0.487917 0.968867 0.404137 0.9898 0.329332C1.04363 0.122869 1.24996 -0.0177699 1.4533 0.00317568C1.67459 0.0241212 1.84204 0.194676 1.85999 0.413108C1.86597 0.472953 1.86298 0.532797 1.86298 0.592641C1.86298 2.57349 1.86298 4.55135 1.86298 6.5322C1.86298 6.59204 1.86298 6.6489 1.86298 6.71772C5.72649 6.71772 9.57505 6.71772 13.4535 6.71772C13.4535 6.65787 13.4535 6.59504 13.4535 6.53519C13.4535 4.54537 13.4535 2.55554 13.4535 0.565714C13.4535 0.490909 13.4505 0.413111 13.4655 0.341298C13.5073 0.149796 13.6927 0.00617228 13.8901 0.000187841C14.0845 -0.0057966 14.2759 0.13184 14.3237 0.323342C14.3446 0.404132 14.3476 0.49091 14.3476 0.574692C14.3476 2.55554 14.3476 4.5334 14.3476 6.51425C14.3476 6.57708 14.3476 6.64291 14.3476 6.71472C14.4194 6.7237 14.4822 6.72968 14.545 6.74165C15.0055 6.83142 15.3105 7.19947 15.3105 7.67523C15.3135 8.97086 15.3105 10.2695 15.3105 11.5651C15.3105 11.8554 15.3105 12.1426 15.3105 12.4329C15.3075 12.9176 15.0294 13.2647 14.5569 13.3754C14.539 13.3784 14.5211 13.3904 14.5031 13.3993C9.93688 13.3993 5.37363 13.3993 0.80739 13.3993C0.705719 13.3634 0.601058 13.3335 0.505367 13.2856C0.227266 13.148 0.0837293 12.9086 0 12.6214C0 10.9098 0 9.19527 0 7.47774ZM0.909062 7.63333C0.909062 9.2611 0.909062 10.8739 0.909062 12.4897C5.4155 12.4897 9.90997 12.4897 14.4044 12.4897C14.4044 10.8619 14.4044 9.25212 14.4044 7.63333C9.90099 7.63333 5.41251 7.63333 0.909062 7.63333Z" fill="#41454F"/>
<path d="M8.0231 0.562744C9.20428 0.577705 10.538 1.11632 11.6504 2.18755C11.8597 2.39102 11.8836 2.66332 11.7072 2.85183C11.5278 3.04633 11.2467 3.04333 11.0314 2.83687C10.2748 2.10376 9.37772 1.64296 8.33409 1.5083C6.83893 1.31381 5.51721 1.72075 4.38986 2.73513C4.33902 2.78301 4.28818 2.83089 4.23735 2.87876C4.04297 3.04633 3.77086 3.03736 3.60639 2.85782C3.43893 2.68128 3.4479 2.40598 3.62732 2.22345C4.10278 1.74768 4.64702 1.36468 5.26004 1.0834C6.03752 0.727323 6.818 0.562744 8.0231 0.562744Z" fill="#41454F"/>
<path d="M7.65827 2.47179C8.67798 2.48675 9.56013 2.83684 10.2958 3.54001C10.5111 3.74647 10.532 4.02475 10.3466 4.21625C10.1672 4.40177 9.89206 4.39279 9.67974 4.19531C8.50454 3.09716 6.80005 3.09417 5.63083 4.19531C5.41851 4.39579 5.14639 4.40477 4.96398 4.21925C4.77858 4.03074 4.79652 3.74947 5.01182 3.546C5.75642 2.83684 6.64156 2.48675 7.65827 2.47179Z" fill="#41454F"/>
<path d="M9.12647 5.1977C9.11152 5.44007 9.03377 5.5807 8.86332 5.66149C8.68092 5.74528 8.51047 5.71536 8.36694 5.5807C8.1636 5.39519 7.93335 5.28746 7.65525 5.28746C7.38313 5.28746 7.15587 5.39518 6.95552 5.57471C6.68939 5.8111 6.31261 5.70937 6.21393 5.38321C6.1631 5.21565 6.20795 5.06903 6.32457 4.94335C7.00636 4.21324 8.30115 4.21025 8.98593 4.94036C9.05769 5.01816 9.09656 5.13785 9.12647 5.1977Z" fill="#41454F"/>
<path d="M11.5248 11.4663C10.7831 11.4633 10.1881 10.8679 10.1851 10.1259C10.1821 9.3838 10.7951 8.77041 11.5337 8.7764C12.2783 8.77939 12.8824 9.39278 12.8734 10.1348C12.8614 10.8799 12.2664 11.4693 11.5248 11.4663ZM11.5218 10.5687C11.77 10.5717 11.9703 10.3772 11.9733 10.1288C11.9763 9.88349 11.7789 9.68002 11.5337 9.67404C11.2915 9.67105 11.0852 9.87152 11.0822 10.1169C11.0762 10.3622 11.2766 10.5657 11.5218 10.5687Z" fill="#41454F"/>
<path d="M5.52317 9.54537C5.44243 9.54537 5.36468 9.54836 5.28395 9.54537C5.03276 9.53639 4.84736 9.35088 4.84138 9.11151C4.8354 8.86915 5.01183 8.66868 5.25704 8.65372C5.43646 8.64175 5.61587 8.64175 5.7923 8.65372C6.03451 8.66868 6.21992 8.87813 6.21394 9.11151C6.20796 9.35088 6.01956 9.53638 5.77137 9.54835C5.69063 9.54835 5.6069 9.54537 5.52317 9.54537Z" fill="#41454F"/>
<path d="M7.92143 11.4634C7.82574 11.4634 7.73304 11.4694 7.63735 11.4634C7.41905 11.4425 7.25458 11.2659 7.23963 11.0475C7.22468 10.8351 7.3712 10.6166 7.58651 10.5927C7.81079 10.5658 8.04404 10.5658 8.26832 10.5927C8.48362 10.6166 8.62417 10.8291 8.6152 11.0475C8.60324 11.2629 8.43877 11.4425 8.22047 11.4634C8.1188 11.4724 8.02012 11.4634 7.92143 11.4634Z" fill="#41454F"/>
<path d="M7.92742 9.54534C7.84369 9.54534 7.75697 9.54833 7.67324 9.54534C7.42803 9.53337 7.23963 9.34188 7.23664 9.10251C7.23365 8.86914 7.42205 8.66567 7.66427 8.65071C7.83771 8.64174 8.01115 8.64174 8.1846 8.65071C8.42981 8.66268 8.61223 8.86315 8.60924 9.10251C8.60625 9.34487 8.42383 9.53337 8.17563 9.54534C8.09788 9.54833 8.01116 9.54534 7.92742 9.54534Z" fill="#41454F"/>
<path d="M3.12197 9.54538C3.04124 9.54538 2.96349 9.54837 2.88276 9.54538C2.63458 9.5364 2.4492 9.35388 2.44023 9.11152C2.43425 8.87215 2.61066 8.66868 2.85585 8.65372C3.03526 8.64175 3.21466 8.64175 3.39108 8.65372C3.63626 8.66868 3.81866 8.87514 3.81268 9.10852C3.8067 9.34789 3.61832 9.53341 3.37314 9.54538C3.28941 9.54837 3.20569 9.54538 3.12197 9.54538Z" fill="#41454F"/>
<path d="M3.11898 11.4633C3.02329 11.4633 2.9276 11.4693 2.8349 11.4604C2.62258 11.4394 2.46109 11.2659 2.44315 11.0535C2.42521 10.832 2.56277 10.6166 2.78107 10.5927C3.01133 10.5658 3.25056 10.5658 3.47783 10.5927C3.68716 10.6166 3.8277 10.835 3.81275 11.0415C3.7978 11.2629 3.63333 11.4394 3.41503 11.4574C3.31635 11.4723 3.21767 11.4633 3.11898 11.4633Z" fill="#41454F"/>
<path d="M5.51718 11.4665C5.43345 11.4665 5.34673 11.4725 5.26301 11.4665C5.02677 11.4515 4.85035 11.272 4.84138 11.0446C4.8324 10.8111 4.98491 10.6106 5.21815 10.5867C5.4185 10.5658 5.62483 10.5658 5.82817 10.5867C6.06141 10.6077 6.22588 10.8171 6.21691 11.0416C6.20794 11.278 6.02852 11.4545 5.78332 11.4695C5.69361 11.4695 5.6039 11.4665 5.51718 11.4665Z" fill="#41454F"/>
</svg>
