<svg width="16" height="16" viewBox="0 0 16 16" fill="none" xmlns="http://www.w3.org/2000/svg">
<path d="M1.26491 0C5.63081 0 9.99671 0 14.3626 0C14.6287 0.0987438 14.7244 0.296234 14.7185 0.57152C14.7095 1.10414 14.7155 1.63975 14.7155 2.17237C14.7155 2.61222 14.5659 2.75884 14.1204 2.75884C11.6235 2.75884 9.12652 2.75884 6.62958 2.75884C6.56679 2.75884 6.50399 2.75884 6.44119 2.75884C6.44119 5.40697 6.44119 8.03415 6.44119 10.6643C6.83293 10.6643 7.2127 10.6643 7.60742 10.6643C7.40109 10.0629 7.4908 9.52728 7.90945 9.05749C7.37119 8.45306 7.35624 7.60327 7.90347 6.98387C7.89749 6.9719 7.89151 6.95695 7.88254 6.94498C7.46688 6.45725 7.37418 5.90667 7.64032 5.32917C7.90646 4.74868 8.39388 4.46741 9.02783 4.46741C10.6336 4.46142 12.2365 4.46442 13.8423 4.46741C14.0486 4.46741 14.237 4.51827 14.3985 4.64993C14.6287 4.83844 14.7125 5.0868 14.7125 5.37705C14.7095 7.83666 14.7125 10.2933 14.7095 12.7529C14.7095 12.8487 14.7274 12.9145 14.8052 12.9833C15.2388 13.3693 15.3614 13.9737 15.1281 14.5123C14.8949 15.048 14.3686 15.3651 13.7855 15.3143C13.2203 15.2664 12.7119 14.8505 12.6013 14.2909C12.5534 14.0456 12.5923 13.7852 12.5923 13.5309C10.8101 13.5309 9.01587 13.5309 7.21868 13.5309C7.3682 14.2011 7.19775 14.7338 6.71331 15.0659C6.24383 15.3891 5.73547 15.422 5.25104 15.1198C4.65895 14.7517 4.48551 14.1982 4.65596 13.5189C4.56326 13.5189 4.47953 13.5189 4.3958 13.5189C3.8695 13.5159 3.48374 13.1808 3.42095 12.6572C3.32526 11.8552 3.23555 11.0533 3.14584 10.2514C2.99333 8.90489 2.84082 7.55839 2.68532 6.21188C2.50889 4.65592 2.32947 3.10295 2.15005 1.54998C2.12613 1.33454 2.09623 1.11909 2.06932 0.894675C1.88092 0.894675 1.70748 0.894675 1.53404 0.894675C1.12736 0.894675 0.909063 1.11311 0.906073 1.52304C0.906073 1.84321 0.909064 2.16039 0.903083 2.48056C0.900093 2.71695 0.741605 2.8905 0.514339 2.92341C0.313986 2.95333 0.113632 2.82467 0.032893 2.6212C0.0209316 2.59427 0.00897102 2.56733 0 2.5404C0 2.14244 0 1.74148 0 1.34351C0.00897102 1.30461 0.0209313 1.26871 0.026912 1.22981C0.104661 0.763023 0.346878 0.409939 0.759545 0.182529C0.924014 0.101739 1.10044 0.0628369 1.26491 0ZM2.98735 0.906649C3.00828 1.08618 3.02323 1.25075 3.04118 1.41233C3.15481 2.41772 3.27143 3.42312 3.38805 4.42851C3.50468 5.4339 3.61831 6.43929 3.73194 7.44468C3.85754 8.52787 3.98014 9.61405 4.10275 10.6972C4.17152 11.3077 4.2403 11.9151 4.31506 12.5225C4.32104 12.5614 4.37188 12.6242 4.40477 12.6242C4.77557 12.6302 5.14937 12.6302 5.52316 12.6302C5.52316 8.7104 5.52316 4.81152 5.52316 0.906649C4.67988 0.906649 3.84558 0.906649 2.98735 0.906649ZM6.44119 12.6183C8.90822 12.6183 11.3543 12.6183 13.8094 12.6183C13.8094 12.2682 13.8094 11.927 13.8094 11.5859C11.3483 11.5859 8.89626 11.5859 6.44119 11.5859C6.44119 11.936 6.44119 12.2741 6.44119 12.6183ZM6.44119 1.85519C8.90523 1.85519 11.3543 1.85519 13.8094 1.85519C13.8094 1.53502 13.8094 1.22382 13.8094 0.912632C11.3483 0.912632 8.89327 0.912632 6.44119 0.912632C6.44119 1.22981 6.44119 1.53801 6.44119 1.85519ZM13.8124 7.4357C13.7496 7.4357 13.6987 7.4357 13.6449 7.4357C12.7628 7.4357 11.8836 7.4357 11.0015 7.4357C10.3496 7.4357 9.69767 7.4357 9.04578 7.4357C8.83346 7.4357 8.65105 7.49555 8.52247 7.6691C8.38491 7.85761 8.36398 8.06408 8.46565 8.27653C8.57929 8.51291 8.78263 8.60866 9.03681 8.60866C10.5858 8.60866 12.1348 8.60866 13.6808 8.60866C13.7227 8.60866 13.7675 8.60267 13.8124 8.59968C13.8124 8.2077 13.8124 7.83068 13.8124 7.4357ZM13.8124 10.6763C13.8124 10.2783 13.8124 9.90131 13.8124 9.50334C13.7466 9.50334 13.6868 9.50334 13.63 9.50334C12.1198 9.50334 10.6127 9.50334 9.10259 9.50334C9.04279 9.50334 8.98298 9.50334 8.92317 9.50933C8.6361 9.53925 8.4178 9.76366 8.40285 10.0509C8.3879 10.3471 8.57929 10.5985 8.86935 10.6554C8.9471 10.6703 9.02783 10.6733 9.10558 10.6733C10.6097 10.6733 12.1139 10.6733 13.618 10.6733C13.6778 10.6763 13.7376 10.6763 13.8124 10.6763ZM13.8124 5.36508C13.7496 5.36508 13.6987 5.36508 13.6449 5.36508C12.1258 5.36508 10.6067 5.36508 9.08764 5.36508C9.01886 5.36508 8.94709 5.36807 8.88131 5.38004C8.60021 5.43091 8.40585 5.6643 8.40585 5.94857C8.40286 6.28968 8.65404 6.53504 9.02186 6.53504C10.5858 6.53803 12.1497 6.53504 13.7107 6.53504C13.7436 6.53504 13.7765 6.52606 13.8124 6.52008C13.8124 6.13707 13.8124 5.76005 13.8124 5.36508ZM13.4595 13.9767C13.4595 14.2251 13.6629 14.4256 13.9081 14.4226C14.1503 14.4196 14.3566 14.2131 14.3536 13.9707C14.3506 13.7284 14.1443 13.5249 13.9021 13.5249C13.6569 13.5279 13.4595 13.7284 13.4595 13.9767ZM5.93882 14.4226C6.18402 14.4256 6.38737 14.2251 6.39036 13.9797C6.39335 13.7344 6.19598 13.5279 5.95077 13.5249C5.70856 13.5219 5.50222 13.7224 5.49923 13.9678C5.49325 14.2131 5.6966 14.4196 5.93882 14.4226Z" fill="#41454F"/>
</svg>
