<svg width="16" height="16" viewBox="0 0 16 16" fill="none" xmlns="http://www.w3.org/2000/svg">
<path d="M8.75565 0.329166C10.4213 0.329166 12.0839 0.329166 13.7495 0.329166C13.9379 0.403972 14.0694 0.523661 14.1023 0.733117C14.1592 1.12809 14.3894 1.34353 14.7782 1.37345C15.1699 1.40338 15.3044 1.547 15.3044 1.94198C15.3044 5.96951 15.3044 9.99705 15.3044 14.0246C15.3044 14.4315 15.1759 14.5722 14.7752 14.6021C14.4193 14.632 14.1352 14.8654 14.1083 15.1556C14.0754 15.5027 13.9169 15.6464 13.5641 15.6464C12.0241 15.6464 10.4841 15.6464 8.94703 15.6464C8.59418 15.6464 8.43569 15.5027 8.40279 15.1556C8.37289 14.8445 8.05891 14.6051 7.67615 14.5991C7.28442 14.5931 6.9495 14.8235 6.90763 15.1257C6.90464 15.1407 6.90464 15.1556 6.90464 15.1706C6.87773 15.4878 6.70729 15.6434 6.38732 15.6434C5.82514 15.6434 5.26296 15.6434 4.69779 15.6434C3.69604 15.6434 2.69428 15.6434 1.69252 15.6434C1.41442 15.6434 1.23201 15.4848 1.19912 15.2245C1.15128 14.8534 0.924011 14.62 0.54125 14.6051C0.281093 14.5931 0.107651 14.4944 0 14.267C0 10.0778 0 5.88872 0 1.69961C0.110642 1.4722 0.284083 1.37046 0.54125 1.36148C0.888127 1.34952 1.1752 1.10714 1.19314 0.83186C1.20809 0.57752 1.32172 0.412948 1.55497 0.323181C3.22057 0.323181 4.88319 0.323181 6.5488 0.323181C6.78204 0.409956 6.88969 0.577521 6.91661 0.828868C6.92857 0.945565 7.00632 1.07423 7.09304 1.15801C7.32927 1.3944 7.73595 1.43629 8.05293 1.2777C8.23833 1.18494 8.38784 1.0473 8.40279 0.828868C8.40877 0.583506 8.52241 0.418933 8.75565 0.329166ZM0.900089 2.23521C0.900089 6.07424 0.900089 9.91626 0.900089 13.7583C1.40545 13.9109 1.78223 14.2011 1.99753 14.6859C2.01249 14.7218 2.09023 14.7487 2.13808 14.7487C3.40896 14.7517 4.67985 14.7517 5.95073 14.7517C6.03446 14.7517 6.08231 14.7337 6.11819 14.647C6.2408 14.3477 6.4561 14.1173 6.7342 13.9558C6.87773 13.872 7.03622 13.8121 7.19171 13.7403C7.19171 9.90429 7.19171 6.06227 7.19171 2.21726C6.68934 2.06466 6.30957 1.77441 6.09427 1.28967C6.07932 1.25376 6.00157 1.22683 5.95373 1.22683C4.68284 1.22384 3.41196 1.22384 2.14107 1.22384C2.05734 1.22384 2.00949 1.2418 1.97361 1.32857C1.84503 1.63677 1.62375 1.87315 1.33368 2.03474C1.19314 2.11253 1.04661 2.16939 0.900089 2.23521ZM8.10675 2.23521C8.10675 6.07424 8.10675 9.91626 8.10675 13.7583C8.61212 13.9109 8.9889 14.2011 9.2042 14.6859C9.21915 14.7218 9.2969 14.7487 9.34474 14.7487C10.6156 14.7517 11.8865 14.7517 13.1574 14.7517C13.2411 14.7517 13.289 14.7337 13.3249 14.647C13.4445 14.3567 13.6478 14.1323 13.914 13.9737C14.0665 13.884 14.2339 13.8181 14.3954 13.7373C14.3954 9.90429 14.3954 6.06227 14.3954 2.21726C13.893 2.06466 13.5132 1.77441 13.2979 1.28967C13.283 1.25376 13.2052 1.22683 13.1574 1.22683C11.8865 1.22384 10.6156 1.22384 9.34474 1.22384C9.26101 1.22384 9.21317 1.2418 9.17729 1.32857C9.0487 1.63677 8.82742 1.87315 8.53736 2.03474C8.3998 2.11253 8.25328 2.16939 8.10675 2.23521Z" fill="#41454F"/>
<path d="M4.04885 12.1485C3.55245 12.1485 3.05307 12.1485 2.55667 12.1485C2.25465 12.1485 2.05429 11.963 2.05728 11.6936C2.06027 11.4303 2.26063 11.2508 2.55368 11.2508C3.54946 11.2508 4.54525 11.2508 5.54103 11.2508C5.84306 11.2508 6.04341 11.4333 6.04042 11.7056C6.03743 11.9689 5.84007 12.1485 5.54402 12.1485C5.04464 12.1515 4.54525 12.1485 4.04885 12.1485Z" fill="#41454F"/>
<path d="M4.04585 3.83008C4.54225 3.83008 5.04164 3.83008 5.53804 3.83008C5.84006 3.83008 6.04042 4.01561 6.03443 4.28492C6.03144 4.54824 5.83408 4.72479 5.53804 4.72479C4.54225 4.72479 3.54646 4.72479 2.55067 4.72479C2.24864 4.72479 2.04829 4.53927 2.05427 4.26996C2.05726 4.00663 2.25761 3.83008 2.55067 3.82709C3.05006 3.83008 3.54945 3.83008 4.04585 3.83008Z" fill="#41454F"/>
<path d="M4.05785 6.30763C4.55125 6.30763 5.04465 6.30763 5.53506 6.30763C5.84008 6.30763 6.03744 6.48717 6.03445 6.75946C6.03146 7.01978 5.8311 7.2053 5.54104 7.2053C4.53929 7.20829 3.54052 7.20829 2.53877 7.2053C2.2816 7.2053 2.09022 7.0497 2.05733 6.82529C2.02444 6.60985 2.15003 6.40039 2.35935 6.33456C2.42813 6.31362 2.50588 6.31063 2.58064 6.31063C3.07404 6.30763 3.56744 6.30763 4.05785 6.30763Z" fill="#41454F"/>
<path d="M4.04293 9.67382C3.53158 9.67382 3.01723 9.67682 2.50587 9.67382C2.29057 9.67083 2.13208 9.54516 2.07227 9.35068C2.02143 9.17714 2.08124 8.97368 2.23674 8.87495C2.32047 8.82109 2.43111 8.78219 2.52681 8.78219C3.53755 8.77621 4.5483 8.77621 5.55905 8.7792C5.84015 8.7792 6.03452 8.97069 6.03751 9.22502C6.03751 9.48832 5.84314 9.67382 5.55008 9.67382C5.0477 9.67382 4.54532 9.67382 4.04293 9.67382Z" fill="#41454F"/>
<path d="M11.7041 11.2508C12.0808 11.2508 12.4397 11.2448 12.7985 11.2508C13.1394 11.2567 13.3487 11.5979 13.1992 11.8971C13.1185 12.0587 12.9809 12.1454 12.8045 12.1454C11.7728 12.1484 10.7412 12.1484 9.70951 12.1454C9.45234 12.1454 9.26395 11.9449 9.26395 11.6966C9.26395 11.4482 9.45533 11.2537 9.70951 11.2508C10.0684 11.2448 10.4242 11.2508 10.807 11.2508C10.807 11.167 10.807 11.0952 10.807 11.0233C10.807 10.5985 10.804 10.1765 10.81 9.75166C10.81 9.6559 10.7801 9.61701 10.6873 9.58708C9.81417 9.3118 9.26993 8.57571 9.26694 7.66309C9.26096 6.55298 9.26395 5.43987 9.26694 4.32677C9.26694 4.0066 9.44636 3.83006 9.76932 3.83006C10.7621 3.83006 11.7519 3.83006 12.7447 3.83006C13.0736 3.83006 13.2501 4.0066 13.2501 4.33874C13.2501 5.43688 13.2531 6.53203 13.2501 7.63017C13.2471 8.57571 12.7148 9.30282 11.8177 9.59606C11.7728 9.61102 11.713 9.66787 11.713 9.70378C11.7011 10.2125 11.7041 10.7211 11.7041 11.2508ZM10.17 4.73371C10.164 4.76064 10.1611 4.7756 10.1611 4.79056C10.1611 5.77799 10.1521 6.76542 10.167 7.74986C10.173 8.15381 10.3913 8.45902 10.7442 8.64753C11.4589 9.03053 12.335 8.51886 12.344 7.70498C12.356 6.7385 12.347 5.77201 12.347 4.80552C12.347 4.78159 12.341 4.76064 12.335 4.73371C11.6114 4.73371 10.8967 4.73371 10.17 4.73371Z" fill="#41454F"/>
</svg>
