<svg width="13" height="16" viewBox="0 0 13 16" fill="none" xmlns="http://www.w3.org/2000/svg">
<path d="M9.16253 0.646362C9.39578 0.694238 9.63501 0.724161 9.85929 0.792982C11.3933 1.27473 12.3503 2.31303 12.5835 3.89891C12.8197 5.51172 12.1918 6.7924 10.8312 7.69904C10.7474 7.75589 10.7085 7.80676 10.7115 7.91149C10.7175 8.67451 10.7115 9.43753 10.7145 10.2005C10.7145 10.4399 10.6428 10.6374 10.4663 10.802C10.2899 10.9695 10.1194 11.1431 9.91909 11.3406C10.1015 11.5171 10.272 11.6877 10.4514 11.8493C10.6368 12.0198 10.7175 12.2263 10.7115 12.4746C10.7056 12.8427 10.7085 13.2137 10.7115 13.5818C10.7145 13.7793 10.6607 13.9528 10.5411 14.1114C10.1494 14.629 9.7636 15.1497 9.37485 15.6644C9.06684 16.0683 8.57044 16.0653 8.26542 15.6614C7.88266 15.1557 7.50886 14.647 7.12311 14.1443C6.98555 13.9648 6.92873 13.7703 6.92873 13.5488C6.93172 11.6847 6.92873 9.81754 6.93172 7.95338C6.93172 7.82771 6.89883 7.74991 6.7852 7.6781C5.74455 6.99886 5.16143 6.03537 5.02686 4.79958C4.98201 4.39263 5.02088 3.99466 5.11059 3.5967C5.11957 3.5578 5.12255 3.5189 5.12854 3.46504C4.85043 3.46504 4.5813 3.46504 4.31217 3.46504C4.1477 3.46504 3.98323 3.46205 3.81876 3.46504C3.51972 3.47402 3.30143 3.68048 3.30143 3.97372C3.29844 4.99706 3.29844 6.01741 3.30442 7.04075C3.30442 7.09461 3.34628 7.16044 3.38815 7.19635C4.03407 7.71999 4.68297 8.24064 5.33786 8.7553C5.58905 8.95279 5.70568 9.19516 5.70269 9.51533C5.69671 11.3765 5.69969 13.2347 5.69969 15.0958C5.69969 15.6584 5.39169 15.9636 4.83249 15.9636C3.51075 15.9636 2.192 15.9546 0.870263 15.9696C0.379844 15.9755 -0.00591211 15.6314 6.86099e-05 15.0928C0.0150204 13.2317 0.00903896 11.3735 0.00305824 9.51233C0.00305824 9.19217 0.119684 8.95279 0.370874 8.7553C1.01679 8.24662 1.65673 7.72896 2.29966 7.21729C2.37741 7.15446 2.40731 7.09162 2.40731 6.99288C2.40432 6.01442 2.40432 5.03895 2.40432 4.06049C2.40432 3.16881 3.00239 2.56737 3.89352 2.56737C4.39291 2.56737 4.88931 2.56438 5.3887 2.57037C5.47841 2.57037 5.52924 2.54344 5.58008 2.46564C6.24394 1.43033 7.17992 0.825897 8.40597 0.673293C8.42989 0.670301 8.45082 0.655339 8.47176 0.646362C8.705 0.646362 8.93526 0.646362 9.16253 0.646362ZM8.82462 14.9103C9.15655 14.4675 9.47353 14.0456 9.78751 13.6237C9.81443 13.5877 9.81742 13.5309 9.81742 13.483C9.82041 13.1898 9.8234 12.8935 9.81443 12.6003C9.81144 12.5315 9.77555 12.4477 9.72771 12.3968C9.54529 12.1994 9.34793 12.0138 9.15954 11.8223C8.87246 11.5291 8.86948 11.1431 9.15655 10.8499C9.34195 10.6613 9.52736 10.4728 9.71874 10.2903C9.7935 10.2185 9.8234 10.1467 9.8234 10.0449C9.82041 9.24303 9.82938 8.43812 9.81742 7.63621C9.81144 7.34895 9.92507 7.18139 10.1763 7.04674C11.1093 6.54404 11.6445 5.7511 11.7312 4.69784C11.8927 2.7499 10.1613 1.22685 8.2415 1.60687C7.07227 1.83727 6.12433 2.84266 5.94491 4.03656C5.76548 5.24242 6.3815 6.47822 7.45504 7.02879C7.73314 7.16942 7.8378 7.35793 7.8378 7.66613C7.82883 9.59013 7.83182 11.5171 7.83482 13.4411C7.83482 13.504 7.83481 13.5818 7.8677 13.6266C8.17571 14.0515 8.49269 14.4734 8.82462 14.9103ZM4.80857 15.0629C4.80857 15.0031 4.80857 14.9552 4.80857 14.9043C4.80857 13.1449 4.80857 11.3855 4.81156 9.62604C4.81156 9.51832 4.77567 9.45249 4.69493 9.38965C4.11779 8.93184 3.54066 8.47403 2.9695 8.00724C2.87979 7.93244 2.82596 7.9444 2.74522 8.01323C2.17107 8.47702 1.59692 8.93783 1.01679 9.39564C0.933061 9.46146 0.903159 9.53029 0.903159 9.63501C0.90615 11.3944 0.906149 13.1539 0.906149 14.9133C0.906149 14.9612 0.906149 15.0091 0.906149 15.0659C2.20696 15.0629 3.4958 15.0629 4.80857 15.0629Z" fill="#41454F"/>
<path d="M8.38199 3.24652C8.38199 3.15676 8.37601 3.06699 8.38199 2.97722C8.39993 2.75879 8.57039 2.59123 8.79168 2.57028C8.99503 2.55233 9.22229 2.69296 9.24622 2.89943C9.27612 3.13282 9.27612 3.37818 9.24622 3.61157C9.2193 3.81803 8.99801 3.95269 8.78869 3.93772C8.57039 3.91977 8.39694 3.74922 8.38199 3.53078C8.37601 3.43503 8.38199 3.34227 8.38199 3.24652Z" fill="#41454F"/>
<path d="M2.40729 11.9151C2.40729 11.3555 2.4043 10.799 2.40729 10.2394C2.41028 9.99407 2.58372 9.80855 2.81696 9.78461C3.0233 9.76367 3.23262 9.91028 3.28645 10.1227C3.3014 10.1736 3.3014 10.2305 3.3014 10.2843C3.3014 11.3705 3.3014 12.4567 3.3014 13.5458C3.3014 13.8451 3.11002 14.0545 2.84687 14.0485C2.5897 14.0425 2.4043 13.8361 2.4043 13.5458C2.40729 13.0013 2.40729 12.4567 2.40729 11.9151Z" fill="#41454F"/>
</svg>
