<svg width="15" height="16" viewBox="0 0 15 16" fill="none" xmlns="http://www.w3.org/2000/svg">
<path d="M4.53057 15.3254C4.32723 15.2476 4.10893 15.1968 3.92652 15.0831C3.49292 14.8168 3.27762 14.4098 3.24771 13.9011C3.24173 13.7814 3.24771 13.6647 3.24771 13.5271C3.05633 13.5271 2.8799 13.5271 2.70048 13.5271C2.35062 13.5271 2.00374 13.5271 1.65387 13.5271C1.28606 13.5271 1.09468 13.2907 1.16046 12.9317C1.46249 11.3428 1.76451 9.75092 2.06653 8.16204C2.06952 8.13811 2.06952 8.11417 2.07251 8.08125C1.83628 8.08125 1.60901 8.07228 1.38175 8.08425C1.23522 8.09322 1.13654 8.18897 1.08271 8.32362C1.01095 8.49418 0.945159 8.66474 0.873391 8.83529C0.759759 9.1016 0.51455 9.22129 0.272333 9.12255C0.0331065 9.0268 -0.0625827 8.76647 0.042079 8.49717C0.110857 8.32063 0.179633 8.14409 0.257382 7.97054C0.487637 7.46486 0.882361 7.18957 1.43856 7.18059C2.05158 7.17162 2.6646 7.1776 3.27762 7.1776C3.33144 7.1776 3.38527 7.1776 3.47199 7.1776C3.4062 7.00106 3.34341 6.84247 3.28659 6.6779C3.23875 6.53128 3.17296 6.38466 3.158 6.23505C3.11614 5.79519 3.41816 5.43613 3.85774 5.38227C3.88765 5.37927 3.91456 5.37329 3.95343 5.3703C3.98334 4.45168 4.29134 3.64378 4.90735 2.96156C5.51738 2.28232 6.2829 1.89333 7.19197 1.76167C7.19197 1.47442 7.19197 1.19315 7.19197 0.89692C7.0574 0.89692 6.92882 0.899912 6.80023 0.89692C6.53708 0.890935 6.33673 0.696441 6.33374 0.451078C6.33374 0.202723 6.53409 0.00224417 6.79724 0.00224417C7.3654 -0.000748056 7.93357 -0.000748056 8.50173 0.00224417C8.77086 0.00224417 8.96224 0.193747 8.96523 0.448086C8.96523 0.702425 8.77385 0.893927 8.50771 0.899912C8.37913 0.902904 8.25054 0.899912 8.11 0.899912C8.11 1.19016 8.11 1.47143 8.11 1.74372C10.0866 2.15964 11.1721 3.36551 11.3695 5.37628C11.4442 5.39124 11.522 5.40022 11.5967 5.42416C12.0124 5.54983 12.2456 5.98969 12.1111 6.41159C12.0303 6.66593 11.9287 6.91429 11.833 7.18359C12.0991 7.18359 12.3443 7.18359 12.5925 7.18359C12.9364 7.18359 13.0829 7.30627 13.1457 7.6414C13.4747 9.39783 13.8036 11.1543 14.1355 12.9137C14.1415 12.9406 14.1565 12.9676 14.1654 12.9945C14.1654 13.0543 14.1654 13.1142 14.1654 13.174C14.0578 13.4553 13.8484 13.5481 13.5554 13.5361C13.1128 13.5181 12.6703 13.5331 12.2247 13.5331C12.1709 13.5331 12.12 13.5331 12.0483 13.5331C12.0483 13.6767 12.0542 13.7994 12.0483 13.9221C12.0184 14.5415 11.6266 15.0561 11.0405 15.2536C10.9568 15.2806 10.8701 15.3045 10.7863 15.3284C10.6578 15.3284 10.5262 15.3284 10.3976 15.3284C10.3737 15.3194 10.3527 15.3075 10.3288 15.3045C9.67394 15.1698 9.23436 14.715 9.13269 14.0567C9.10578 13.8862 9.11176 13.7126 9.10279 13.5451C8.13093 13.5451 7.16804 13.5451 6.18721 13.5451C6.18721 13.6797 6.19319 13.8024 6.18721 13.9281C6.15731 14.5475 5.76558 15.0621 5.17947 15.2566C5.09574 15.2835 5.00902 15.3075 4.92529 15.3314C4.79073 15.3254 4.66214 15.3254 4.53057 15.3254ZM13.1637 12.6264C12.8796 11.1094 12.5955 9.59831 12.3114 8.08724C12.2576 8.08425 12.2187 8.08125 12.1798 8.08125C9.16558 8.08125 6.15133 8.08125 3.13707 8.07826C3.03241 8.07826 2.99354 8.10519 2.97261 8.21291C2.75132 9.40083 2.52106 10.5917 2.29679 11.7796C2.24296 12.0609 2.19213 12.3422 2.14129 12.6264C2.80216 12.6264 3.44209 12.6264 4.09697 12.6264C4.12388 12.4559 4.1508 12.2913 4.17472 12.1238C4.2734 11.4834 4.37208 10.8431 4.47375 10.2057C4.51263 9.95439 4.74288 9.78981 4.97912 9.82572C5.22732 9.86462 5.39477 10.095 5.3559 10.3494C5.28413 10.8161 5.20937 11.2829 5.13761 11.7527C5.09275 12.043 5.05089 12.3302 5.00603 12.6235C5.74464 12.6235 6.46831 12.6235 7.19795 12.6235C7.19795 12.5576 7.19795 12.5038 7.19795 12.4469C7.19795 11.7587 7.19795 11.0705 7.19795 10.3823C7.19795 10.3374 7.19496 10.2925 7.20094 10.2476C7.22486 9.99329 7.4282 9.81076 7.67042 9.81974C7.90965 9.83171 8.09206 10.0202 8.09505 10.2746C8.09804 11.0017 8.09505 11.7318 8.09804 12.4589C8.09804 12.5127 8.09804 12.5666 8.09804 12.6235C8.83964 12.6235 9.5633 12.6235 10.2929 12.6235C10.281 12.5397 10.272 12.4649 10.26 12.3931C10.1554 11.7228 10.0507 11.0555 9.94905 10.3853C9.9042 10.089 10.0657 9.85864 10.3288 9.82273C10.583 9.78981 10.7953 9.96935 10.8402 10.2566C10.9119 10.7354 10.9837 11.2111 11.0585 11.6899C11.1063 12.0041 11.1571 12.3153 11.208 12.6294C11.8629 12.6264 12.5028 12.6264 13.1637 12.6264ZM10.4335 5.37927C10.4484 4.5983 10.0268 3.57197 9.04597 3.02439C8.06215 2.47382 7.06637 2.49776 6.11843 3.10817C5.30805 3.63181 4.90137 4.4068 4.85053 5.38227C6.72248 5.37927 8.57051 5.37927 10.4335 5.37927ZM4.09996 6.2919C4.20761 6.57916 4.30629 6.85145 4.41394 7.12374C4.42591 7.15366 4.49169 7.18059 4.53057 7.18059C6.60885 7.18359 8.68713 7.18359 10.7654 7.18359C10.7804 7.18359 10.7983 7.18957 10.8103 7.18059C10.8372 7.16563 10.8761 7.15067 10.885 7.12374C10.9897 6.85145 11.0914 6.57616 11.199 6.28891C8.82768 6.2919 6.47428 6.2919 4.09996 6.2919ZM4.1508 13.5391C4.12687 13.8742 4.12089 14.1854 4.45581 14.3619C4.66214 14.4726 4.87147 14.4517 5.05986 14.3141C5.33198 14.1136 5.29908 13.8293 5.28413 13.5391C4.90137 13.5391 4.53057 13.5391 4.1508 13.5391ZM11.1422 13.5421C10.7594 13.5421 10.3856 13.5421 10.0118 13.5421C9.99092 13.8622 9.97896 14.1704 10.2989 14.353C10.5023 14.4697 10.7116 14.4577 10.903 14.326C11.19 14.1315 11.1631 13.8383 11.1422 13.5421Z" fill="#41454F"/>
</svg>
