<svg width="16" height="16" viewBox="0 0 16 16" fill="none" xmlns="http://www.w3.org/2000/svg">
<path d="M1.69851 0C5.66668 0 9.63186 0 13.6 0C14.0875 0.194495 14.2131 0.383004 14.2131 0.915621C14.2131 1.60982 14.2131 2.30102 14.2131 2.99522C14.2131 3.05207 14.219 3.10892 14.222 3.17775C14.3028 3.17775 14.3656 3.17775 14.4313 3.17775C15.0145 3.17775 15.3075 3.465 15.3075 4.04549C15.3075 7.61522 15.3075 11.1849 15.3075 14.7547C15.3075 15.1646 15.149 15.3202 14.7394 15.3202C10.0266 15.3202 5.31382 15.3172 0.601056 15.3232C0.322955 15.3232 0.119613 15.2484 0 14.9911C0 11.2508 0 7.51049 0 3.77021C0.008971 3.75824 0.0209321 3.74926 0.0269128 3.73729C0.164468 3.35429 0.409675 3.18074 0.81038 3.17775C0.897099 3.17775 0.98681 3.17775 1.09147 3.17775C1.09147 3.10294 1.09147 3.04309 1.09147 2.98624C1.09147 2.25913 1.09446 1.53501 1.09147 0.807901C1.09147 0.505686 1.19912 0.263315 1.46227 0.107719C1.53105 0.062836 1.61777 0.0359067 1.69851 0ZM12.4039 6.08918C10.9596 6.08918 9.53318 6.08918 8.10679 6.08918C8.10679 8.87195 8.10679 11.6398 8.10679 14.4166C9.54215 14.4166 10.9685 14.4166 12.4039 14.4166C12.4039 11.6368 12.4039 8.86896 12.4039 6.08918ZM2.89763 14.4136C4.34196 14.4136 5.76835 14.4136 7.19474 14.4136C7.19474 11.6338 7.19474 8.86298 7.19474 6.08619C5.75938 6.08619 4.33299 6.08619 2.89763 6.08619C2.89763 8.86597 2.89763 11.6368 2.89763 14.4136ZM5.34672 5.17057C6.89272 5.17057 8.41779 5.17057 9.94884 5.17057C9.94884 3.74328 9.94884 2.32795 9.94884 0.909638C8.40882 0.909638 6.87777 0.909638 5.34672 0.909638C5.34672 2.33394 5.34672 3.74926 5.34672 5.17057ZM1.9796 14.4195C1.9796 11.6338 1.9796 8.85998 1.9796 6.09217C1.6088 6.09217 1.25295 6.09217 0.903081 6.09217C0.903081 8.87494 0.903081 11.6457 0.903081 14.4195C1.26491 14.4195 1.61478 14.4195 1.9796 14.4195ZM13.3189 6.08619C13.3189 8.86896 13.3189 11.6428 13.3189 14.4136C13.6868 14.4136 14.0426 14.4136 14.3985 14.4136C14.3985 11.6338 14.3985 8.86298 14.3985 6.08619C14.0366 6.08619 13.6808 6.08619 13.3189 6.08619ZM1.99156 3.16877C2.8139 3.16877 3.62129 3.16877 4.43466 3.16877C4.43466 2.40874 4.43466 1.66069 4.43466 0.909638C3.61531 0.909638 2.80792 0.909638 1.99156 0.909638C1.99156 1.66368 1.99156 2.40874 1.99156 3.16877ZM10.8669 0.906644C10.8669 1.66368 10.8669 2.41174 10.8669 3.16877C11.6832 3.16877 12.4906 3.16877 13.31 3.16877C13.31 2.41174 13.31 1.66368 13.31 0.906644C12.4936 0.906644 11.6832 0.906644 10.8669 0.906644ZM0.90009 5.17057C2.08725 5.17057 3.25946 5.17057 4.43466 5.17057C4.43466 4.80252 4.43466 4.44944 4.43466 4.08738C3.25348 4.08738 2.08127 4.08738 0.90009 4.08738C0.90009 4.44944 0.90009 4.80552 0.90009 5.17057ZM10.8669 4.08439C10.8669 4.45842 10.8669 4.81449 10.8669 5.17356C12.051 5.17356 13.2233 5.17356 14.3955 5.17356C14.3955 4.80552 14.3955 4.44645 14.3955 4.08439C13.2143 4.08439 12.0481 4.08439 10.8669 4.08439Z" fill="#41454F"/>
<path d="M9.91596 10.1975C9.91596 10.3531 9.91895 10.5057 9.91596 10.6613C9.90699 10.9396 9.71263 11.1371 9.45846 11.1311C9.20729 11.1251 9.02489 10.9336 9.0219 10.6583C9.01891 10.3441 9.01891 10.0299 9.0219 9.71576C9.02489 9.44347 9.21028 9.24897 9.46145 9.24598C9.70964 9.24298 9.90699 9.43449 9.91596 9.70379C9.91895 9.86836 9.91596 10.0329 9.91596 10.1975Z" fill="#41454F"/>
<path d="M5.37663 10.1795C5.37663 10.021 5.37364 9.86237 5.37663 9.70079C5.38262 9.43748 5.57998 9.24298 5.83118 9.24598C6.07639 9.24897 6.26778 9.44346 6.27077 9.6978C6.27675 10.0269 6.27675 10.3531 6.27077 10.6822C6.26778 10.9366 6.06742 11.1281 5.8252 11.1281C5.58297 11.1281 5.38561 10.9366 5.37663 10.6822C5.37364 10.5177 5.37663 10.3471 5.37663 10.1795Z" fill="#41454F"/>
<path d="M7.20968 2.5584C7.5117 2.5584 7.78981 2.5584 8.09183 2.5584C8.09183 2.45966 8.08884 2.3669 8.09183 2.27713C8.1008 2.01382 8.28022 1.82531 8.52842 1.82232C8.77662 1.81633 8.97996 1.99587 8.98594 2.25619C8.99492 2.77982 8.99492 3.30346 8.98594 3.8241C8.97996 4.08442 8.77662 4.26096 8.52543 4.25498C8.28022 4.24899 8.1008 4.06048 8.09482 3.79717C8.09183 3.69244 8.09482 3.59071 8.09482 3.47401C7.79878 3.47401 7.51769 3.47401 7.21267 3.47401C7.21267 3.57575 7.21566 3.67748 7.21267 3.77922C7.20669 4.06348 7.02727 4.25498 6.76711 4.25498C6.50994 4.25498 6.32155 4.06048 6.31856 3.77922C6.31557 3.2855 6.31557 2.79179 6.31856 2.29808C6.32155 2.00783 6.51293 1.81334 6.77907 1.81633C7.03624 1.82232 7.21267 2.01382 7.21566 2.30107C7.20968 2.38485 7.20968 2.46265 7.20968 2.5584Z" fill="#41454F"/>
</svg>
