<svg width="16" height="16" viewBox="0 0 16 16" fill="none" xmlns="http://www.w3.org/2000/svg">
<path d="M1.93417 0.00598299C2.17041 0.098742 2.26311 0.278277 2.296 0.52364C2.35581 0.966489 2.43356 1.40934 2.50832 1.85219C2.5143 1.89108 2.56812 1.95392 2.59803 1.95392C3.33365 1.95991 4.07226 1.95991 4.81985 1.95991C4.98431 1.26571 5.3611 0.730101 5.9801 0.383003C6.46453 0.113702 6.98186 0.0359038 7.5261 0.131655C8.55178 0.317173 9.35319 1.24477 9.413 2.26511C9.47579 3.34531 8.71326 4.56614 7.29584 4.73071C7.35565 5.05387 7.41845 5.37404 7.47825 5.69421C7.61581 6.41832 7.77429 7.13945 7.88494 7.86656C8.18995 9.86537 6.91308 11.7714 4.95441 12.2711C4.78097 12.316 4.60454 12.3429 4.42213 12.3818C4.42213 13.0581 4.42213 13.7313 4.42213 14.4255C4.65538 14.4255 4.88264 14.4255 5.10991 14.4255C5.33418 14.4255 5.55846 14.4225 5.78273 14.4255C6.04289 14.4285 6.23427 14.614 6.23726 14.8624C6.24325 15.1167 6.05186 15.3142 5.78572 15.3202C5.63621 15.3232 5.48669 15.3202 5.33717 15.3202C4.28458 15.3202 3.23497 15.3202 2.18237 15.3202C1.82652 15.3202 1.60225 15.018 1.71887 14.7128C1.78765 14.5362 1.94613 14.4255 2.14948 14.4255C2.5442 14.4225 2.93593 14.4255 3.33066 14.4255C3.38448 14.4255 3.43831 14.4255 3.5041 14.4255C3.5041 13.7403 3.5041 13.0641 3.5041 12.3968C3.21105 12.319 2.91201 12.2621 2.62793 12.1604C0.74701 11.4782 -0.314558 9.56914 0.0831567 7.60624C0.283509 6.62479 0.471902 5.64334 0.660293 4.6589C0.675244 4.57811 0.666271 4.49133 0.65431 4.40755C0.57058 3.7702 0.477881 3.13286 0.397142 2.49551C0.355277 2.16637 0.543668 1.95991 0.875595 1.95392C1.10585 1.95093 1.33312 1.95093 1.56337 1.94794C1.57234 1.94794 1.58132 1.93896 1.60225 1.92699C1.54842 1.59485 1.4946 1.25674 1.43778 0.897668C1.20453 0.897668 0.974276 0.897668 0.74103 0.897668C0.65132 0.897668 0.56161 0.897668 0.4719 0.897668C0.235664 0.894676 0.056243 0.757031 0.011388 0.547575C-0.0364574 0.326151 0.068205 0.131658 0.29248 0.0299223C0.310422 0.0209456 0.325376 0.0119689 0.343318 0C0.878588 0.00598445 1.40788 0.00598299 1.93417 0.00598299ZM6.44659 5.07482C6.41668 5.07182 6.39874 5.06584 6.37781 5.06584C4.78695 5.06584 3.19908 5.06584 1.60823 5.06285C1.51553 5.06285 1.4946 5.09875 1.47964 5.18254C1.32415 5.99941 1.16865 6.81629 1.00119 7.63018C0.905501 8.09996 0.863634 8.56675 0.962315 9.03952C1.30321 10.6553 2.75352 11.6757 4.40419 11.4692C5.95019 11.2747 7.16427 9.80852 7.02073 8.25855C6.96989 7.69002 6.83533 7.13048 6.73067 6.56794C6.64395 6.07123 6.54228 5.57153 6.44659 5.07482ZM6.59012 2.87553C4.8348 2.87553 3.1034 2.87553 1.36003 2.87553C1.41984 3.31539 1.47964 3.73729 1.53646 4.16219C3.17516 4.16219 4.79592 4.16219 6.43164 4.16219C6.48546 3.73131 6.5363 3.30641 6.59012 2.87553ZM5.77077 1.95991C6.21334 1.95991 6.64096 1.95692 7.06857 1.95991C7.39153 1.9629 7.57992 2.18731 7.53806 2.51048C7.48423 2.93537 7.43639 3.35728 7.38256 3.78517C7.96867 3.7343 8.50095 3.10593 8.5159 2.4626C8.53384 1.71454 8.01053 1.09814 7.27491 0.999401C6.62302 0.912626 5.9173 1.35249 5.77077 1.95991Z" fill="#41454F"/>
<path d="M11.9697 6.24776C12.8967 6.24776 13.8237 6.24776 14.7507 6.24776C15.1394 6.24776 15.3069 6.4243 15.277 6.81329C15.1693 8.24956 15.0647 9.68583 14.951 11.1221C14.8583 12.2651 14.7896 13.4082 14.8165 14.5572C14.8255 14.9611 14.5982 15.2454 14.2364 15.3142C14.1736 15.3262 14.1078 15.3262 14.042 15.3262C12.6664 15.3262 11.2909 15.3262 9.91834 15.3262C9.44587 15.3262 9.13786 15.0329 9.14983 14.5661C9.1887 13.1987 9.06011 11.8372 8.94648 10.4788C8.84182 9.24298 8.74314 8.00719 8.64446 6.7684C8.62054 6.45123 8.80893 6.24776 9.13487 6.24776C10.0768 6.24776 11.0218 6.24776 11.9697 6.24776ZM9.73294 9.14722C9.82564 10.2693 9.91535 11.3794 10.0051 12.4865C11.3328 12.4865 12.6365 12.4865 13.9493 12.4865C14.033 11.3675 14.1167 10.2603 14.2005 9.14722C12.7083 9.14722 11.2341 9.14722 9.73294 9.14722ZM14.353 7.15739C12.7472 7.15739 11.1653 7.15739 9.57445 7.15739C9.60435 7.52245 9.63127 7.87254 9.66117 8.2316C11.2042 8.2316 12.7322 8.2316 14.2722 8.2316C14.2992 7.86954 14.3261 7.51945 14.353 7.15739ZM13.9164 14.4225C13.9164 14.1263 13.9074 13.848 13.9194 13.5697C13.9254 13.4321 13.8805 13.3932 13.7459 13.3962C12.5648 13.4022 11.3836 13.3992 10.2024 13.3992C10.1546 13.3992 10.1037 13.3992 10.0499 13.3992C10.0499 13.7493 10.0499 14.0844 10.0499 14.4225C11.3387 14.4225 12.6186 14.4225 13.9164 14.4225Z" fill="#41454F"/>
</svg>
