<svg width="16" height="16" viewBox="0 0 16 16" fill="none" xmlns="http://www.w3.org/2000/svg">
<path d="M15.3097 7.20229C15.238 7.40876 15.1333 7.58829 14.9449 7.71397C14.906 7.7379 14.8971 7.82767 14.8971 7.88751C14.8941 9.21008 14.8971 10.5297 14.8941 11.8522C14.8941 12.4955 14.5173 13.0132 13.9282 13.1718C13.7488 13.2197 13.5544 13.2227 13.3481 13.2496C13.3451 13.2855 13.3421 13.3394 13.3421 13.3902C13.3421 13.7702 13.3451 14.1473 13.3421 14.5273C13.3391 15.003 13.0281 15.3142 12.5556 15.3142C12.1131 15.3172 11.6675 15.3142 11.225 15.3142C10.8332 15.3142 10.5671 15.1137 10.4534 14.7337C10.3189 14.2759 10.1843 13.8151 10.0587 13.3573C10.0318 13.2586 9.99593 13.2227 9.88827 13.2227C9.07191 13.2286 8.25256 13.2286 7.4362 13.2227C7.33154 13.2227 7.28968 13.2586 7.26575 13.3543C7.14016 13.8091 7.00859 14.264 6.87701 14.7188C6.76338 15.1108 6.49724 15.3142 6.08756 15.3142C5.65397 15.3142 5.22037 15.3142 4.78677 15.3142C4.28739 15.3142 3.97938 15.003 3.97938 14.5003C3.97938 14.0814 3.97938 13.6655 3.97938 13.2257C3.87173 13.2257 3.77305 13.2257 3.67437 13.2257C2.93875 13.2257 2.48721 12.8905 2.2719 12.1903C1.75757 10.5147 1.24024 8.84204 0.728893 7.16639C0.70198 7.07662 0.666096 7.03174 0.567415 7.00481C0.220537 6.91803 0.00523308 6.63377 0.00224275 6.27171C-0.000747582 5.88272 -0.000747582 5.49373 0.00224275 5.10474C0.00523308 4.62299 0.316227 4.30881 0.797671 4.30582C1.92502 4.30282 3.04939 4.30582 4.17674 4.30582C4.27542 4.30582 4.3771 4.30282 4.47578 4.30881C4.84957 4.32377 5.16654 4.46441 5.44165 4.72174C6.06065 5.30821 6.68862 5.88272 7.31659 6.46022C7.35845 6.49912 7.43022 6.52605 7.48704 6.52605C8.86259 6.52904 10.2381 6.52904 11.6137 6.52605C11.6974 6.52605 11.7931 6.49912 11.8679 6.45723C12.2536 6.23581 12.6334 6.01139 13.0102 5.77799C13.058 5.74807 13.1029 5.67327 13.1029 5.61941C13.1089 4.07242 13.1059 2.52843 13.1059 0.981451C13.1059 0.957513 13.1029 0.933575 13.0999 0.900661C12.3523 0.900661 11.6077 0.900661 10.8542 0.900661C10.8542 1.26571 10.8542 1.62777 10.8542 2.01078C10.9289 2.01078 10.9947 2.01078 11.0635 2.01078C11.2967 2.01377 11.533 2.00479 11.7662 2.02574C11.9905 2.04668 12.152 2.25016 12.146 2.47158C12.14 2.69301 11.9725 2.87852 11.7483 2.90545C11.7184 2.90845 11.6885 2.91144 11.6585 2.91144C10.8153 2.91144 9.97499 2.91443 9.13172 2.91144C8.75195 2.90845 8.52767 2.55536 8.71008 2.24417C8.79979 2.08858 8.94333 2.01975 9.11976 2.01676C9.33506 2.01377 9.54738 2.01676 9.76268 2.01676C9.81651 2.01676 9.87033 2.01676 9.93911 2.01676C9.9421 1.95093 9.94808 1.89707 9.94808 1.84621C9.94808 1.56194 9.96303 1.27768 9.94509 0.99342C9.91818 0.49671 10.1066 0.155596 10.591 0C11.518 0 12.445 0 13.372 0C13.8535 0.16158 14.0179 0.505686 14.0119 0.999404C13.994 2.33394 14.006 3.67146 14.006 5.006C14.006 5.05986 14.006 5.11073 14.006 5.18853C14.0987 5.13766 14.1644 5.09876 14.2332 5.06584C14.6309 4.86836 15.1124 5.05687 15.2679 5.47279C15.2828 5.51468 15.3008 5.55358 15.3157 5.59547C15.3097 6.12509 15.3097 6.66369 15.3097 7.20229ZM1.63197 7.02875C1.6529 7.10654 1.66188 7.1604 1.67683 7.21127C2.16126 8.78219 2.6427 10.3501 3.12714 11.921C3.22582 12.2472 3.33646 12.328 3.67736 12.328C6.9428 12.328 10.2052 12.328 13.4707 12.328C13.8415 12.328 14 12.1724 14 11.8043C14 10.6882 14 9.56915 14 8.45305C14 8.40517 14 8.3573 14 8.28847C13.9372 8.32438 13.8923 8.34533 13.8505 8.36926C13.4737 8.59667 13.0999 8.82109 12.7261 9.0485C12.5078 9.18315 12.2746 9.25197 12.0174 9.25197C10.289 9.25197 8.55758 9.25197 6.82917 9.25197C6.44341 9.25197 6.1085 9.1263 5.82741 8.85999C5.20243 8.27351 4.57446 7.69003 3.94051 7.11253C3.88967 7.06465 3.79996 7.03473 3.73118 7.03473C3.08228 7.02875 2.43637 7.03174 1.78747 7.03174C1.74561 7.02875 1.70075 7.02875 1.63197 7.02875ZM0.905322 6.13108C0.97709 6.13108 1.03391 6.13108 1.09371 6.13108C2.02969 6.13108 2.96566 6.13407 3.90462 6.12808C4.11694 6.12808 4.2844 6.19092 4.43989 6.33754C5.0858 6.94496 5.7377 7.5464 6.38959 8.15083C6.52714 8.27651 6.67666 8.3543 6.87103 8.3543C8.57552 8.35131 10.28 8.3543 11.9815 8.34832C12.0682 8.34832 12.1639 8.32737 12.2357 8.28548C12.9384 7.86956 13.6352 7.44466 14.3349 7.02276C14.3648 7.00481 14.4097 6.9689 14.4097 6.94197C14.4156 6.63078 14.4126 6.32258 14.4126 5.99044C14.3409 6.03233 14.293 6.05627 14.2482 6.0832C13.6292 6.45125 13.0072 6.81929 12.3882 7.19033C12.1609 7.32498 11.9277 7.42073 11.6585 7.42073C10.1903 7.42073 8.71906 7.42073 7.2508 7.42073C7.10428 7.42073 6.98167 7.37285 6.87103 7.27112C6.2012 6.64574 5.52538 6.02635 4.85854 5.39798C4.715 5.26333 4.5625 5.1975 4.36513 5.1975C3.26469 5.20049 2.16425 5.20049 1.06082 5.20049C1.01297 5.20049 0.965129 5.20349 0.908313 5.20648C0.905322 5.51767 0.905322 5.8139 0.905322 6.13108ZM6.03075 14.4076C6.14438 14.0156 6.25502 13.6266 6.36566 13.2346C5.8603 13.2346 5.37288 13.2346 4.88246 13.2346C4.88246 13.6326 4.88246 14.0186 4.88246 14.4076C5.2712 14.4076 5.64799 14.4076 6.03075 14.4076ZM10.9558 13.2316C11.0665 13.6206 11.1711 13.9887 11.2788 14.3537C11.2848 14.3777 11.3236 14.4106 11.3476 14.4106C11.7094 14.4136 12.0712 14.4136 12.433 14.4136C12.433 14.0096 12.433 13.6236 12.433 13.2316C11.9456 13.2316 11.4642 13.2316 10.9558 13.2316Z" fill="#41454F"/>
</svg>
