<svg width="12" height="16" viewBox="0 0 12 16" fill="none" xmlns="http://www.w3.org/2000/svg">
<path d="M8.08121 0C8.38622 0.116697 8.54172 0.332138 8.59555 0.664276C8.80786 1.98086 9.17268 3.24957 9.81859 4.42552C10.2283 5.17357 10.7426 5.83186 11.4693 6.30464C11.5081 6.32858 11.544 6.3585 11.5829 6.37346C11.8909 6.49614 11.9926 6.72056 11.9776 7.0497C11.9567 7.54342 11.9716 8.03714 11.9716 8.53086C11.9716 8.96772 11.7145 9.22805 11.2749 9.23104C10.916 9.23403 10.5572 9.23104 10.1984 9.23104C10.1445 9.23104 10.0907 9.23104 10.0189 9.23104C10.016 9.29687 10.01 9.34774 10.01 9.4016C10.01 9.76964 10.013 10.1407 10.01 10.5087C10.007 10.775 9.86345 10.9546 9.63319 10.9905C9.3521 11.0354 9.12185 10.8349 9.11587 10.5297C9.10989 10.1616 9.11288 9.79059 9.11288 9.42255C9.11288 9.36869 9.11288 9.31483 9.11288 9.246C8.58957 9.246 8.07523 9.246 7.55192 9.246C7.54893 9.29089 7.54295 9.33577 7.54295 9.37766C7.54295 10.2753 7.54295 11.173 7.53996 12.0707C7.53996 12.1694 7.56986 12.2382 7.64462 12.3011C7.97356 12.5764 8.29053 12.8636 8.62246 13.1359C8.97233 13.4262 9.15175 13.7852 9.13381 14.243C9.12783 14.4136 9.1368 14.5812 9.13082 14.7517C9.11886 15.0749 8.87664 15.3172 8.55368 15.3172C6.84321 15.3202 5.13573 15.3202 3.42526 15.3172C3.09333 15.3172 2.85112 15.0719 2.83916 14.7427C2.83317 14.5393 2.83617 14.3328 2.83916 14.1293C2.84215 13.7344 3.01559 13.4232 3.31163 13.1688C3.65253 12.8786 3.99342 12.5853 4.32834 12.2891C4.37619 12.2442 4.42403 12.1664 4.42403 12.1036C4.43001 11.176 4.42702 10.2484 4.42702 9.32081C4.42702 9.29687 4.42403 9.27293 4.41805 9.22805C4.35226 9.22805 4.28947 9.22805 4.22667 9.22805C3.05446 9.22805 1.88524 9.22805 0.713028 9.22805C0.351198 9.22805 0.105991 9.05749 0.0222613 8.74929C0.00730961 8.69843 0.00132904 8.64157 0.00132904 8.58771C-0.0016613 8.0132 0.00132904 7.44169 0.00132904 6.86718C0.00132904 6.69363 0.0701065 6.55299 0.222614 6.46921C1.13766 5.96951 1.74768 5.18853 2.22614 4.29086C2.80626 3.20468 3.14417 2.03472 3.35349 0.825856C3.36545 0.75105 3.37742 0.679238 3.38639 0.604432C3.42227 0.293239 3.61365 0.110713 3.89175 0C5.29123 0 6.68772 0 8.08121 0ZM10.1535 6.40039C8.70918 4.82947 8.10214 2.91444 7.71639 0.90964C6.55614 0.90964 5.40785 0.90964 4.25358 0.90964C4.08313 1.91802 3.81999 2.89349 3.43423 3.83006C3.04549 4.77261 2.5461 5.64635 1.81347 6.40338C4.60943 6.40039 7.36951 6.40039 10.1535 6.40039ZM3.75121 14.4166C5.24936 14.4166 6.73855 14.4166 8.22475 14.4166C8.27558 14.1533 8.22176 13.9528 8.00047 13.7792C7.67453 13.5249 7.37549 13.2376 7.05553 12.9743C6.77144 12.7409 6.64286 12.4507 6.64585 12.0886C6.65183 11.1969 6.64884 10.3023 6.64884 9.41058C6.64884 9.35672 6.64884 9.30286 6.64884 9.24002C6.20328 9.24002 5.77267 9.24002 5.32711 9.24002C5.32711 9.30286 5.32711 9.35672 5.32711 9.41058C5.32711 10.3082 5.32412 11.2059 5.32711 12.1036C5.32711 12.4567 5.20152 12.7409 4.9294 12.9654C4.60644 13.2347 4.30442 13.5249 3.97249 13.7792C3.75719 13.9498 3.70336 14.1533 3.75121 14.4166ZM11.0686 7.31302C7.67453 7.31302 4.29545 7.31302 0.91039 7.31302C0.91039 7.65414 0.91039 7.98627 0.91039 8.3244C4.29844 8.3244 7.67752 8.3244 11.0686 8.3244C11.0686 7.98627 11.0686 7.65414 11.0686 7.31302Z" fill="#41454F"/>
</svg>
