<svg width="15" height="16" viewBox="0 0 15 16" fill="none" xmlns="http://www.w3.org/2000/svg">
<path d="M3.07716 15.3258C2.81103 15.224 2.72132 15.0295 2.72431 14.7513C2.73029 13.1504 2.7273 11.5496 2.7273 9.94877C2.7273 9.88893 2.7273 9.83207 2.7273 9.75727C2.29669 9.75727 1.87804 9.76026 1.46239 9.75428C1.32483 9.75128 1.1813 9.74231 1.04972 9.71238C0.481559 9.57773 0.0838448 9.11095 0.0090866 8.51849C-0.0567006 7.97989 0.239342 7.42334 0.747698 7.15703C1.71357 6.65434 2.68543 6.15764 3.65131 5.65794C4.65606 5.14028 5.65782 4.61964 6.66257 4.10498C6.75527 4.0571 6.79414 4.00623 6.78816 3.9015C6.77919 3.73394 6.78517 3.56338 6.78517 3.39283C6.78517 2.93801 7.00048 2.64478 7.44006 2.50713C7.91851 2.35752 8.1667 1.88176 7.99925 1.43293C7.86767 1.07386 7.49089 0.849448 7.12308 0.903308C6.73434 0.963152 6.45026 1.27135 6.42334 1.66333C6.42035 1.70223 6.41736 1.74412 6.41138 1.78302C6.36354 2.02539 6.16917 2.175 5.92994 2.15705C5.69968 2.13909 5.52923 1.94759 5.52624 1.70223C5.51428 0.909291 6.10637 0.18817 6.90479 0.0325746C7.78693 -0.140974 8.64815 0.394631 8.88737 1.26537C9.12361 2.12114 8.65413 3.02778 7.81385 3.32401C7.70619 3.36291 7.67928 3.41378 7.68526 3.51551C7.69423 3.68906 7.64041 3.89552 7.71516 4.02419C7.78992 4.14986 7.99626 4.19474 8.14577 4.27254C9.9011 5.17918 11.6534 6.0918 13.4177 6.98049C13.95 7.24979 14.3627 7.58193 14.4733 8.19833C14.4733 8.31801 14.4733 8.4377 14.4733 8.55739C14.4643 8.57834 14.4494 8.59928 14.4464 8.62322C14.3268 9.21867 13.9051 9.64955 13.3041 9.72735C12.9512 9.77223 12.5894 9.74829 12.2306 9.75428C12.0721 9.75727 11.9166 9.75428 11.7461 9.75428C11.7461 9.83207 11.7461 9.88893 11.7461 9.94877C11.7461 11.5496 11.7431 13.1474 11.7491 14.7483C11.7491 15.0236 11.6594 15.221 11.3963 15.3198C8.62123 15.3258 5.8492 15.3258 3.07716 15.3258ZM3.63337 12.4892C6.04357 12.4892 8.43883 12.4892 10.8341 12.4892C10.8341 11.2115 10.8341 9.94278 10.8341 8.67408C8.42686 8.67408 6.0346 8.67408 3.63337 8.67408C3.63337 9.95176 3.63337 11.2145 3.63337 12.4892ZM11.7431 8.8626C12.1797 8.8626 12.6044 8.8626 13.026 8.8626C13.322 8.8626 13.4985 8.73692 13.5583 8.48259C13.6121 8.25218 13.5104 8.0547 13.2622 7.92603C11.2886 6.90868 9.31499 5.89133 7.34436 4.87098C7.26363 4.82909 7.20382 4.83507 7.12607 4.87397C6.77321 5.05949 6.42035 5.23903 6.0645 5.42155C4.45571 6.25339 2.84392 7.08223 1.23512 7.91406C0.960011 8.0547 0.85834 8.24321 0.918146 8.48558C0.980943 8.73991 1.15438 8.85661 1.47136 8.85661C1.78534 8.85661 2.09933 8.85661 2.41331 8.85661C2.51498 8.85661 2.61964 8.85661 2.73029 8.85661C2.73029 8.65015 2.73029 8.46762 2.73029 8.28211C2.73328 7.94099 2.90672 7.75847 3.24462 7.75847C5.90602 7.75847 8.56741 7.75847 11.2288 7.75847C11.5697 7.75847 11.7461 7.938 11.7461 8.27612C11.7431 8.47361 11.7431 8.66212 11.7431 8.8626ZM10.846 14.4221C10.846 14.1349 10.846 13.8656 10.846 13.5993C10.846 13.3988 10.846 13.3988 10.6427 13.3988C8.37005 13.3988 6.0974 13.3988 3.82774 13.3988C3.78886 13.3988 3.74401 13.3898 3.70812 13.4018C3.67523 13.4137 3.63038 13.4527 3.62738 13.4796C3.6214 13.7908 3.62439 14.105 3.62439 14.4221C6.03759 14.4221 8.43284 14.4221 10.846 14.4221Z" fill="#41454F"/>
</svg>
