<svg width="12" height="13" viewBox="0 0 12 13" fill="none" xmlns="http://www.w3.org/2000/svg">
<path fill-rule="evenodd" clip-rule="evenodd" d="M3.52636 0.702626C4.16618 0.673171 4.37018 0.666626 6 0.666626C7.62982 0.666626 7.83382 0.673717 8.47309 0.702626C9.11236 0.731535 9.54873 0.833535 9.93055 0.981353C10.3304 1.13244 10.6931 1.36863 10.9931 1.67408C11.2985 1.97354 11.5342 2.33572 11.6847 2.73608C11.8331 3.1179 11.9345 3.55426 11.964 4.19244C11.9935 4.83335 12 5.03735 12 6.66663C12 8.29644 11.9929 8.50044 11.964 9.14026C11.9351 9.77844 11.8331 10.2148 11.6847 10.5966C11.5342 10.997 11.2982 11.3598 10.9931 11.6597C10.6931 11.9652 10.3304 12.2008 9.93055 12.3514C9.54873 12.4997 9.11236 12.6012 8.47418 12.6306C7.83382 12.6601 7.62982 12.6666 6 12.6666C4.37018 12.6666 4.16618 12.6595 3.52636 12.6306C2.88818 12.6017 2.45182 12.4997 2.07 12.3514C1.66959 12.2008 1.30681 11.9648 1.00691 11.6597C0.701662 11.3601 0.465444 10.9975 0.314727 10.5972C0.166909 10.2154 0.0654545 9.77899 0.036 9.14081C0.00654545 8.4999 0 8.2959 0 6.66663C0 5.03681 0.0070909 4.83281 0.036 4.19354C0.0649091 3.55426 0.166909 3.1179 0.314727 2.73608C0.465667 2.33576 0.702065 1.97316 1.00745 1.67354C1.30693 1.36835 1.66935 1.13214 2.06945 0.981353C2.45127 0.833535 2.88764 0.732081 3.52582 0.702626H3.52636ZM8.42455 1.78263C7.79182 1.75372 7.602 1.74772 6 1.74772C4.398 1.74772 4.20818 1.75372 3.57545 1.78263C2.99018 1.80935 2.67273 1.90699 2.46109 1.98935C2.18127 2.09844 1.98109 2.22772 1.77109 2.43772C1.57202 2.63138 1.41883 2.86714 1.32273 3.12772C1.24036 3.33935 1.14273 3.65681 1.116 4.24208C1.08709 4.87481 1.08109 5.06463 1.08109 6.66663C1.08109 8.26863 1.08709 8.45844 1.116 9.09117C1.14273 9.67644 1.24036 9.9939 1.32273 10.2055C1.41873 10.4657 1.572 10.7019 1.77109 10.8955C1.96473 11.0946 2.20091 11.2479 2.46109 11.3439C2.67273 11.4263 2.99018 11.5239 3.57545 11.5506C4.20818 11.5795 4.39745 11.5855 6 11.5855C7.60255 11.5855 7.79182 11.5795 8.42455 11.5506C9.00982 11.5239 9.32727 11.4263 9.53891 11.3439C9.81873 11.2348 10.0189 11.1055 10.2289 10.8955C10.428 10.7019 10.5813 10.4657 10.6773 10.2055C10.7596 9.9939 10.8573 9.67644 10.884 9.09117C10.9129 8.45844 10.9189 8.26863 10.9189 6.66663C10.9189 5.06463 10.9129 4.87481 10.884 4.24208C10.8573 3.65681 10.7596 3.33935 10.6773 3.12772C10.5682 2.8479 10.4389 2.64772 10.2289 2.43772C10.0352 2.23866 9.79947 2.08547 9.53891 1.98935C9.32727 1.90699 9.00982 1.80935 8.42455 1.78263ZM5.23364 8.51626C5.66163 8.69442 6.13821 8.71847 6.58196 8.58429C7.02572 8.45011 7.40912 8.16604 7.6667 7.78058C7.92427 7.39512 8.04003 6.93219 7.99421 6.47087C7.94838 6.00954 7.74382 5.57843 7.41545 5.25117C7.20613 5.04198 6.95302 4.8818 6.67436 4.78216C6.3957 4.68253 6.09842 4.64591 5.80391 4.67496C5.5094 4.70401 5.22499 4.798 4.97117 4.95015C4.71734 5.10231 4.50041 5.30885 4.33598 5.55491C4.17156 5.80097 4.06374 6.08042 4.02028 6.37315C3.97682 6.66588 3.99881 6.9646 4.08466 7.24782C4.17051 7.53103 4.31808 7.79169 4.51676 8.01102C4.71543 8.23035 4.96027 8.40291 5.23364 8.51626ZM3.81927 4.4859C4.10565 4.19952 4.44563 3.97235 4.8198 3.81737C5.19397 3.66238 5.595 3.58261 6 3.58261C6.405 3.58261 6.80603 3.66238 7.1802 3.81737C7.55437 3.97235 7.89435 4.19952 8.18073 4.4859C8.4671 4.77228 8.69427 5.11226 8.84926 5.48642C9.00424 5.86059 9.08401 6.26163 9.08401 6.66663C9.08401 7.07162 9.00424 7.47266 8.84926 7.84683C8.69427 8.221 8.4671 8.56098 8.18073 8.84735C7.60236 9.42572 6.81793 9.75064 6 9.75064C5.18207 9.75064 4.39764 9.42572 3.81927 8.84735C3.24091 8.26899 2.91599 7.48456 2.91599 6.66663C2.91599 5.84869 3.24091 5.06426 3.81927 4.4859ZM9.768 4.0419C9.83897 3.97495 9.89578 3.89445 9.93507 3.80516C9.97437 3.71586 9.99535 3.61959 9.99677 3.52204C9.9982 3.42449 9.98003 3.32765 9.94335 3.23725C9.90668 3.14685 9.85224 3.06472 9.78325 2.99574C9.71427 2.92675 9.63214 2.87231 9.54174 2.83564C9.45134 2.79896 9.3545 2.78079 9.25695 2.78222C9.1594 2.78364 9.06313 2.80462 8.97383 2.84391C8.88454 2.88321 8.80404 2.94002 8.73709 3.01099C8.6069 3.14901 8.53562 3.33233 8.53838 3.52204C8.54115 3.71176 8.61774 3.89292 8.7519 4.02709C8.88607 4.16125 9.06723 4.23784 9.25695 4.24061C9.44666 4.24337 9.62998 4.17209 9.768 4.0419Z" fill="#41454F"/>
</svg>
