<svg width="11" height="12" viewBox="0 0 11 12" fill="none" xmlns="http://www.w3.org/2000/svg">
<path d="M1.61537 3.23062C2.3234 3.23062 2.89737 2.65665 2.89737 1.94862C2.89737 1.2406 2.3234 0.666626 1.61537 0.666626C0.907344 0.666626 0.333374 1.2406 0.333374 1.94862C0.333374 2.65665 0.907344 3.23062 1.61537 3.23062Z" fill="#41454F"/>
<path d="M4.10789 4.20202V11.3145H6.31623V7.79724C6.31623 6.86914 6.49083 5.97033 7.64158 5.97033C8.77651 5.97033 8.79058 7.03144 8.79058 7.85583V11.3151H11.0001V7.41463C11.0001 5.49867 10.5876 4.02625 8.34821 4.02625C7.27304 4.02625 6.55235 4.61627 6.25764 5.17465H6.22775V4.20202H4.10789ZM0.509155 4.20202H2.72101V11.3145H0.509155V4.20202Z" fill="#41454F"/>
</svg>
