<svg width="187" height="40" viewBox="0 0 187 40" fill="none" xmlns="http://www.w3.org/2000/svg">
<path fill-rule="evenodd" clip-rule="evenodd" d="M163.738 0.0413204L166.176 12.0648H166.713V20.9069H169.895V11.9409C170.019 11.8996 170.143 11.8169 170.225 11.693C170.638 11.2798 170.804 10.5361 170.928 9.95762L172.828 0H169.564L168.242 7.39591L168.24 7.38677L168.24 7.38662C167.786 4.91064 167.332 2.43471 166.879 0H163.738V0.0413204ZM59.0899 17.8486V20.8648H51.5701C51.2809 20.8648 50.9916 20.8235 50.7437 20.6582C50.4958 20.4929 50.3305 20.3276 50.2066 20.0797C50.0826 19.8731 50 19.5839 50 19.2947V1.40405C50 1.11482 50.0413 0.8256 50.2066 0.577692C50.3305 0.371103 50.5371 0.247149 50.7437 0.164513C50.9916 0.0818776 51.2395 0.0405522 51.4874 0.0405522H59.0899V3.13939H53.8839C53.1815 3.13939 53.1402 3.38731 53.1402 4.25498V5.20529L53.0988 16.6504C53.1038 16.725 53.107 16.799 53.1101 16.8715L53.1101 16.8715C53.1328 17.401 53.1521 17.8486 53.8426 17.8486H59.0899ZM123.216 20.9073H119.828L118.63 13.8832C119.332 13.0982 120.82 12.1479 121.481 11.7347L123.216 20.9073ZM79.0467 20.9061H79.2533H82.1869V11.9401C82.3108 11.8988 82.4348 11.8162 82.5174 11.6922C82.6414 11.5682 82.8067 11.3203 82.8893 11.0724C83.0132 10.7419 83.0959 10.3701 83.1785 9.99826L83.1785 9.99817L85.0791 0.0405522H81.815L80.4929 7.43645C80.2036 5.74242 79.6665 2.89149 79.1294 0.0405522H76.0305L78.4683 12.0641H79.0054V20.6169C79.0467 20.7408 79.0467 20.7821 79.0467 20.9061ZM111.399 3.18071H108.713C108.134 3.18071 107.721 3.38731 107.845 4.04839V20.8648H106.151C104.994 20.9061 104.829 20.6169 104.829 19.4186V3.18071H101.152V0.0405522H111.399V3.18071ZM95.2427 6.27956H98.3416V0.0818726V0.0405522H90.4085C89.2103 0.123188 88.4666 0.412416 88.4253 1.528C88.4253 3.96576 88.4666 7.80832 88.5492 10.4113C88.5905 11.4856 89.4582 11.5682 91.2349 11.6096H94.499C94.9535 11.6096 95.2427 11.7335 95.284 12.188V17.2288C95.284 17.6833 95.0361 17.8486 94.623 17.8486H91.6894V14.7084H88.5079V20.9474H96.8954C97.8044 20.9474 98.4242 20.245 98.4242 19.336V9.79158C98.4242 8.9239 98.011 8.46941 97.102 8.42809H94.2098C92.3918 8.42809 91.7307 8.38677 91.6894 7.43645C91.6803 7.12625 91.6691 6.82008 91.6582 6.51972L91.6582 6.51894C91.6196 5.45934 91.5837 4.47206 91.6481 3.63521C91.6894 3.22204 91.896 3.09807 92.3092 3.09807H95.2427V6.27956ZM69.9632 6.56372C69.971 5.54636 69.9789 4.50545 69.9168 3.51128C69.9581 3.01546 69.421 2.89152 68.8425 3.01547H66.4461H66.4047V12.4773V21.0301H63.2233V0.164539H67.1072H71.6108C72.6851 0.205857 73.1809 0.7843 73.1396 1.89988C73.1396 2.27932 73.1486 2.77975 73.159 3.34967L73.159 3.35006V3.3501C73.2027 5.75903 73.2689 9.40904 72.7677 10.4114C72.6437 10.6593 72.3958 10.8659 72.1066 10.9898C72.7677 11.527 73.1396 12.3533 73.1396 13.5515V20.9888H69.9994L69.9581 14.1713C69.9168 12.6012 68.3467 12.312 67.0658 12.312C67.0658 12.1939 67.0648 12.0665 67.0637 11.933C67.0579 11.2256 67.0508 10.3478 67.1898 9.7916C67.3964 8.92393 68.0575 8.6347 68.8838 8.55207L68.9763 8.54136C69.6188 8.4676 69.9581 8.42866 69.9581 7.56044C69.9581 7.23282 69.9606 6.90013 69.9632 6.56488V6.56469V6.56449V6.5643V6.56411V6.56391V6.56372ZM144.194 5.3998C144.213 4.71123 144.232 4.01008 144.176 3.34598C144.052 2.9328 143.68 2.89149 143.143 2.9328H140.706V18.0138H143.433C143.68 18.0138 143.887 17.9725 144.011 17.8899C144.176 17.7659 144.176 17.5593 144.176 17.3114C144.204 16.0507 144.195 15.2081 144.186 14.3496V14.3494V14.3492V14.349V14.3488V14.3484V14.348V14.3477V14.3474C144.181 13.9123 144.176 13.473 144.176 12.9731C144.135 11.403 142.565 11.1138 141.284 11.1138C141.284 11.081 141.283 11.0244 141.283 10.9497V10.9496V10.9495C141.277 10.3641 141.261 8.66663 141.408 8.59336C141.615 7.72569 142.276 7.43646 143.102 7.35382C143.168 7.34443 143.238 7.33931 143.309 7.33408C143.552 7.31634 143.81 7.29745 143.97 7.10591C144.135 6.98196 144.176 6.73405 144.176 6.4035C144.176 6.07618 144.185 5.73985 144.194 5.40046L144.194 5.3998ZM146.986 9.17181C146.862 9.41972 146.614 9.6263 146.325 9.75026C146.945 10.2874 147.358 11.1138 147.316 12.312C147.316 13.4482 147.327 14.5948 147.337 15.7414C147.347 16.8879 147.358 18.0345 147.358 19.1707C147.358 20.2863 146.986 20.8648 145.829 20.9061H137.441V0.0405522H145.829C146.821 0.0405522 147.399 0.577692 147.358 1.61064C147.358 2.18559 147.362 2.76961 147.367 3.35669V3.35705V3.35742V3.35778V3.35814V3.35839V3.35864V3.3589V3.35916C147.376 4.54324 147.385 5.73973 147.358 6.89932C147.316 7.89095 147.234 8.67599 146.986 9.17181ZM116.936 4.66816L117.721 9.04786C118.795 9.00654 120.241 9.08918 120.985 9.41972L119.622 2.14777C119.456 1.0735 119.126 0.0818701 117.886 0.0405522H114.87L110.656 20.9061H113.878C115.696 14.6671 120.531 11.4443 123.175 10.5353C121.481 9.33708 118.051 8.84126 115.986 9.50235C116.399 7.60172 116.729 5.82506 116.936 4.66816ZM134.372 20.9069H126.563V1.44613V1.40482C126.563 0.247918 126.728 0 127.885 0H129.579V16.8164C129.579 17.3948 129.868 17.7254 130.529 17.7254H134.372V20.9069ZM156.802 9.04786L156.017 4.66816C155.811 5.82506 155.48 7.60172 155.067 9.50235C157.133 8.84126 160.562 9.33708 162.256 10.5353C159.612 11.4443 154.778 14.6671 152.96 20.9061H149.737L153.952 0.0405522H156.968C158.207 0.0818701 158.538 1.0735 158.703 2.14777L160.067 9.41972C159.323 9.08918 157.877 9.00654 156.802 9.04786ZM162.298 20.9073H158.91L157.712 13.8833C158.414 13.0982 159.901 12.1479 160.562 11.7347L162.298 20.9073ZM180.52 4.66816L181.305 9.04786C182.379 9.00654 183.825 9.08918 184.569 9.41972L183.205 2.14777C183.04 1.0735 182.709 0.0818701 181.47 0.0405522H178.454L174.239 20.9061H177.462C179.28 14.6671 184.114 11.4443 186.759 10.5353C185.065 9.33708 181.635 8.84126 179.569 9.50235C179.982 7.60172 180.313 5.82506 180.52 4.66816ZM183.412 20.9073H186.8L185.064 11.7347C184.403 12.1479 182.916 13.0982 182.214 13.8833L183.412 20.9073Z" fill="white"/>
<path fill-rule="evenodd" clip-rule="evenodd" d="M70 39C83.7663 35.974 100.519 34.1875 118.611 34.1875C136.703 34.1875 153.49 35.974 167.222 39C154.417 34.6615 137.355 32 118.611 32C99.867 32.0365 82.805 34.6615 70 39Z" fill="white"/>
<path fill-rule="evenodd" clip-rule="evenodd" d="M0.99313 19.7239C0.803311 20.1553 0.613492 20.5522 0.475442 20.9491C0.440929 21.0354 0.406416 21.1217 0.38916 21.208C0.613492 20.7421 0.889593 20.2934 1.23472 19.8792C3.01212 17.6014 6.11825 15.9103 8.67218 14.8577C9.91463 14.34 11.1226 13.7705 12.2442 13.0803C13.3141 12.4245 14.6083 11.4582 15.4366 10.5263C16.2649 11.4754 17.5592 12.4245 18.6291 13.0803C19.7507 13.7705 20.9587 14.34 22.2011 14.8577C24.755 15.9276 27.8784 17.6014 29.6386 19.8792C29.9319 20.2589 30.1908 20.6558 30.4151 21.0872L30.3633 20.9664C30.2253 20.5695 30.0355 20.1726 29.8456 19.7412C26.5324 12.5971 17.2313 3.86541 15.4194 0C13.6075 3.86541 4.30634 12.5971 0.99313 19.7239Z" fill="white"/>
<path fill-rule="evenodd" clip-rule="evenodd" d="M5.65239 25.2463C5.22098 25.9711 4.53073 27.0755 4.3064 28.0591C4.34091 27.9728 4.39268 27.8866 4.44445 27.8003C5.03116 26.8339 6.48069 26.1092 8.25809 25.4362C8.77577 25.2463 9.2417 25.0738 9.69036 24.9185C11.7611 24.1765 13.2969 23.676 15.1606 21.8469C15.2469 21.7606 15.3332 21.6743 15.4194 21.5708C15.5057 21.657 15.592 21.7433 15.6783 21.8296C17.6973 23.7623 19.5782 24.4008 21.3556 25.0048C21.7698 25.1428 22.1839 25.2809 22.5981 25.4362C24.3927 26.1092 25.825 26.8512 26.4117 27.8003C26.4635 27.8866 26.5152 27.9728 26.5497 28.0591C26.3254 27.0755 25.6352 25.9884 25.2038 25.2463C22.2357 20.2593 16.6446 14.8236 15.4367 12.2351C14.2115 14.8063 8.62047 20.2593 5.65239 25.2463Z" fill="white"/>
<path fill-rule="evenodd" clip-rule="evenodd" d="M11.0362 30.0777C11.623 30.9578 14.4703 33.3392 15.4193 34.202C16.1269 33.5463 19.5609 30.5782 19.8542 29.9742C19.9923 29.7154 19.9232 29.5428 19.7334 29.353C19.4228 29.0424 18.8706 28.8698 18.2666 28.6972C17.2658 28.3866 16.1096 28.0415 15.4193 26.9026C14.7291 28.0242 13.5729 28.3866 12.5721 28.6972C11.9681 28.8871 11.4159 29.0424 11.1053 29.353C10.8809 29.5773 10.8637 29.8189 11.0362 30.0777Z" fill="white"/>
<path fill-rule="evenodd" clip-rule="evenodd" d="M10.8468 29.7149C10.8468 29.6804 10.8468 29.6459 10.8468 29.6114C10.8641 29.4733 10.9331 29.3353 11.0884 29.18C11.9512 28.3344 14.3671 28.5587 15.4025 26.6778C16.4379 28.5587 18.871 28.3517 19.7166 29.18C19.8201 29.2835 19.9237 29.4043 19.9582 29.5596C19.9754 29.6114 19.9754 29.6631 19.9754 29.7149C19.9754 29.6631 19.9927 29.6286 19.9754 29.5769C19.9582 29.4216 19.8891 29.2317 19.7856 28.9902C18.7502 26.626 16.2998 24.8141 15.4025 22.8987C14.833 24.0894 11.9685 26.7813 11.0194 28.9902C10.9159 29.2317 10.8468 29.4216 10.8296 29.5769C10.8468 29.6114 10.8468 29.6631 10.8468 29.7149Z" fill="white"/>
<path fill-rule="evenodd" clip-rule="evenodd" d="M15.4023 10.8022C16.1444 12.0274 17.9563 14.15 19.5093 16.0482C21.5456 18.4985 23.8579 21.3286 25.48 24.0378C26.015 24.9351 26.6707 26.1086 27.0331 27.1957C27.3092 28.024 27.43 28.8006 27.2056 29.3355C27.7406 28.9731 28.3618 28.4037 28.9313 27.8169C29.6215 27.0922 30.2428 26.2984 30.4326 25.7462C31.2609 23.5374 30.7087 21.6392 29.449 20.0171C27.7061 17.7738 24.6172 16.0999 22.0805 15.0473C20.8208 14.5296 19.6129 13.9429 18.474 13.2526C17.5939 12.7177 16.7483 12.1137 15.9891 11.4235C15.9718 11.3544 15.4714 10.854 15.4023 10.8022Z" fill="white"/>
<path fill-rule="evenodd" clip-rule="evenodd" d="M8.74161 15.0476C6.20494 16.1002 3.11606 17.7569 1.37318 20.0174C0.130724 21.6223 -0.438734 23.5377 0.389568 25.7465C0.596643 26.2987 1.20061 27.0752 1.89087 27.8173C2.46032 28.404 3.08155 28.9734 3.61649 29.3358C3.39216 28.8009 3.4957 28.0243 3.78906 27.196C4.15144 26.1089 4.80718 24.9355 5.34212 24.0381C6.96422 21.3289 9.27656 18.5161 11.2955 16.0657C12.8486 14.1675 14.6433 12.0623 15.3853 10.8198C15.3853 10.8198 15.3335 10.8716 15.2645 10.9406C14.4017 11.8552 13.3836 12.6145 12.3137 13.2702C11.2093 13.9432 10.0013 14.5299 8.74161 15.0476Z" fill="white"/>
<path fill-rule="evenodd" clip-rule="evenodd" d="M20.0267 30.9059L15.471 35.0647L15.4192 35.1165L15.3502 35.0647L10.7946 30.9059C10.2941 30.44 10.0353 30.1639 9.93175 29.8705C9.84546 29.5772 9.93175 29.2838 10.1388 28.8007C10.7946 27.2476 12.2786 25.5047 13.5038 24.0379C14.056 23.3822 14.9188 22.4676 15.402 21.7773C15.0569 22.088 14.798 22.3641 14.4356 22.6747C12.8998 23.9344 11.5193 24.4176 9.74193 25.056C9.29326 25.2113 8.81009 25.3839 8.30965 25.5737C6.54951 26.2467 5.1345 26.9542 4.5823 27.8688C4.03009 28.7661 4.32345 29.8705 5.94554 31.3546L15.4192 40L24.8929 31.3546C26.515 29.8705 26.8084 28.7661 26.2562 27.8688C25.704 26.9542 24.289 26.2295 22.5288 25.5737C22.1147 25.4184 21.7178 25.2804 21.3036 25.1423C19.7506 24.6246 18.1112 24.0897 16.3856 22.6574C16.0405 22.3641 15.7471 22.088 15.4192 21.7773C15.9197 22.6229 17.0068 23.7963 17.7834 24.6764C18.8878 25.9189 20.0439 27.2476 20.6997 28.8007C20.9067 29.2838 20.993 29.5772 20.9067 29.8705C20.8032 30.1812 20.5271 30.4573 20.0267 30.9059Z" fill="white"/>
</svg>
