<svg width="68" height="68" viewBox="0 0 68 68" fill="none" xmlns="http://www.w3.org/2000/svg">
<circle opacity="0.1" cx="34" cy="34" r="34" fill="#C91414"/>
<circle cx="34" cy="34" r="12" fill="#C91414"/>
<path d="M33.8204 27.9404C33.9202 27.9404 34.0156 27.9404 34.1153 27.9404C34.4336 28.004 34.6563 28.2098 34.8748 28.4304C36.2177 29.7797 37.5649 31.1269 38.9163 32.4719C39.1412 32.6947 39.3449 32.9217 39.4 33.2463V33.5008C39.3936 33.5178 39.3852 33.5327 39.3809 33.5496C39.2833 34.0418 38.893 34.3664 38.3923 34.3728C38.3414 34.3728 38.2905 34.3728 38.2332 34.3728C38.2332 34.4322 38.2332 34.4746 38.2332 34.517C38.2332 35.2405 38.2332 37.0756 38.2332 38.096C38.2332 38.4885 37.915 38.8067 37.5225 38.8067H35.7234C35.331 38.8067 35.0127 38.4885 35.0127 38.096C35.0127 37.4341 35.0127 36.4773 35.0127 35.9766C35.0127 35.616 34.7942 35.3975 34.4293 35.3975C34.1281 35.3975 33.8289 35.406 33.5277 35.3954C33.1628 35.3826 32.9146 35.6436 32.9209 36C32.9294 36.4985 32.9273 37.4447 32.9273 38.0982C32.9273 38.4906 32.6091 38.8067 32.2166 38.8067H30.4154C30.0229 38.8067 29.7047 38.4885 29.7047 38.096C29.7047 37.0756 29.7047 35.2362 29.7047 34.5043C29.7047 34.464 29.7047 34.4216 29.7047 34.3855C29.6835 34.3791 29.6771 34.3749 29.6708 34.3749C29.6177 34.3728 29.5647 34.3749 29.5117 34.3728C29.1234 34.3516 28.8328 34.1712 28.6503 33.8276C28.61 33.7533 28.5867 33.6706 28.5612 33.5899C28.5549 33.486 28.5464 33.3269 28.54 33.2229C28.6037 32.9068 28.8094 32.6841 29.0301 32.4655C30.373 31.1248 31.7159 29.784 33.0546 28.4368C33.2752 28.214 33.498 28.0061 33.8204 27.9404Z" fill="white"/>
</svg>
