<svg width="62" height="86" viewBox="0 0 62 86" fill="none" xmlns="http://www.w3.org/2000/svg">
<path d="M30.9841 53.1876C19.5305 53.1876 10.2245 43.8099 10.2245 32.3564C10.2245 20.9028 19.6021 11.5967 31.0557 11.6683C42.5093 11.6683 51.8153 21.0459 51.8153 32.4995C51.7437 43.8815 42.3661 53.1876 30.9841 53.1876Z" fill="#C91414"/>
<path d="M39.5028 36.9377C39.5028 32.2847 35.494 31.2825 32.1295 30.4951C29.5525 29.8508 27.3333 29.3497 27.3333 27.3454C27.3333 25.5557 29.123 24.5536 31.2705 24.5536C33.5612 24.5536 35.3508 25.6989 35.3508 27.918H38.8585C38.8585 24.1956 36.5678 21.7617 32.6306 21.3322V19.1847H29.6241V21.4038C26.0448 21.9049 23.7541 24.1241 23.7541 27.4885C23.7541 31.9984 27.5481 32.8574 30.9126 33.7164C33.5612 34.3607 35.8519 34.8618 35.8519 37.0093C35.8519 39.0137 33.8476 40.2307 31.5568 40.2307C28.9798 40.2307 26.9754 38.8705 26.9754 36.4367H23.3246C23.3246 40.2307 25.7585 42.8077 29.5525 43.452V45.8143H32.559V43.5951C36.4962 43.1656 39.5028 40.9465 39.5028 36.9377Z" fill="white"/>
<path d="M60.1908 33.2154C60.1192 33.0006 60.1192 32.7143 60.1192 32.428C60.1192 32.1416 60.1192 31.8553 60.1908 31.6405C60.6919 29.3498 61.2645 26.9875 61.8372 24.6968C62.2667 23.0503 61.8372 21.6902 60.5487 20.6164C58.7591 19.1132 56.8979 17.5383 55.1082 15.9634C54.7503 15.6055 54.3924 15.176 54.1776 14.6749C53.247 12.5274 52.3164 10.3082 51.3858 8.08909C50.7416 6.44264 49.5246 5.65521 47.8066 5.51204C46.1601 5.36887 44.5137 5.15411 42.8672 5.15411C40.8628 5.08253 39.0732 4.50985 37.4268 3.43607C35.6371 2.14755 33.6328 1.14536 31.6284 0C31.1989 0 30.6978 0 30.2683 0C29.7672 0.214755 29.1945 0.429509 28.765 0.715849C26.689 1.93279 24.6847 3.22132 22.6803 4.36668C22.2508 4.65302 21.6781 4.79619 21.177 4.86777C18.8147 5.08253 16.4524 5.29728 14.1617 5.44045C12.4436 5.58362 11.2267 6.37106 10.5824 8.01751C9.65183 10.2366 8.72123 12.4558 7.79063 14.6749C7.57587 15.1044 7.28953 15.5339 6.93161 15.8203C5.0704 17.4667 3.28078 19.0416 1.41957 20.6164C0.202627 21.6902 -0.226883 22.9788 0.131042 24.5536C0.703721 26.9159 1.2764 29.2066 1.77749 31.5689C1.84908 31.8553 1.84908 32.07 1.84908 32.3564C1.84908 32.6427 1.84908 32.9291 1.77749 33.1438C1.2764 35.5777 0.703721 37.94 0.131042 40.3023C-0.226883 41.8772 0.131042 43.1657 1.41957 44.2395C3.28078 45.8143 5.14198 47.3892 6.93161 49.0357C7.28953 49.322 7.57587 49.7515 7.79063 50.181C8.72123 52.4001 9.65183 54.6193 10.5824 56.8384C11.2267 58.4849 12.4436 59.2723 14.1617 59.4155C16.524 59.5586 18.8863 59.7734 21.177 59.9881C21.6781 60.0597 22.2508 60.2029 22.6803 60.4892C24.7562 61.7062 26.7606 62.9231 28.765 64.1401C29.2661 64.4264 29.7672 64.6412 30.2683 64.8559C30.6978 64.8559 31.1989 64.8559 31.6284 64.8559C33.5612 63.7106 35.5656 62.7084 37.4268 61.4914C39.1448 60.3461 40.8628 59.7734 42.8672 59.7734C44.5137 59.7734 46.1601 59.5586 47.8066 59.4155C49.5246 59.2723 50.7416 58.4849 51.3858 56.8384C52.2448 54.6193 53.1754 52.4717 54.1776 50.2526C54.3924 49.7515 54.7503 49.322 55.1082 48.9641C56.8979 47.3892 58.6875 45.8143 60.5487 44.3111C61.8372 43.2373 62.2667 41.8772 61.8372 40.2307C61.2645 37.8684 60.6919 35.5777 60.1908 33.2154ZM58.3296 42.0203C56.3968 43.6668 54.464 45.3132 52.6028 46.9597C52.1017 47.3892 51.7437 47.9619 51.4574 48.5346C50.4552 50.8253 49.453 53.1876 48.5224 55.4783C48.3077 55.9794 48.0929 56.1941 47.5202 56.2657C45.2295 56.4089 42.8672 56.6237 40.5765 56.7668C39.5027 56.8384 38.5005 57.1247 37.5699 57.6974C35.6371 58.9144 33.6328 60.0597 31.7 61.2767C31.1273 61.6346 30.7694 61.7062 30.1967 61.2767C28.0492 59.9166 25.9016 58.628 23.7541 57.3395C23.3245 57.1247 22.895 56.91 22.3939 56.8384C19.7453 56.5521 17.1682 56.3373 14.5196 56.1941C13.9469 56.1226 13.589 55.9794 13.3742 55.4067C12.4436 53.0444 11.4415 50.7537 10.4393 48.463C10.1529 47.8903 9.795 47.3176 9.29391 46.8881C7.4327 45.2417 5.49991 43.5952 3.56712 41.9487C3.13761 41.5908 3.06602 41.2329 3.20919 40.7318C3.78187 38.6558 4.21138 36.5083 4.78406 34.4323C4.92723 33.7165 4.99881 33.0722 4.99881 32.428C4.99881 31.7837 4.92723 31.1394 4.71247 30.4236C4.1398 28.3476 3.71029 26.2001 3.20919 24.0525C3.06602 23.4798 3.13761 23.1935 3.56712 22.8356C5.49991 21.1891 7.4327 19.6143 9.29391 17.8962C9.795 17.4667 10.1529 16.894 10.4393 16.3214C11.4415 14.0306 12.4436 11.6683 13.3742 9.37762C13.589 8.80494 13.9469 8.59019 14.5196 8.59019C17.1682 8.37543 19.7453 8.16068 22.3939 7.94592C22.8235 7.87434 23.3245 7.65958 23.7541 7.44483C25.9016 6.1563 28.1207 4.86777 30.1967 3.50766C30.7694 3.14974 31.1989 3.22132 31.7 3.50766C33.6328 4.7246 35.6371 5.86996 37.5699 7.0869C38.5005 7.65958 39.5027 7.94592 40.5765 8.01751C42.8672 8.16068 45.2295 8.37543 47.5202 8.5186C48.0929 8.59019 48.3077 8.80494 48.5224 9.30604C49.453 11.6683 50.4552 13.9591 51.4574 16.2498C51.7437 16.8225 52.1017 17.3951 52.6028 17.8246C54.464 19.5427 56.3968 21.1175 58.3296 22.764C58.7591 23.1219 58.9022 23.4083 58.7591 23.9809C58.1148 26.558 57.5421 29.1351 56.9694 31.6405C56.8979 31.8553 56.8979 32.07 56.8979 32.2848C56.8979 32.4995 56.8979 32.7143 56.9694 32.9291C57.5421 35.5061 58.1148 38.0832 58.7591 40.5886C58.9022 41.3761 58.7591 41.6624 58.3296 42.0203Z" fill="#33353D"/>
<path d="M44.8 61.6346C44.2274 61.6346 43.7978 62.1357 43.7978 62.7083V71.2269V81.9647C43.7978 82.6089 43.3683 82.8237 43.1536 82.9669C42.9388 83.0384 42.5093 83.1816 42.0082 82.8237L34.3486 76.0947C32.4158 74.3767 29.4809 74.3767 27.5481 76.0947L19.8885 82.7521C19.3874 83.1816 18.9579 83.0384 18.7431 82.8953C18.5284 82.7521 18.0989 82.5373 18.0989 81.8931V71.1553V62.7083C18.0989 62.1357 17.6694 61.7061 17.0967 61.6346L16.3808 61.563C15.7366 61.4914 15.2355 61.9925 15.2355 62.6367V81.7499C15.2355 83.2532 16.0229 84.6849 17.3114 85.4007C17.8841 85.6871 18.5284 85.8302 19.1726 85.8302C20.1032 85.8302 21.0339 85.4723 21.7497 84.8281L29.4093 78.1707C30.2683 77.4548 31.5568 77.4548 32.4158 78.1707L39.9323 84.6849C41.1492 85.7587 42.8672 86.045 44.3705 85.4007C45.7306 84.7565 46.5897 83.3964 46.5897 81.8215V62.7083C46.5897 62.0641 46.0886 61.6346 45.4443 61.6346H44.8Z" fill="#33353D"/>
</svg>
