<svg width="98" height="86" viewBox="0 0 98 86" fill="none" xmlns="http://www.w3.org/2000/svg">
<path d="M24.6211 49.1716C11.0054 49.1716 0 38.1662 0 24.6211C0 11.0054 11.0054 0 24.6211 0C38.2367 0 49.2421 11.0054 49.2421 24.6211C49.1716 38.1662 38.1662 49.1716 24.6211 49.1716Z" fill="#33353D"/>
<path d="M33.0161 28.9949C33.0161 24.4093 29.0655 23.4217 25.7497 22.6456C23.21 22.0107 21.023 21.5169 21.023 19.5416C21.023 17.7779 22.7867 16.7902 24.9032 16.7902C27.1607 16.7902 28.9244 17.919 28.9244 20.1059H32.3812C32.3812 16.4375 30.1237 14.0389 26.2436 13.6156V11.4991H23.2806V13.6861C19.7532 14.1799 17.4957 16.3669 17.4957 19.6826C17.4957 24.1271 21.2347 24.9737 24.5504 25.8203C27.1607 26.4552 29.4182 26.949 29.4182 29.0655C29.4182 31.0408 27.4429 32.2401 25.1853 32.2401C22.6456 32.2401 20.6703 30.8997 20.6703 28.5011H17.0724C17.0724 32.2401 19.471 34.7798 23.21 35.4147V37.7428H26.173V35.5558C30.0531 35.2031 33.0161 32.9456 33.0161 28.9949Z" fill="white"/>
<path d="M72.7345 85.8562C59.1894 85.8562 48.1134 74.8508 48.1134 61.2351C48.1134 47.6195 59.1894 36.6846 72.7345 36.6846C86.2796 36.6846 97.3555 47.7606 97.3555 61.3057C97.3555 74.8508 86.2796 85.8562 72.7345 85.8562Z" fill="#C91414"/>
<path d="M49.3127 12.7691C62.5756 13.0513 73.7927 21.9403 77.5317 34.0039C77.6728 34.3566 77.955 34.6388 78.3077 34.7093C78.731 34.7799 79.1543 34.921 79.5776 34.9915C80.3536 35.2032 81.0591 34.4977 80.8474 33.7217C76.8262 19.7533 63.916 9.45337 48.6778 9.45337C47.9018 9.45337 47.4079 10.2999 47.8312 11.0054C48.0429 11.3582 48.2545 11.7814 48.4661 12.1342C48.6072 12.4869 48.96 12.6986 49.3127 12.7691Z" fill="#33353D"/>
<path d="M47.8312 73.1576C34.4977 72.7344 23.2807 63.7043 19.6828 51.4996C19.6122 51.2174 19.33 51.0057 19.0479 50.9352C18.4835 50.7941 17.9191 50.653 17.3547 50.5119C16.7198 50.3003 16.1554 50.9352 16.2965 51.5701C20.1061 65.8207 33.1573 76.4028 48.6778 76.4028C49.3127 76.4028 49.736 75.6973 49.3832 75.133C49.1011 74.6391 48.8189 74.1453 48.5367 73.5809C48.3956 73.2987 48.1134 73.1576 47.8312 73.1576Z" fill="#C91414"/>
<path d="M78.6604 50.7941V48.6777H75.3447V50.7941H71.6762V53.6865H75.3447V56.9317C74.357 56.2968 73.2282 55.9441 71.9584 55.9441C68.2194 55.9441 65.468 58.6954 65.468 62.4344C65.468 66.1734 68.2194 68.9953 71.9584 68.9953C73.4399 68.9953 74.7803 68.5015 75.8385 67.5844L76.2618 68.6426H78.7309V53.6865H80.0713V50.7941H78.6604ZM72.2406 65.8207C70.3358 65.8207 68.8543 64.4097 68.8543 62.4344C68.8543 60.5296 70.2652 59.0481 72.2406 59.0481C74.1453 59.0481 75.6268 60.5296 75.6268 62.4344C75.5563 64.3392 74.1453 65.8207 72.2406 65.8207Z" fill="white"/>
<path d="M80.0713 71.1118H65.9618V74.0043H80.0713V71.1118Z" fill="white"/>
</svg>
