<svg width="88" height="82" viewBox="0 0 88 82" fill="none" xmlns="http://www.w3.org/2000/svg">
<path d="M25.7579 59.5051H2.19056C0.981974 59.5051 0 58.5171 0 57.3012V50.4615C0 44.4578 4.90987 39.5181 10.9528 39.5181H16.9202C22.9631 39.5181 27.873 44.4578 27.873 50.5375V57.3772C27.873 58.5931 26.9665 59.5051 25.7579 59.5051Z" fill="#33353D"/>
<path d="M13.9743 42.1019C19.3559 42.1019 23.7185 37.7127 23.7185 32.2984C23.7185 26.8841 19.3559 22.4949 13.9743 22.4949C8.59273 22.4949 4.2301 26.8841 4.2301 32.2984C4.2301 37.7127 8.59273 42.1019 13.9743 42.1019Z" fill="#33353D"/>
<path d="M85.885 59.505H62.3176C61.1091 59.505 60.1271 58.5171 60.1271 57.3011V50.4615C60.1271 44.3818 65.0369 39.442 71.0799 39.442H77.0472C83.0902 39.442 88 44.3818 88 50.4615V57.3011C88 58.5931 87.0936 59.505 85.885 59.505Z" fill="#C91414"/>
<path d="M74.1013 42.1019C79.4828 42.1019 83.8455 37.7127 83.8455 32.2984C83.8455 26.8841 79.4828 22.4949 74.1013 22.4949C68.7197 22.4949 64.3571 26.8841 64.3571 32.2984C64.3571 37.7127 68.7197 42.1019 74.1013 42.1019Z" fill="#C91414"/>
<path d="M81.6549 10.9435L80.2197 9.49954C79.9176 9.19555 79.3888 9.19555 79.0867 9.49954L75.9142 12.6914V8.89157C75.9142 3.95181 71.9107 0 67.0764 0H20.9991C16.0893 0 12.1614 3.95181 12.1614 8.89157V14.9713C12.1614 15.7312 12.7657 16.3392 13.521 16.3392H14.4275C15.1828 16.3392 15.7871 15.7312 15.7871 14.9713V9.72752C15.7871 6.38369 18.5064 3.64782 21.83 3.64782H66.321C69.6446 3.64782 72.364 6.38369 72.364 9.65153V12.6914L69.1159 9.42354C68.8137 9.11955 68.285 9.11955 67.9828 9.42354L66.4721 10.9435C66.17 11.2474 66.17 11.7794 66.4721 12.0834L72.364 17.9351C73.3459 18.9231 74.8567 18.9231 75.8386 17.9351L81.6549 12.0834C82.0326 11.7794 82.0326 11.2474 81.6549 10.9435Z" fill="#33353D"/>
<path d="M7.22661 71.0565L8.6618 72.5005C8.96395 72.8044 9.4927 72.8044 9.79485 72.5005L12.9674 69.3086V73.1084C12.9674 78.0482 16.8953 82 21.8052 82H67.8824C72.7923 82 76.7202 78.0482 76.7202 73.1084V67.0287C76.7202 66.2688 76.1159 65.6608 75.3605 65.6608H74.4541C73.6987 65.6608 73.0944 66.2688 73.0944 67.0287V72.2725C73.0944 75.6163 70.3751 78.3522 67.0515 78.3522H22.6361C19.3124 78.3522 16.5931 75.6163 16.5931 72.3485V69.3086L19.8412 72.5765C20.1433 72.8804 20.6721 72.8804 20.9742 72.5765L22.4094 71.1325C22.7116 70.8285 22.7116 70.2966 22.4094 69.9926L16.5176 64.1409C15.5356 63.1529 14.0249 63.1529 13.0429 64.1409L7.22661 69.9166C6.92446 70.2206 6.92446 70.7525 7.22661 71.0565Z" fill="#C91414"/>
</svg>
