<svg width="78" height="81" viewBox="0 0 78 81" fill="none" xmlns="http://www.w3.org/2000/svg">
<path d="M66.4308 80.533H11.1672C5.01094 80.533 0 75.522 0 69.3657V47.6755C0 47.0312 0.501094 46.5302 1.14536 46.5302H2.14755C2.79181 46.5302 3.29291 47.0312 3.29291 47.6755V69.3657C3.29291 73.7324 6.80057 77.2401 11.1672 77.2401H66.4308C70.7975 77.2401 74.3051 73.7324 74.3051 69.3657V47.6755C74.3051 47.0312 74.8062 46.5302 75.4505 46.5302H76.4527C77.0969 46.5302 77.598 47.0312 77.598 47.6755V69.3657C77.598 75.522 72.5871 80.533 66.4308 80.533Z" fill="#33353D"/>
<path d="M2.14755 37.439H1.14536C0.501094 37.439 0 36.9379 0 36.2936V31.4974C0 30.8531 0.501094 30.3521 1.14536 30.3521H2.14755C2.79181 30.3521 3.29291 30.8531 3.29291 31.4974V36.2936C3.29291 36.9379 2.79181 37.439 2.14755 37.439Z" fill="#C91414"/>
<path d="M2.14755 23.0503H1.14536C0.501094 23.0503 0 22.5492 0 21.905V16.894C0 16.2498 0.501094 15.7487 1.14536 15.7487H2.14755C2.79181 15.7487 3.29291 16.2498 3.29291 16.894V21.905C3.29291 22.5492 2.79181 23.0503 2.14755 23.0503ZM76.4527 23.0503H75.4505C74.8062 23.0503 74.3051 22.5492 74.3051 21.905V16.894C74.3051 16.2498 74.8062 15.7487 75.4505 15.7487H76.4527C77.0969 15.7487 77.598 16.2498 77.598 16.894V21.905C77.598 22.5492 77.0253 23.0503 76.4527 23.0503ZM2.57706 8.73336L1.57487 8.44702C0.930604 8.23226 0.572679 7.588 0.787434 6.94373C1.57487 5.08253 2.79181 3.43607 4.43826 2.21913C5.01094 1.86121 5.72679 2.00438 6.08472 2.57706L6.58581 3.43607C6.87215 3.93717 6.72898 4.58143 6.29947 4.93936C5.2257 5.72679 4.43826 6.80056 3.86558 8.08909C3.65083 8.59019 3.07815 8.87653 2.57706 8.73336ZM73.6609 8.08909C73.1598 6.87215 72.3007 5.79838 71.227 4.93936C70.7975 4.58143 70.6543 3.93717 70.9406 3.43607L71.4417 2.57706C71.7997 2.00438 72.5155 1.86121 73.0882 2.21913C74.7346 3.43607 75.9516 5.08253 76.739 6.94373C77.0253 7.588 76.5958 8.23226 76.0232 8.44702L75.021 8.73336C74.4483 8.87653 73.8756 8.59019 73.6609 8.08909ZM63.0663 3.29291H58.0553C57.4111 3.29291 56.91 2.79181 56.91 2.14755V1.14536C56.91 0.501094 57.4111 0 58.0553 0H63.0663C63.7106 0 64.2116 0.501094 64.2116 1.14536V2.14755C64.2116 2.79181 63.7106 3.29291 63.0663 3.29291ZM48.5346 3.29291H43.5236C42.8793 3.29291 42.3783 2.79181 42.3783 2.14755V1.14536C42.3783 0.501094 42.8793 0 43.5236 0H48.5346C49.1788 0 49.6799 0.501094 49.6799 1.14536V2.14755C49.6799 2.79181 49.1788 3.29291 48.5346 3.29291ZM34.0028 3.29291H28.9919C28.3476 3.29291 27.8465 2.79181 27.8465 2.14755V1.14536C27.8465 0.501094 28.3476 0 28.9919 0H34.0028C34.6471 0 35.1482 0.501094 35.1482 1.14536V2.14755C35.1482 2.79181 34.6471 3.29291 34.0028 3.29291ZM19.4711 3.29291H14.4601C13.8159 3.29291 13.3148 2.79181 13.3148 2.14755V1.14536C13.3148 0.501094 13.8159 0 14.4601 0H19.4711C20.1154 0 20.6164 0.501094 20.6164 1.14536V2.14755C20.6164 2.79181 20.1154 3.29291 19.4711 3.29291Z" fill="#C91414"/>
<path d="M76.4527 37.439H75.4505C74.8063 37.439 74.3052 36.9379 74.3052 36.2936V31.4974C74.3052 30.8531 74.8063 30.3521 75.4505 30.3521H76.4527C77.097 30.3521 77.5981 30.8531 77.5981 31.4974V36.2936C77.5981 36.9379 77.0254 37.439 76.4527 37.439Z" fill="#C91414"/>
<path d="M61.6345 48.7314V30.4057C61.6345 27.9002 60.2744 25.6095 58.1269 24.3925L42.235 15.2297C40.0875 14.0127 37.4388 14.0127 35.2913 15.2297L19.471 24.3925C17.3235 25.6095 15.9634 27.9718 15.9634 30.4057V48.7314C15.9634 51.2369 17.3235 53.5276 19.471 54.7445L35.2913 63.9074C37.4388 65.1243 40.0875 65.1243 42.235 63.9074L58.0553 54.7445C60.2744 53.5276 61.6345 51.2369 61.6345 48.7314Z" fill="#C91414"/>
<path d="M35.2198 34.1996V45.0805H33.287L28.3476 38.2799V45.0805H26.0569V34.1996H28.2044L33.0006 40.857V34.1996H35.2198Z" fill="white"/>
<path d="M40.0159 36.3471V38.7094H43.7383V40.857H40.0159V45.0805H37.6536V34.1996H44.1678V36.4187H40.0159V36.3471Z" fill="white"/>
<path d="M53.4738 36.3471H50.4673V45.0805H48.105V36.3471H45.0984V34.128H53.4738V36.3471Z" fill="white"/>
</svg>
