<svg width="82" height="86" viewBox="0 0 82 86" fill="none" xmlns="http://www.w3.org/2000/svg">
<g id="Frame 12445208">
<path id="Vector 36" d="M13.5564 80.6936V3.98387C13.5564 2.88821 14.4446 2 15.5403 2H68.7741C69.8698 2 70.758 2.88821 70.758 3.98387V80.6936" stroke="url(#paint0_linear_22_4166)" stroke-width="4"/>
<rect id="Rectangle 604" y="80" width="82" height="4" rx="2" fill="url(#paint1_linear_22_4166)"/>
<path id="Vector 38" d="M33.0645 80.6935V62.1774C33.0645 61.447 33.6566 60.8548 34.387 60.8548H50.258C50.9884 60.8548 51.5806 61.447 51.5806 62.1774V80.6935" stroke="url(#paint2_linear_22_4166)" stroke-width="4"/>
<path id="Vector 39" d="M37.0323 11.2581H27.113C26.7477 11.2581 26.4517 11.5541 26.4517 11.9193V24.1532C26.4517 24.5184 26.7477 24.8145 27.1129 24.8145H37.0323C37.3975 24.8145 37.6936 24.5184 37.6936 24.1532V11.9193C37.6936 11.5541 37.3975 11.2581 37.0323 11.2581Z" stroke="url(#paint3_linear_22_4166)" stroke-width="4"/>
<path id="Vector 41" d="M37.0323 34.4032H27.113C26.7477 34.4032 26.4517 34.6993 26.4517 35.0645V47.2984C26.4517 47.6636 26.7477 47.9597 27.1129 47.9597H37.0323C37.3975 47.9597 37.6936 47.6636 37.6936 47.2984V35.0645C37.6936 34.6993 37.3975 34.4032 37.0323 34.4032Z" stroke="url(#paint4_linear_22_4166)" stroke-width="4"/>
<path id="Vector 40" d="M57.5323 11.2581H47.613C47.2477 11.2581 46.9517 11.5541 46.9517 11.9193V24.1532C46.9517 24.5184 47.2477 24.8145 47.6129 24.8145H57.5323C57.8975 24.8145 58.1936 24.5184 58.1936 24.1532V11.9193C58.1936 11.5541 57.8975 11.2581 57.5323 11.2581Z" stroke="url(#paint5_linear_22_4166)" stroke-width="4"/>
<path id="Vector 42" d="M57.5323 34.4032H47.613C47.2477 34.4032 46.9517 34.6993 46.9517 35.0645V47.2984C46.9517 47.6636 47.2477 47.9597 47.6129 47.9597H57.5323C57.8975 47.9597 58.1936 47.6636 58.1936 47.2984V35.0645C58.1936 34.6993 57.8975 34.4032 57.5323 34.4032Z" stroke="url(#paint6_linear_22_4166)" stroke-width="4"/>
</g>
<defs>
<linearGradient id="paint0_linear_22_4166" x1="41.7844" y1="2" x2="41.7844" y2="81.3265" gradientUnits="userSpaceOnUse">
<stop stop-color="#D7221A"/>
<stop offset="1" stop-color="#C20B11"/>
</linearGradient>
<linearGradient id="paint1_linear_22_4166" x1="40.4656" y1="80" x2="40.4656" y2="84.0322" gradientUnits="userSpaceOnUse">
<stop stop-color="#D7221A"/>
<stop offset="1" stop-color="#C20B11"/>
</linearGradient>
<linearGradient id="paint2_linear_22_4166" x1="42.2018" y1="60.8548" x2="42.2018" y2="80.8531" gradientUnits="userSpaceOnUse">
<stop stop-color="#D7221A"/>
<stop offset="1" stop-color="#C20B11"/>
</linearGradient>
<linearGradient id="paint3_linear_22_4166" x1="31.9994" y1="11.2581" x2="31.9994" y2="24.9235" gradientUnits="userSpaceOnUse">
<stop stop-color="#D7221A"/>
<stop offset="1" stop-color="#C20B11"/>
</linearGradient>
<linearGradient id="paint4_linear_22_4166" x1="31.9994" y1="34.4032" x2="31.9994" y2="48.0687" gradientUnits="userSpaceOnUse">
<stop stop-color="#D7221A"/>
<stop offset="1" stop-color="#C20B11"/>
</linearGradient>
<linearGradient id="paint5_linear_22_4166" x1="52.4994" y1="11.2581" x2="52.4994" y2="24.9235" gradientUnits="userSpaceOnUse">
<stop stop-color="#D7221A"/>
<stop offset="1" stop-color="#C20B11"/>
</linearGradient>
<linearGradient id="paint6_linear_22_4166" x1="52.4994" y1="34.4032" x2="52.4994" y2="48.0687" gradientUnits="userSpaceOnUse">
<stop stop-color="#D7221A"/>
<stop offset="1" stop-color="#C20B11"/>
</linearGradient>
</defs>
</svg>
