<svg width="16" height="15" viewBox="0 0 16 15" fill="none" xmlns="http://www.w3.org/2000/svg">
<g id="favorite">
<path id="favorite_2" d="M8 14.75L6.9125 13.775C5.65 12.6375 4.60625 11.6562 3.78125 10.8312C2.95625 10.0062 2.3 9.26561 1.8125 8.60936C1.325 7.95311 0.984375 7.34999 0.790625 6.79999C0.596875 6.24999 0.5 5.68749 0.5 5.11249C0.5 3.93749 0.89375 2.95624 1.68125 2.16874C2.46875 1.38124 3.45 0.987488 4.625 0.987488C5.275 0.987488 5.89375 1.12499 6.48125 1.39999C7.06875 1.67499 7.575 2.06249 8 2.56249C8.425 2.06249 8.93125 1.67499 9.51875 1.39999C10.1063 1.12499 10.725 0.987488 11.375 0.987488C12.55 0.987488 13.5313 1.38124 14.3188 2.16874C15.1063 2.95624 15.5 3.93749 15.5 5.11249C15.5 5.68749 15.4031 6.24999 15.2094 6.79999C15.0156 7.34999 14.675 7.95311 14.1875 8.60936C13.7 9.26561 13.0437 10.0062 12.2188 10.8312C11.3938 11.6562 10.35 12.6375 9.0875 13.775L8 14.75ZM8 12.725C9.2 11.65 10.1875 10.7281 10.9625 9.95936C11.7375 9.19061 12.35 8.52186 12.8 7.95311C13.25 7.38436 13.5625 6.87811 13.7375 6.43436C13.9125 5.99061 14 5.54999 14 5.11249C14 4.36249 13.75 3.73749 13.25 3.23749C12.75 2.73749 12.125 2.48749 11.375 2.48749C10.7875 2.48749 10.2437 2.65311 9.74375 2.98436C9.24375 3.31561 8.9 3.73749 8.7125 4.24999H7.2875C7.1 3.73749 6.75625 3.31561 6.25625 2.98436C5.75625 2.65311 5.2125 2.48749 4.625 2.48749C3.875 2.48749 3.25 2.73749 2.75 3.23749C2.25 3.73749 2 4.36249 2 5.11249C2 5.54999 2.0875 5.99061 2.2625 6.43436C2.4375 6.87811 2.75 7.38436 3.2 7.95311C3.65 8.52186 4.2625 9.19061 5.0375 9.95936C5.8125 10.7281 6.8 11.65 8 12.725Z" fill="#E91D23"/>
</g>
</svg>
