<svg width="18" height="18" viewBox="0 0 18 18" fill="none" xmlns="http://www.w3.org/2000/svg">
<mask id="mask0_4483_40184" style="mask-type:alpha" maskUnits="userSpaceOnUse" x="0" y="0" width="18" height="18">
<rect width="18" height="18" fill="#D9D9D9"/>
</mask>
<g mask="url(#mask0_4483_40184)">
<path d="M9 15.75L7.9125 14.775C6.65 13.6375 5.60625 12.6563 4.78125 11.8313C3.95625 11.0063 3.3 10.2656 2.8125 9.60939C2.325 8.95314 1.98438 8.35002 1.79063 7.80002C1.59688 7.25002 1.5 6.68752 1.5 6.11252C1.5 4.93752 1.89375 3.95627 2.68125 3.16877C3.46875 2.38127 4.45 1.98752 5.625 1.98752C6.275 1.98752 6.89375 2.12502 7.48125 2.40002C8.06875 2.67502 8.575 3.06252 9 3.56252C9.425 3.06252 9.93125 2.67502 10.5188 2.40002C11.1063 2.12502 11.725 1.98752 12.375 1.98752C13.55 1.98752 14.5313 2.38127 15.3188 3.16877C16.1063 3.95627 16.5 4.93752 16.5 6.11252C16.5 6.68752 16.4031 7.25002 16.2094 7.80002C16.0156 8.35002 15.675 8.95314 15.1875 9.60939C14.7 10.2656 14.0438 11.0063 13.2188 11.8313C12.3937 12.6563 11.35 13.6375 10.0875 14.775L9 15.75Z" fill="white"/>
</g>
</svg>
