<svg width="16" height="16" viewBox="0 0 16 16" fill="none" xmlns="http://www.w3.org/2000/svg">
<path d="M8 15.5C6.975 15.5 6.00625 15.3031 5.09375 14.9094C4.18125 14.5156 3.38438 13.9781 2.70312 13.2969C2.02188 12.6156 1.48438 11.8188 1.09063 10.9062C0.696875 9.99375 0.5 9.025 0.5 8C0.5 6.9625 0.696875 5.99063 1.09063 5.08438C1.48438 4.17813 2.02188 3.38438 2.70312 2.70312C3.38438 2.02188 4.18125 1.48438 5.09375 1.09063C6.00625 0.696875 6.975 0.5 8 0.5C9.0375 0.5 10.0094 0.696875 10.9156 1.09063C11.8219 1.48438 12.6156 2.02188 13.2969 2.70312C13.9781 3.38438 14.5156 4.17813 14.9094 5.08438C15.3031 5.99063 15.5 6.9625 15.5 8C15.5 9.025 15.3031 9.99375 14.9094 10.9062C14.5156 11.8188 13.9781 12.6156 13.2969 13.2969C12.6156 13.9781 11.8219 14.5156 10.9156 14.9094C10.0094 15.3031 9.0375 15.5 8 15.5ZM8 13.9625C8.325 13.5125 8.60625 13.0438 8.84375 12.5563C9.08125 12.0688 9.275 11.55 9.425 11H6.575C6.725 11.55 6.91875 12.0688 7.15625 12.5563C7.39375 13.0438 7.675 13.5125 8 13.9625ZM6.05 13.6625C5.825 13.25 5.62813 12.8219 5.45938 12.3781C5.29063 11.9344 5.15 11.475 5.0375 11H2.825C3.1875 11.625 3.64062 12.1688 4.18437 12.6313C4.72813 13.0938 5.35 13.4375 6.05 13.6625ZM9.95 13.6625C10.65 13.4375 11.2719 13.0938 11.8156 12.6313C12.3594 12.1688 12.8125 11.625 13.175 11H10.9625C10.85 11.475 10.7094 11.9344 10.5406 12.3781C10.3719 12.8219 10.175 13.25 9.95 13.6625ZM2.1875 9.5H4.7375C4.7 9.25 4.67188 9.00313 4.65312 8.75937C4.63438 8.51562 4.625 8.2625 4.625 8C4.625 7.7375 4.63438 7.48438 4.65312 7.24063C4.67188 6.99688 4.7 6.75 4.7375 6.5H2.1875C2.125 6.75 2.07812 6.99688 2.04688 7.24063C2.01562 7.48438 2 7.7375 2 8C2 8.2625 2.01562 8.51562 2.04688 8.75937C2.07812 9.00313 2.125 9.25 2.1875 9.5ZM6.2375 9.5H9.7625C9.8 9.25 9.82812 9.00313 9.84688 8.75937C9.86563 8.51562 9.875 8.2625 9.875 8C9.875 7.7375 9.86563 7.48438 9.84688 7.24063C9.82812 6.99688 9.8 6.75 9.7625 6.5H6.2375C6.2 6.75 6.17188 6.99688 6.15312 7.24063C6.13438 7.48438 6.125 7.7375 6.125 8C6.125 8.2625 6.13438 8.51562 6.15312 8.75937C6.17188 9.00313 6.2 9.25 6.2375 9.5ZM11.2625 9.5H13.8125C13.875 9.25 13.9219 9.00313 13.9531 8.75937C13.9844 8.51562 14 8.2625 14 8C14 7.7375 13.9844 7.48438 13.9531 7.24063C13.9219 6.99688 13.875 6.75 13.8125 6.5H11.2625C11.3 6.75 11.3281 6.99688 11.3469 7.24063C11.3656 7.48438 11.375 7.7375 11.375 8C11.375 8.2625 11.3656 8.51562 11.3469 8.75937C11.3281 9.00313 11.3 9.25 11.2625 9.5ZM10.9625 5H13.175C12.8125 4.375 12.3594 3.83125 11.8156 3.36875C11.2719 2.90625 10.65 2.5625 9.95 2.3375C10.175 2.75 10.3719 3.17812 10.5406 3.62187C10.7094 4.06562 10.85 4.525 10.9625 5ZM6.575 5H9.425C9.275 4.45 9.08125 3.93125 8.84375 3.44375C8.60625 2.95625 8.325 2.4875 8 2.0375C7.675 2.4875 7.39375 2.95625 7.15625 3.44375C6.91875 3.93125 6.725 4.45 6.575 5ZM2.825 5H5.0375C5.15 4.525 5.29063 4.06562 5.45938 3.62187C5.62813 3.17812 5.825 2.75 6.05 2.3375C5.35 2.5625 4.72813 2.90625 4.18437 3.36875C3.64062 3.83125 3.1875 4.375 2.825 5Z" fill="#1F1F1F"/>
</svg>
