<svg width="1217" height="383" viewBox="0 0 1217 383" fill="none" xmlns="http://www.w3.org/2000/svg">
<path d="M527.358 299.704C526.145 309.365 522.373 318.123 516.338 326.274C511.095 333.379 503.836 338.745 495.505 341.673C487.202 344.778 478.407 346.362 469.542 346.349C460.661 346.445 451.843 344.859 443.554 341.673C435.412 338.397 428.241 333.096 422.721 326.274C416.705 318.466 412.899 309.184 411.701 299.4C410.463 289.745 409.809 280.023 409.742 270.289V121.572C409.742 120.411 410.203 119.297 411.024 118.476C411.846 117.655 412.959 117.193 414.121 117.193H440.085C441.245 117.195 442.358 117.657 443.179 118.478C444 119.299 444.462 120.411 444.463 121.572V276.002C444.463 280.533 444.615 285.063 445.07 289.587C445.444 293.812 446.516 297.946 448.242 301.82C449.901 305.347 452.47 308.367 455.683 310.572C459.001 312.689 463.38 313.744 468.965 313.744C474.703 313.744 479.233 312.689 482.399 310.572C485.702 308.479 488.284 305.425 489.798 301.82C491.524 297.946 492.596 293.812 492.97 289.587C493.419 285.063 493.577 280.533 493.577 276.002V121.572C493.578 120.411 494.04 119.299 494.861 118.478C495.682 117.657 496.795 117.195 497.956 117.193H523.919C525.08 117.195 526.193 117.657 527.014 118.478C527.835 119.299 528.297 120.411 528.298 121.572V270.416C529.165 280.381 528.565 290.042 527.358 299.704Z" fill="#3B3C3E" stroke="#3B3C3E" stroke-width="3"/>
<path d="M553.821 341.828V121.879C553.827 120.64 554.323 119.452 555.199 118.576C556.076 117.699 557.263 117.204 558.503 117.197H584.164C585.403 117.204 586.591 117.699 587.467 118.576C588.344 119.452 588.839 120.64 588.846 121.879V341.828C588.839 343.067 588.344 344.254 587.467 345.13C586.59 346.005 585.403 346.499 584.164 346.504H558.503C557.886 346.514 557.273 346.4 556.701 346.168C556.129 345.937 555.609 345.593 555.173 345.157C554.736 344.721 554.391 344.201 554.159 343.63C553.927 343.058 553.812 342.445 553.821 341.828V341.828Z" fill="#3B3C3E" stroke="#3B3C3E" stroke-width="3"/>
<path d="M734.122 301.673C732.385 310.155 728.887 318.178 723.854 325.223C718.875 331.974 712.284 337.37 704.683 340.919C696.684 344.697 686.871 346.505 675.25 346.505C664.528 346.505 654.866 344.685 646.418 340.919C637.812 337.147 630.716 330.809 624.827 321.9C621.81 317.754 619.561 313.102 618.186 308.163C616.668 303.239 615.606 298.186 615.014 293.067C614.369 287.908 614.016 282.716 613.959 277.517V199.626C613.959 194.04 613.959 188.606 614.11 183.317C614.265 178.013 614.718 172.722 615.469 167.47C616.239 162.264 617.554 157.153 619.393 152.223C621.292 147.036 623.936 142.153 627.241 137.727C632.686 130.564 640.075 125.116 648.529 122.032C656.975 118.852 665.922 117.209 674.947 117.18C685.512 117.18 694.725 118.999 702.573 122.468C710.044 125.673 716.624 130.648 721.744 136.963C726.723 143.156 730.35 150.397 732.764 158.851C735.244 167.734 736.469 176.921 736.403 186.143V187.963C736.414 188.603 736.296 189.239 736.057 189.833C735.817 190.427 735.46 190.966 735.007 191.419C734.554 191.872 734.015 192.229 733.421 192.469C732.827 192.709 732.191 192.826 731.551 192.815H706.339C705.712 192.83 705.088 192.721 704.504 192.493C703.919 192.265 703.386 191.924 702.934 191.488C702.483 191.052 702.122 190.531 701.874 189.955C701.626 189.379 701.494 188.76 701.487 188.133C701.335 184.961 701.184 181.643 700.881 178.32C700.49 173.498 699.369 168.764 697.557 164.28C695.83 160.094 693.079 156.409 689.557 153.563C686.088 150.846 681.255 149.317 675.22 149.317C668.876 149.317 663.897 150.676 660.422 153.563C656.953 156.363 654.253 159.998 652.574 164.128C650.842 168.57 649.819 173.257 649.541 178.016C649.238 183.002 649.089 187.833 649.093 192.512V266.8C649.093 271.482 649.238 276.613 649.39 282.199C649.528 287.451 650.496 292.648 652.258 297.598C653.895 302.174 656.644 306.271 660.258 309.521C663.897 312.845 669.016 314.373 675.505 314.373C681.995 314.373 687.131 312.711 690.904 309.236C694.662 305.899 697.474 301.629 699.055 296.858C700.801 291.69 701.821 286.306 702.087 280.859C702.391 276.935 702.542 273.308 702.542 269.839C702.586 268.582 703.117 267.391 704.022 266.517C704.927 265.644 706.136 265.156 707.394 265.157H732.454C733.094 265.146 733.73 265.264 734.324 265.504C734.917 265.744 735.456 266.101 735.909 266.554C736.362 267.007 736.719 267.546 736.959 268.139C737.199 268.733 737.317 269.368 737.306 270.008V272.574C737.215 282.355 736.148 292.103 734.122 301.673V301.673Z" fill="#3B3C3E" stroke="#3B3C3E" stroke-width="3"/>
<path d="M853.484 344.843L817.859 243.25C817.721 242.82 817.461 242.438 817.11 242.153C816.76 241.867 816.334 241.69 815.884 241.641C815.435 241.593 814.981 241.677 814.578 241.881C814.175 242.086 813.84 242.404 813.614 242.795L797.766 269.669C797.576 270.045 797.472 270.46 797.463 270.882V343.939C797.469 344.259 797.41 344.577 797.29 344.874C797.17 345.171 796.991 345.441 796.765 345.667C796.539 345.894 796.269 346.072 795.972 346.192C795.675 346.312 795.357 346.371 795.037 346.365H764.846C764.526 346.37 764.208 346.311 763.912 346.19C763.615 346.07 763.346 345.892 763.12 345.666C762.893 345.439 762.715 345.17 762.595 344.873C762.474 344.577 762.415 344.259 762.42 343.939V119.618C762.415 119.298 762.474 118.98 762.595 118.683C762.715 118.387 762.893 118.118 763.12 117.891C763.346 117.665 763.615 117.487 763.912 117.366C764.208 117.246 764.526 117.187 764.846 117.192H795.037C795.357 117.187 795.674 117.246 795.971 117.366C796.268 117.487 796.537 117.665 796.763 117.891C796.989 118.118 797.168 118.387 797.288 118.683C797.408 118.98 797.468 119.298 797.463 119.618V202.943C797.463 205.508 800.786 206.267 801.842 204.156L847.128 118.562C847.342 118.192 847.65 117.885 848.02 117.672C848.391 117.459 848.811 117.348 849.239 117.349H881.382C881.81 117.347 882.23 117.457 882.601 117.668C882.972 117.88 883.28 118.186 883.495 118.556C883.71 118.925 883.823 119.344 883.824 119.771C883.825 120.199 883.713 120.618 883.499 120.988L838.54 199.923C838.366 200.244 838.262 200.6 838.236 200.965C838.21 201.33 838.262 201.696 838.389 202.039L891.226 343.484C891.358 343.853 891.401 344.248 891.351 344.637C891.302 345.026 891.161 345.398 890.94 345.722C890.72 346.046 890.426 346.313 890.082 346.502C889.739 346.691 889.355 346.795 888.964 346.808H855.752C855.245 346.684 854.775 346.441 854.381 346.099C853.986 345.758 853.679 345.327 853.484 344.843V344.843Z" fill="#3B3C3E" stroke="#3B3C3E" stroke-width="3"/>
<path d="M1026.27 272.385C1026.31 281.629 1025.66 290.864 1024.31 300.01C1022.95 308.768 1019.33 317.216 1013.59 325.07C1008.17 332.599 1000.67 338.373 992.004 341.676C974.46 348.113 955.201 348.113 937.657 341.676C929.051 338.504 921.803 332.918 915.92 325.07C910.152 317.821 906.402 309.175 905.052 300.01C903.669 290.866 902.961 281.633 902.935 272.385V191.17C902.925 181.965 903.682 172.775 905.197 163.696C906.715 154.649 910.393 146.103 915.92 138.781C921.231 131.182 928.696 125.348 937.353 122.03C946.069 118.711 955.319 117.022 964.645 117.045C973.938 116.977 983.159 118.668 991.822 122.03C1000.27 125.348 1007.52 130.934 1013.41 138.788C1019.1 146.006 1022.8 154.596 1024.12 163.696C1025.45 172.793 1026.11 181.976 1026.09 191.17V272.385H1026.27ZM991.397 191.922C991.397 186.791 991.246 181.66 990.943 176.372C990.657 171.206 989.268 166.162 986.867 161.579C984.743 157.633 981.422 154.463 977.382 152.524C973.392 150.545 969.002 149.508 964.548 149.492C957.877 149.492 952.776 150.705 949.301 153.264C945.767 155.785 942.999 159.234 941.302 163.229C939.554 167.614 938.53 172.253 938.269 176.966C937.972 181.945 937.82 186.931 937.82 191.758V271.778C937.82 276.63 937.972 281.591 938.269 286.576C938.546 291.287 939.57 295.924 941.302 300.313C942.907 304.361 945.694 307.832 949.301 310.272C952.94 312.843 958.059 314.05 964.548 314.05C971.038 314.05 976.175 312.837 979.795 310.272C983.373 307.798 986.154 304.339 987.801 300.313C989.549 295.929 990.573 291.289 990.833 286.576C991.288 281.591 991.44 276.612 991.44 271.778L991.397 191.922Z" fill="#3B3C3E" stroke="#3B3C3E" stroke-width="3"/>
<path d="M1182.59 343.937V187.093C1182.59 185.88 1180.77 185.583 1180.48 186.79L1143.35 344.544C1143.22 345.093 1142.91 345.583 1142.47 345.938C1142.03 346.292 1141.49 346.491 1140.92 346.503H1125.53C1124.95 346.537 1124.39 346.355 1123.94 345.992C1123.49 345.63 1123.19 345.114 1123.1 344.544L1086.71 186.942C1086.65 186.681 1086.49 186.453 1086.27 186.302C1086.05 186.151 1085.78 186.088 1085.52 186.126C1085.25 186.164 1085.01 186.3 1084.84 186.507C1084.67 186.714 1084.58 186.977 1084.6 187.245V343.937C1084.58 344.611 1084.3 345.252 1083.82 345.729C1083.35 346.206 1082.71 346.483 1082.03 346.503H1053.95C1053.28 346.483 1052.64 346.206 1052.16 345.729C1051.68 345.252 1051.41 344.611 1051.39 343.937V119.767C1051.4 119.092 1051.68 118.449 1052.16 117.971C1052.63 117.493 1053.28 117.216 1053.95 117.196H1100.45C1101.02 117.185 1101.58 117.377 1102.02 117.736C1102.46 118.096 1102.77 118.6 1102.88 119.161L1132.59 256.385C1132.66 256.613 1132.8 256.813 1132.99 256.955C1133.18 257.098 1133.41 257.175 1133.65 257.175C1133.89 257.175 1134.12 257.098 1134.31 256.955C1134.5 256.813 1134.64 256.613 1134.71 256.385L1164.6 119.161C1164.73 118.611 1165.04 118.12 1165.48 117.764C1165.91 117.409 1166.46 117.209 1167.02 117.196H1212.91C1213.59 117.216 1214.23 117.493 1214.71 117.971C1215.18 118.449 1215.46 119.092 1215.48 119.767V343.937C1215.46 344.611 1215.18 345.252 1214.7 345.729C1214.23 346.206 1213.59 346.483 1212.91 346.503H1184.84C1183.65 346.503 1182.59 345.296 1182.59 343.937Z" fill="#3B3C3E" stroke="#3B3C3E" stroke-width="3"/>
<path fill-rule="evenodd" clip-rule="evenodd" d="M301.265 348.642C270.282 370.257 232.6 382.933 191.957 382.933C86.3217 382.933 0.687256 297.299 0.687256 191.664C0.687256 86.028 86.3217 0.393555 191.957 0.393555C297.593 0.393555 383.227 86.028 383.227 191.664C383.227 230.148 371.861 265.977 352.304 295.979L323.559 267.845C336.553 245.445 343.993 219.423 343.993 191.664C343.993 107.697 275.924 39.6281 191.957 39.6281C107.99 39.6281 39.9215 107.697 39.9215 191.664C39.9215 275.631 107.99 343.699 191.957 343.699C221.577 343.699 249.219 335.229 272.592 320.578L301.265 348.642Z" fill="url(#paint0_linear_40_26570)"/>
<path fill-rule="evenodd" clip-rule="evenodd" d="M285.266 310.956L330.667 355.392C338.926 363.475 352.173 363.333 360.256 355.074C368.34 346.816 368.197 333.568 359.939 325.485L314.275 280.792C306.035 292.132 296.264 302.287 285.266 310.956Z" fill="#D01917"/>
<path d="M93.4854 108.123H98.9329V113.571H93.4854V108.123Z" fill="#C00810"/>
<path d="M93.4854 124.465H98.9329V129.912H93.4854V124.465Z" fill="#C00810"/>
<path d="M93.4854 135.36H98.9329V140.808H93.4854V135.36Z" fill="#C00810"/>
<path d="M93.4854 140.807H98.9329V146.254H93.4854V140.807Z" fill="#C00810"/>
<path d="M93.4854 151.703H98.9329V157.151H93.4854V151.703Z" fill="#C00810"/>
<path d="M93.4854 162.601H98.9329V168.048H93.4854V162.601Z" fill="#C00810"/>
<path d="M93.4854 178.941H98.9329V184.389H93.4854V178.941Z" fill="#C00810"/>
<path d="M93.4854 200.734H98.9329V206.182H93.4854V200.734Z" fill="#C00810"/>
<path d="M93.4854 206.18H98.9329V211.627H93.4854V206.18Z" fill="#C00810"/>
<path d="M93.4854 211.631H98.9329V217.078H93.4854V211.631Z" fill="#C00810"/>
<path d="M93.4854 222.525H98.9329V227.973H93.4854V222.525Z" fill="#C00810"/>
<path d="M93.4854 227.974H98.9329V233.421H93.4854V227.974Z" fill="#C00810"/>
<path d="M93.4854 233.422H98.9329V238.869H93.4854V233.422Z" fill="#C00810"/>
<path d="M93.4854 244.317H98.9329V249.765H93.4854V244.317Z" fill="#C00810"/>
<path d="M93.4854 249.764H98.9329V255.211H93.4854V249.764Z" fill="#C00810"/>
<path d="M93.4854 266.107H98.9329V271.555H93.4854V266.107Z" fill="#C00810"/>
<path d="M93.4854 277.002H98.9329V282.449H93.4854V277.002Z" fill="#C00810"/>
<path d="M88.0376 113.568H93.4851V119.016H88.0376V113.568Z" fill="#C00810"/>
<path d="M88.0376 119.016H93.4851V124.463H88.0376V119.016Z" fill="#C00810"/>
<path d="M88.0376 124.465H93.4851V129.912H88.0376V124.465Z" fill="#C00810"/>
<path d="M88.0376 129.914H93.4851V135.362H88.0376V129.914Z" fill="#C00810"/>
<path d="M88.0376 135.36H93.4851V140.808H88.0376V135.36Z" fill="#C00810"/>
<path d="M88.0376 146.255H93.4851V151.702H88.0376V146.255Z" fill="#C00810"/>
<path d="M88.0376 162.601H93.4851V168.048H88.0376V162.601Z" fill="#C00810"/>
<path d="M88.0376 168.049H93.4851V173.496H88.0376V168.049Z" fill="#C00810"/>
<path d="M88.0376 184.393H93.4851V189.84H88.0376V184.393Z" fill="#C00810"/>
<path d="M88.0376 189.838H93.4851V195.285H88.0376V189.838Z" fill="#C00810"/>
<path d="M88.0376 206.18H93.4851V211.627H88.0376V206.18Z" fill="#C00810"/>
<path d="M88.0376 211.631H93.4851V217.078H88.0376V211.631Z" fill="#C00810"/>
<path d="M88.0376 217.077H93.4851V222.525H88.0376V217.077Z" fill="#C00810"/>
<path d="M88.0376 233.422H93.4851V238.869H88.0376V233.422Z" fill="#C00810"/>
<path d="M88.0376 249.764H93.4851V255.211H88.0376V249.764Z" fill="#C00810"/>
<path d="M88.0376 255.211H93.4851V260.658H88.0376V255.211Z" fill="#C00810"/>
<path d="M88.0376 260.659H93.4851V266.107H88.0376V260.659Z" fill="#C00810"/>
<path d="M82.5898 146.255H88.0374V151.702H82.5898V146.255Z" fill="#C00810"/>
<path d="M82.5898 151.703H88.0374V157.151H82.5898V151.703Z" fill="#C00810"/>
<path d="M82.5898 157.151H88.0374V162.599H82.5898V157.151Z" fill="#C00810"/>
<path d="M82.5898 184.393H88.0374V189.84H82.5898V184.393Z" fill="#C00810"/>
<path d="M82.5898 195.285H88.0374V200.733H82.5898V195.285Z" fill="#C00810"/>
<path d="M82.5898 200.734H88.0374V206.182H82.5898V200.734Z" fill="#C00810"/>
<path d="M82.5898 211.631H88.0374V217.078H82.5898V211.631Z" fill="#C00810"/>
<path d="M82.5898 217.077H88.0374V222.525H82.5898V217.077Z" fill="#C00810"/>
<path d="M82.5898 222.525H88.0374V227.973H82.5898V222.525Z" fill="#C00810"/>
<path d="M82.5898 233.422H88.0374V238.869H82.5898V233.422Z" fill="#C00810"/>
<path d="M82.5898 244.317H88.0374V249.765H82.5898V244.317Z" fill="#C00810"/>
<path d="M77.1418 135.36H82.5894V140.808H77.1418V135.36Z" fill="#C00810"/>
<path d="M77.1418 151.703H82.5894V157.151H77.1418V151.703Z" fill="#C00810"/>
<path d="M77.1418 157.151H82.5894V162.599H77.1418V157.151Z" fill="#C00810"/>
<path d="M77.1418 162.601H82.5894V168.048H77.1418V162.601Z" fill="#C00810"/>
<path d="M77.1418 173.494H82.5894V178.942H77.1418V173.494Z" fill="#C00810"/>
<path d="M77.1418 189.838H82.5894V195.285H77.1418V189.838Z" fill="#C00810"/>
<path d="M77.1418 195.285H82.5894V200.733H77.1418V195.285Z" fill="#C00810"/>
<path d="M77.1418 206.18H82.5894V211.627H77.1418V206.18Z" fill="#C00810"/>
<path d="M77.1418 211.631H82.5894V217.078H77.1418V211.631Z" fill="#C00810"/>
<path d="M77.1418 217.077H82.5894V222.525H77.1418V217.077Z" fill="#C00810"/>
<path d="M77.1418 222.525H82.5894V227.973H77.1418V222.525Z" fill="#C00810"/>
<path d="M77.1418 233.422H82.5894V238.869H77.1418V233.422Z" fill="#C00810"/>
<path d="M77.1418 249.764H82.5894V255.211H77.1418V249.764Z" fill="#C00810"/>
<path d="M71.6941 168.049H77.1416V173.496H71.6941V168.049Z" fill="#C00810"/>
<path d="M71.6941 173.494H77.1416V178.942H71.6941V173.494Z" fill="#C00810"/>
<path d="M71.6941 178.941H77.1416V184.389H71.6941V178.941Z" fill="#C00810"/>
<path d="M71.6941 184.393H77.1416V189.84H71.6941V184.393Z" fill="#C00810"/>
<path d="M71.6941 200.734H77.1416V206.182H71.6941V200.734Z" fill="#C00810"/>
<path d="M71.6941 211.631H77.1416V217.078H71.6941V211.631Z" fill="#C00810"/>
<path d="M71.6941 222.525H77.1416V227.973H71.6941V222.525Z" fill="#C00810"/>
<path d="M71.6941 233.422H77.1416V238.869H71.6941V233.422Z" fill="#C00810"/>
<path d="M66.2463 168.049H71.6939V173.496H66.2463V168.049Z" fill="#C00810"/>
<path d="M66.2463 195.285H71.6939V200.733H66.2463V195.285Z" fill="#C00810"/>
<path d="M66.2463 217.077H71.6939V222.525H66.2463V217.077Z" fill="#C00810"/>
<path d="M66.2463 222.525H71.6939V227.973H66.2463V222.525Z" fill="#C00810"/>
<path d="M66.2463 227.974H71.6939V233.421H66.2463V227.974Z" fill="#C00810"/>
<path d="M281.98 102.673H287.427V108.12H281.98V102.673Z" fill="#C00810"/>
<path d="M281.98 113.568H287.427V119.016H281.98V113.568Z" fill="#C00810"/>
<path d="M281.98 119.016H287.427V124.463H281.98V119.016Z" fill="#C00810"/>
<path d="M281.98 140.807H287.427V146.254H281.98V140.807Z" fill="#C00810"/>
<path d="M281.98 151.703H287.427V157.151H281.98V151.703Z" fill="#C00810"/>
<path d="M281.98 157.151H287.427V162.599H281.98V157.151Z" fill="#C00810"/>
<path d="M281.98 173.494H287.427V178.942H281.98V173.494Z" fill="#C00810"/>
<path d="M281.98 178.941H287.427V184.389H281.98V178.941Z" fill="#C00810"/>
<path d="M281.98 195.285H287.427V200.733H281.98V195.285Z" fill="#C00810"/>
<path d="M281.98 206.18H287.427V211.627H281.98V206.18Z" fill="#C00810"/>
<path d="M281.98 211.631H287.427V217.078H281.98V211.631Z" fill="#C00810"/>
<path d="M281.98 217.077H287.427V222.525H281.98V217.077Z" fill="#C00810"/>
<path d="M281.98 227.974H287.427V233.421H281.98V227.974Z" fill="#C00810"/>
<path d="M281.98 244.317H287.427V249.765H281.98V244.317Z" fill="#C00810"/>
<path d="M281.98 255.211H287.427V260.658H281.98V255.211Z" fill="#C00810"/>
<path d="M287.428 119.016H292.875V124.463H287.428V119.016Z" fill="#C00810"/>
<path d="M287.428 129.914H292.875V135.362H287.428V129.914Z" fill="#C00810"/>
<path d="M287.428 135.36H292.875V140.808H287.428V135.36Z" fill="#C00810"/>
<path d="M287.428 146.255H292.875V151.702H287.428V146.255Z" fill="#C00810"/>
<path d="M287.428 173.494H292.875V178.942H287.428V173.494Z" fill="#C00810"/>
<path d="M287.428 178.941H292.875V184.389H287.428V178.941Z" fill="#C00810"/>
<path d="M287.428 184.393H292.875V189.84H287.428V184.393Z" fill="#C00810"/>
<path d="M287.428 189.838H292.875V195.285H287.428V189.838Z" fill="#C00810"/>
<path d="M287.428 195.285H292.875V200.733H287.428V195.285Z" fill="#C00810"/>
<path d="M287.428 217.077H292.875V222.525H287.428V217.077Z" fill="#C00810"/>
<path d="M287.428 233.422H292.875V238.869H287.428V233.422Z" fill="#C00810"/>
<path d="M287.428 249.764H292.875V255.211H287.428V249.764Z" fill="#C00810"/>
<path d="M287.428 255.211H292.875V260.658H287.428V255.211Z" fill="#C00810"/>
<path d="M287.428 260.659H292.875V266.107H287.428V260.659Z" fill="#C00810"/>
<path d="M292.875 119.016H298.323V124.463H292.875V119.016Z" fill="#C00810"/>
<path d="M292.875 135.36H298.323V140.808H292.875V135.36Z" fill="#C00810"/>
<path d="M292.875 146.255H298.323V151.702H292.875V146.255Z" fill="#C00810"/>
<path d="M292.875 157.151H298.323V162.599H292.875V157.151Z" fill="#C00810"/>
<path d="M292.875 162.601H298.323V168.048H292.875V162.601Z" fill="#C00810"/>
<path d="M292.875 168.049H298.323V173.496H292.875V168.049Z" fill="#C00810"/>
<path d="M292.875 178.941H298.323V184.389H292.875V178.941Z" fill="#C00810"/>
<path d="M292.875 184.393H298.323V189.84H292.875V184.393Z" fill="#C00810"/>
<path d="M292.875 200.734H298.323V206.182H292.875V200.734Z" fill="#C00810"/>
<path d="M292.875 233.422H298.323V238.869H292.875V233.422Z" fill="#C00810"/>
<path d="M292.875 238.868H298.323V244.316H292.875V238.868Z" fill="#C00810"/>
<path d="M292.875 249.764H298.323V255.211H292.875V249.764Z" fill="#C00810"/>
<path d="M292.875 255.211H298.323V260.658H292.875V255.211Z" fill="#C00810"/>
<path d="M298.323 135.36H303.771V140.808H298.323V135.36Z" fill="#C00810"/>
<path d="M298.323 146.255H303.771V151.702H298.323V146.255Z" fill="#C00810"/>
<path d="M298.323 151.703H303.771V157.151H298.323V151.703Z" fill="#C00810"/>
<path d="M298.323 162.601H303.771V168.048H298.323V162.601Z" fill="#C00810"/>
<path d="M298.323 178.941H303.771V184.389H298.323V178.941Z" fill="#C00810"/>
<path d="M298.323 184.393H303.771V189.84H298.323V184.393Z" fill="#C00810"/>
<path d="M298.323 200.734H303.771V206.182H298.323V200.734Z" fill="#C00810"/>
<path d="M298.323 206.18H303.771V211.627H298.323V206.18Z" fill="#C00810"/>
<path d="M298.323 227.974H303.771V233.421H298.323V227.974Z" fill="#C00810"/>
<path d="M298.323 233.422H303.771V238.869H298.323V233.422Z" fill="#C00810"/>
<path d="M298.323 244.317H303.771V249.765H298.323V244.317Z" fill="#C00810"/>
<path d="M303.771 135.36H309.219V140.808H303.771V135.36Z" fill="#C00810"/>
<path d="M303.771 146.255H309.219V151.702H303.771V146.255Z" fill="#C00810"/>
<path d="M303.771 151.703H309.219V157.151H303.771V151.703Z" fill="#C00810"/>
<path d="M303.771 168.049H309.219V173.496H303.771V168.049Z" fill="#C00810"/>
<path d="M303.771 178.941H309.219V184.389H303.771V178.941Z" fill="#C00810"/>
<path d="M303.771 184.393H309.219V189.84H303.771V184.393Z" fill="#C00810"/>
<path d="M303.771 189.838H309.219V195.285H303.771V189.838Z" fill="#C00810"/>
<path d="M303.771 195.285H309.219V200.733H303.771V195.285Z" fill="#C00810"/>
<path d="M303.771 200.734H309.219V206.182H303.771V200.734Z" fill="#C00810"/>
<path d="M303.771 206.18H309.219V211.627H303.771V206.18Z" fill="#C00810"/>
<path d="M303.771 211.631H309.219V217.078H303.771V211.631Z" fill="#C00810"/>
<path d="M303.771 227.974H309.219V233.421H303.771V227.974Z" fill="#C00810"/>
<path d="M309.219 151.703H314.667V157.151H309.219V151.703Z" fill="#C00810"/>
<path d="M309.219 157.151H314.667V162.599H309.219V157.151Z" fill="#C00810"/>
<path d="M309.219 162.601H314.667V168.048H309.219V162.601Z" fill="#C00810"/>
<path d="M309.219 173.494H314.667V178.942H309.219V173.494Z" fill="#C00810"/>
<path d="M309.219 178.941H314.667V184.389H309.219V178.941Z" fill="#C00810"/>
<path d="M309.219 200.734H314.667V206.182H309.219V200.734Z" fill="#C00810"/>
<path d="M314.667 184.393H320.114V189.84H314.667V184.393Z" fill="#C00810"/>
<path d="M101.47 283.182H106.917V288.629H101.47V283.182Z" fill="#C00810"/>
<path d="M106.918 288.63H112.365V294.077H106.918V288.63Z" fill="#C00810"/>
<path d="M112.365 283.182H117.813V288.629H112.365V283.182Z" fill="#C00810"/>
<path d="M128.709 283.182H134.157V288.629H128.709V283.182Z" fill="#C00810"/>
<path d="M128.709 288.63H134.157V294.077H128.709V288.63Z" fill="#C00810"/>
<path d="M134.157 283.182H139.604V288.629H134.157V283.182Z" fill="#C00810"/>
<path d="M134.157 294.079H139.604V299.527H134.157V294.079Z" fill="#C00810"/>
<path d="M139.604 283.182H145.052V288.629H139.604V283.182Z" fill="#C00810"/>
<path d="M139.604 288.63H145.052V294.077H139.604V288.63Z" fill="#C00810"/>
<path d="M145.052 288.63H150.5V294.077H145.052V288.63Z" fill="#C00810"/>
<path d="M145.052 299.527H150.5V304.975H145.052V299.527Z" fill="#C00810"/>
<path d="M145.052 304.976H150.5V310.423H145.052V304.976Z" fill="#C00810"/>
<path d="M150.5 283.182H155.948V288.629H150.5V283.182Z" fill="#C00810"/>
<path d="M150.5 294.079H155.948V299.527H150.5V294.079Z" fill="#C00810"/>
<path d="M155.948 299.527H161.396V304.975H155.948V299.527Z" fill="#C00810"/>
<path d="M155.948 310.421H161.396V315.869H155.948V310.421Z" fill="#C00810"/>
<path d="M161.396 304.976H166.843V310.423H161.396V304.976Z" fill="#C00810"/>
<path d="M161.396 310.421H166.843V315.869H161.396V310.421Z" fill="#C00810"/>
<path d="M166.844 283.182H172.291V288.629H166.844V283.182Z" fill="#C00810"/>
<path d="M166.844 294.079H172.291V299.527H166.844V294.079Z" fill="#C00810"/>
<path d="M166.844 299.527H172.291V304.975H166.844V299.527Z" fill="#C00810"/>
<path d="M172.291 310.421H177.739V315.869H172.291V310.421Z" fill="#C00810"/>
<path d="M177.74 283.182H183.187V288.629H177.74V283.182Z" fill="#C00810"/>
<path d="M177.74 288.63H183.187V294.077H177.74V288.63Z" fill="#C00810"/>
<path d="M177.74 294.079H183.187V299.527H177.74V294.079Z" fill="#C00810"/>
<path d="M177.74 310.421H183.187V315.869H177.74V310.421Z" fill="#C00810"/>
<path d="M183.187 283.182H188.634V288.629H183.187V283.182Z" fill="#C00810"/>
<path d="M183.187 304.976H188.634V310.423H183.187V304.976Z" fill="#C00810"/>
<path d="M183.187 310.421H188.634V315.869H183.187V310.421Z" fill="#C00810"/>
<path d="M183.187 315.87H188.634V321.317H183.187V315.87Z" fill="#C00810"/>
<path d="M188.635 294.079H194.083V299.527H188.635V294.079Z" fill="#C00810"/>
<path d="M188.635 299.527H194.083V304.975H188.635V299.527Z" fill="#C00810"/>
<path d="M188.635 310.421H194.083V315.869H188.635V310.421Z" fill="#C00810"/>
<path d="M188.635 315.87H194.083V321.317H188.635V315.87Z" fill="#C00810"/>
<path d="M194.083 288.63H199.53V294.077H194.083V288.63Z" fill="#C00810"/>
<path d="M194.083 299.527H199.53V304.975H194.083V299.527Z" fill="#C00810"/>
<path d="M199.531 288.63H204.978V294.077H199.531V288.63Z" fill="#C00810"/>
<path d="M199.531 299.527H204.978V304.975H199.531V299.527Z" fill="#C00810"/>
<path d="M199.531 304.976H204.978V310.423H199.531V304.976Z" fill="#C00810"/>
<path d="M199.531 310.421H204.978V315.869H199.531V310.421Z" fill="#C00810"/>
<path d="M204.978 283.182H210.426V288.629H204.978V283.182Z" fill="#C00810"/>
<path d="M204.978 288.63H210.426V294.077H204.978V288.63Z" fill="#C00810"/>
<path d="M204.978 294.079H210.426V299.527H204.978V294.079Z" fill="#C00810"/>
<path d="M204.978 304.976H210.426V310.423H204.978V304.976Z" fill="#C00810"/>
<path d="M204.978 310.421H210.426V315.869H204.978V310.421Z" fill="#C00810"/>
<path d="M210.426 283.182H215.874V288.629H210.426V283.182Z" fill="#C00810"/>
<path d="M210.426 299.527H215.874V304.975H210.426V299.527Z" fill="#C00810"/>
<path d="M215.874 294.079H221.322V299.527H215.874V294.079Z" fill="#C00810"/>
<path d="M215.874 310.421H221.322V315.869H215.874V310.421Z" fill="#C00810"/>
<path d="M221.322 283.182H226.769V288.629H221.322V283.182Z" fill="#C00810"/>
<path d="M221.322 294.079H226.769V299.527H221.322V294.079Z" fill="#C00810"/>
<path d="M221.322 304.976H226.769V310.423H221.322V304.976Z" fill="#C00810"/>
<path d="M221.322 310.421H226.769V315.869H221.322V310.421Z" fill="#C00810"/>
<path d="M226.769 283.182H232.217V288.629H226.769V283.182Z" fill="#C00810"/>
<path d="M226.769 299.527H232.217V304.975H226.769V299.527Z" fill="#C00810"/>
<path d="M232.218 283.182H237.665V288.629H232.218V283.182Z" fill="#C00810"/>
<path d="M232.218 304.976H237.665V310.423H232.218V304.976Z" fill="#C00810"/>
<path d="M237.665 283.182H243.113V288.629H237.665V283.182Z" fill="#C00810"/>
<path d="M243.113 294.079H248.561V299.527H243.113V294.079Z" fill="#C00810"/>
<path d="M243.113 299.527H248.561V304.975H243.113V299.527Z" fill="#C00810"/>
<path d="M248.561 283.182H254.008V288.629H248.561V283.182Z" fill="#C00810"/>
<path d="M254.009 283.182H259.456V288.629H254.009V283.182Z" fill="#C00810"/>
<path d="M254.009 288.63H259.456V294.077H254.009V288.63Z" fill="#C00810"/>
<path d="M254.009 294.079H259.456V299.527H254.009V294.079Z" fill="#C00810"/>
<path d="M259.457 283.182H264.904V288.629H259.457V283.182Z" fill="#C00810"/>
<path d="M264.904 283.182H270.352V288.629H264.904V283.182Z" fill="#C00810"/>
<path d="M270.352 283.182H275.8V288.629H270.352V283.182Z" fill="#C00810"/>
<path d="M106.918 94.6885H112.365V100.136H106.918V94.6885Z" fill="#C00810"/>
<path d="M112.365 94.6885H117.813V100.136H112.365V94.6885Z" fill="#C00810"/>
<path d="M112.365 89.2383H117.813V94.6858H112.365V89.2383Z" fill="#C00810"/>
<path d="M117.813 89.2383H123.261V94.6858H117.813V89.2383Z" fill="#C00810"/>
<path d="M128.709 94.6885H134.157V100.136H128.709V94.6885Z" fill="#C00810"/>
<path d="M134.157 94.6885H139.604V100.136H134.157V94.6885Z" fill="#C00810"/>
<path d="M134.157 89.2383H139.604V94.6858H134.157V89.2383Z" fill="#C00810"/>
<path d="M134.157 78.3467H139.604V83.7942H134.157V78.3467Z" fill="#C00810"/>
<path d="M139.604 83.793H145.052V89.2405H139.604V83.793Z" fill="#C00810"/>
<path d="M139.604 78.3467H145.052V83.7942H139.604V78.3467Z" fill="#C00810"/>
<path d="M145.052 72.8975H150.5V78.345H145.052V72.8975Z" fill="#C00810"/>
<path d="M150.5 94.6885H155.948V100.136H150.5V94.6885Z" fill="#C00810"/>
<path d="M150.5 83.793H155.948V89.2405H150.5V83.793Z" fill="#C00810"/>
<path d="M150.5 78.3467H155.948V83.7942H150.5V78.3467Z" fill="#C00810"/>
<path d="M150.5 72.8975H155.948V78.345H150.5V72.8975Z" fill="#C00810"/>
<path d="M155.948 94.6885H161.396V100.136H155.948V94.6885Z" fill="#C00810"/>
<path d="M155.948 89.2383H161.396V94.6858H155.948V89.2383Z" fill="#C00810"/>
<path d="M155.948 72.8975H161.396V78.345H155.948V72.8975Z" fill="#C00810"/>
<path d="M155.948 67.4492H161.396V72.8967H155.948V67.4492Z" fill="#C00810"/>
<path d="M161.396 94.6885H166.843V100.136H161.396V94.6885Z" fill="#C00810"/>
<path d="M161.396 78.3467H166.843V83.7942H161.396V78.3467Z" fill="#C00810"/>
<path d="M161.396 72.8975H166.843V78.345H161.396V72.8975Z" fill="#C00810"/>
<path d="M166.844 94.6885H172.291V100.136H166.844V94.6885Z" fill="#C00810"/>
<path d="M166.844 83.793H172.291V89.2405H166.844V83.793Z" fill="#C00810"/>
<path d="M166.844 78.3467H172.291V83.7942H166.844V78.3467Z" fill="#C00810"/>
<path d="M166.844 72.8975H172.291V78.345H166.844V72.8975Z" fill="#C00810"/>
<path d="M166.844 67.4492H172.291V72.8967H166.844V67.4492Z" fill="#C00810"/>
<path d="M172.291 94.6885H177.739V100.136H172.291V94.6885Z" fill="#C00810"/>
<path d="M172.291 89.2383H177.739V94.6858H172.291V89.2383Z" fill="#C00810"/>
<path d="M172.291 83.793H177.739V89.2405H172.291V83.793Z" fill="#C00810"/>
<path d="M172.291 72.8975H177.739V78.345H172.291V72.8975Z" fill="#C00810"/>
<path d="M172.291 67.4492H177.739V72.8967H172.291V67.4492Z" fill="#C00810"/>
<path d="M177.74 94.6885H183.187V100.136H177.74V94.6885Z" fill="#C00810"/>
<path d="M177.74 89.2383H183.187V94.6858H177.74V89.2383Z" fill="#C00810"/>
<path d="M177.74 78.3467H183.187V83.7942H177.74V78.3467Z" fill="#C00810"/>
<path d="M177.74 72.8975H183.187V78.345H177.74V72.8975Z" fill="#C00810"/>
<path d="M183.187 94.6885H188.634V100.136H183.187V94.6885Z" fill="#C00810"/>
<path d="M183.187 83.793H188.634V89.2405H183.187V83.793Z" fill="#C00810"/>
<path d="M183.187 78.3467H188.634V83.7942H183.187V78.3467Z" fill="#C00810"/>
<path d="M183.187 72.8975H188.634V78.345H183.187V72.8975Z" fill="#C00810"/>
<path d="M188.635 78.3467H194.083V83.7942H188.635V78.3467Z" fill="#C00810"/>
<path d="M188.635 72.8975H194.083V78.345H188.635V72.8975Z" fill="#C00810"/>
<path d="M188.635 67.4492H194.083V72.8967H188.635V67.4492Z" fill="#C00810"/>
<path d="M188.635 62.002H194.083V67.4495H188.635V62.002Z" fill="#C00810"/>
<path d="M194.083 94.6885H199.53V100.136H194.083V94.6885Z" fill="#C00810"/>
<path d="M194.083 83.793H199.53V89.2405H194.083V83.793Z" fill="#C00810"/>
<path d="M194.083 78.3467H199.53V83.7942H194.083V78.3467Z" fill="#C00810"/>
<path d="M194.083 67.4492H199.53V72.8967H194.083V67.4492Z" fill="#C00810"/>
<path d="M194.083 62.002H199.53V67.4495H194.083V62.002Z" fill="#C00810"/>
<path d="M199.531 94.6885H204.978V100.136H199.531V94.6885Z" fill="#C00810"/>
<path d="M199.531 83.793H204.978V89.2405H199.531V83.793Z" fill="#C00810"/>
<path d="M199.531 78.3467H204.978V83.7942H199.531V78.3467Z" fill="#C00810"/>
<path d="M199.531 67.4492H204.978V72.8967H199.531V67.4492Z" fill="#C00810"/>
<path d="M204.978 89.2383H210.426V94.6858H204.978V89.2383Z" fill="#C00810"/>
<path d="M204.978 83.793H210.426V89.2405H204.978V83.793Z" fill="#C00810"/>
<path d="M204.978 78.3467H210.426V83.7942H204.978V78.3467Z" fill="#C00810"/>
<path d="M210.426 72.8975H215.874V78.345H210.426V72.8975Z" fill="#C00810"/>
<path d="M210.426 67.4492H215.874V72.8967H210.426V67.4492Z" fill="#C00810"/>
<path d="M215.874 94.6885H221.322V100.136H215.874V94.6885Z" fill="#C00810"/>
<path d="M215.874 78.3467H221.322V83.7942H215.874V78.3467Z" fill="#C00810"/>
<path d="M215.874 72.8975H221.322V78.345H215.874V72.8975Z" fill="#C00810"/>
<path d="M221.322 94.6885H226.769V100.136H221.322V94.6885Z" fill="#C00810"/>
<path d="M221.322 89.2383H226.769V94.6858H221.322V89.2383Z" fill="#C00810"/>
<path d="M221.322 83.793H226.769V89.2405H221.322V83.793Z" fill="#C00810"/>
<path d="M221.322 78.3467H226.769V83.7942H221.322V78.3467Z" fill="#C00810"/>
<path d="M221.322 72.8975H226.769V78.345H221.322V72.8975Z" fill="#C00810"/>
<path d="M221.322 67.4492H226.769V72.8967H221.322V67.4492Z" fill="#C00810"/>
<path d="M226.769 94.6885H232.217V100.136H226.769V94.6885Z" fill="#C00810"/>
<path d="M226.769 78.3467H232.217V83.7942H226.769V78.3467Z" fill="#C00810"/>
<path d="M226.769 67.4492H232.217V72.8967H226.769V67.4492Z" fill="#C00810"/>
<path d="M232.218 94.6885H237.665V100.136H232.218V94.6885Z" fill="#C00810"/>
<path d="M232.218 89.2383H237.665V94.6858H232.218V89.2383Z" fill="#C00810"/>
<path d="M232.218 83.793H237.665V89.2405H232.218V83.793Z" fill="#C00810"/>
<path d="M232.218 78.3467H237.665V83.7942H232.218V78.3467Z" fill="#C00810"/>
<path d="M237.665 94.6885H243.113V100.136H237.665V94.6885Z" fill="#C00810"/>
<path d="M237.665 83.793H243.113V89.2405H237.665V83.793Z" fill="#C00810"/>
<path d="M237.665 78.3467H243.113V83.7942H237.665V78.3467Z" fill="#C00810"/>
<path d="M237.665 72.8975H243.113V78.345H237.665V72.8975Z" fill="#C00810"/>
<path d="M243.113 89.2383H248.561V94.6858H243.113V89.2383Z" fill="#C00810"/>
<path d="M243.113 83.793H248.561V89.2405H243.113V83.793Z" fill="#C00810"/>
<path d="M243.113 78.3467H248.561V83.7942H243.113V78.3467Z" fill="#C00810"/>
<path d="M248.561 94.6885H254.008V100.136H248.561V94.6885Z" fill="#C00810"/>
<path d="M248.561 89.2383H254.008V94.6858H248.561V89.2383Z" fill="#C00810"/>
<path d="M248.561 78.3467H254.008V83.7942H248.561V78.3467Z" fill="#C00810"/>
<path d="M254.009 94.6885H259.456V100.136H254.009V94.6885Z" fill="#C00810"/>
<path d="M254.009 89.2383H259.456V94.6858H254.009V89.2383Z" fill="#C00810"/>
<path d="M254.009 83.793H259.456V89.2405H254.009V83.793Z" fill="#C00810"/>
<path d="M270.352 94.6885H275.8V100.136H270.352V94.6885Z" fill="#C00810"/>
<path d="M165.791 103.574H158.745V110.62H165.791V103.574Z" fill="#C00810"/>
<path d="M172.838 103.574H165.792V110.62H172.838V103.574Z" fill="#C00810"/>
<path d="M201.026 103.574H193.98V110.62H201.026V103.574Z" fill="#C00810"/>
<path d="M222.168 103.574H215.121V110.62H222.168V103.574Z" fill="#C00810"/>
<path d="M165.791 110.621H158.745V117.667H165.791V110.621Z" fill="#C00810"/>
<path d="M179.886 110.621H172.839V117.667H179.886V110.621Z" fill="#C00810"/>
<path d="M193.98 110.621H186.933V117.667H193.98V110.621Z" fill="#C00810"/>
<path d="M201.027 110.621H193.981V117.667H201.027V110.621Z" fill="#C00810"/>
<path d="M222.168 110.621H215.121V117.667H222.168V110.621Z" fill="#C00810"/>
<path d="M172.838 117.666H165.792V124.712H172.838V117.666Z" fill="#C00810"/>
<path d="M193.979 117.666H186.933V124.712H193.979V117.666Z" fill="#C00810"/>
<path d="M201.026 117.666H193.98V124.712H201.026V117.666Z" fill="#C00810"/>
<path d="M208.073 117.666H201.027V124.712H208.073V117.666Z" fill="#C00810"/>
<path d="M215.12 117.666H208.074V124.712H215.12V117.666Z" fill="#C00810"/>
<path d="M222.167 117.666H215.121V124.712H222.167V117.666Z" fill="#C00810"/>
<path d="M165.792 124.718H158.745V131.764H165.792V124.718Z" fill="#C00810"/>
<path d="M172.839 124.718H165.792V131.764H172.839V124.718Z" fill="#C00810"/>
<path d="M179.886 124.718H172.839V131.764H179.886V124.718Z" fill="#C00810"/>
<path d="M186.933 124.718H179.886V131.764H186.933V124.718Z" fill="#C00810"/>
<path d="M201.026 124.718H193.98V131.764H201.026V124.718Z" fill="#C00810"/>
<path d="M208.073 124.718H201.027V131.764H208.073V124.718Z" fill="#C00810"/>
<path d="M215.121 124.718H208.074V131.764H215.121V124.718Z" fill="#C00810"/>
<path d="M172.839 131.764H165.793V138.81H172.839V131.764Z" fill="#C00810"/>
<path d="M186.932 131.764H179.886V138.81H186.932V131.764Z" fill="#C00810"/>
<path d="M201.026 131.764H193.98V138.81H201.026V131.764Z" fill="#C00810"/>
<path d="M208.073 131.764H201.027V138.81H208.073V131.764Z" fill="#C00810"/>
<path d="M215.12 131.764H208.074V138.81H215.12V131.764Z" fill="#C00810"/>
<path d="M222.167 131.764H215.121V138.81H222.167V131.764Z" fill="#C00810"/>
<path d="M172.838 138.81H165.792V145.856H172.838V138.81Z" fill="#C00810"/>
<path d="M201.026 138.81H193.98V145.856H201.026V138.81Z" fill="#C00810"/>
<path d="M208.073 138.81H201.027V145.856H208.073V138.81Z" fill="#C00810"/>
<path d="M222.168 138.81H215.121V145.856H222.168V138.81Z" fill="#C00810"/>
<path d="M165.791 145.856H158.745V152.903H165.791V145.856Z" fill="#C00810"/>
<path d="M179.886 145.856H172.839V152.903H179.886V145.856Z" fill="#C00810"/>
<path d="M193.98 145.856H186.933V152.903H193.98V145.856Z" fill="#C00810"/>
<path d="M208.073 145.856H201.027V152.903H208.073V145.856Z" fill="#C00810"/>
<path d="M222.167 145.856H215.121V152.903H222.167V145.856Z" fill="#C00810"/>
<path d="M165.792 152.903H158.746V159.95H165.792V152.903Z" fill="#C00810"/>
<path d="M215.12 152.903H208.074V159.95H215.12V152.903Z" fill="#C00810"/>
<path d="M222.167 152.903H215.121V159.95H222.167V152.903Z" fill="#C00810"/>
<path d="M109.416 159.952H102.37V166.998H109.416V159.952Z" fill="#C00810"/>
<path d="M123.509 159.952H116.463V166.998H123.509V159.952Z" fill="#C00810"/>
<path d="M130.556 159.952H123.51V166.998H130.556V159.952Z" fill="#C00810"/>
<path d="M144.651 159.952H137.604V166.998H144.651V159.952Z" fill="#C00810"/>
<path d="M151.698 159.952H144.652V166.998H151.698V159.952Z" fill="#C00810"/>
<path d="M158.745 159.952H151.698V166.998H158.745V159.952Z" fill="#C00810"/>
<path d="M172.838 159.952H165.792V166.998H172.838V159.952Z" fill="#C00810"/>
<path d="M179.886 159.952H172.839V166.998H179.886V159.952Z" fill="#C00810"/>
<path d="M186.932 159.952H179.886V166.998H186.932V159.952Z" fill="#C00810"/>
<path d="M193.979 159.952H186.933V166.998H193.979V159.952Z" fill="#C00810"/>
<path d="M215.12 159.952H208.074V166.998H215.12V159.952Z" fill="#C00810"/>
<path d="M222.167 159.952H215.121V166.998H222.167V159.952Z" fill="#C00810"/>
<path d="M236.262 159.952H229.215V166.998H236.262V159.952Z" fill="#C00810"/>
<path d="M257.402 159.952H250.356V166.998H257.402V159.952Z" fill="#C00810"/>
<path d="M271.496 159.952H264.45V166.998H271.496V159.952Z" fill="#C00810"/>
<path d="M278.543 159.952H271.497V166.998H278.543V159.952Z" fill="#C00810"/>
<path d="M109.416 166.998H102.37V174.044H109.416V166.998Z" fill="#C00810"/>
<path d="M137.604 166.998H130.557V174.044H137.604V166.998Z" fill="#C00810"/>
<path d="M144.651 166.998H137.604V174.044H144.651V166.998Z" fill="#C00810"/>
<path d="M165.792 166.998H158.745V174.044H165.792V166.998Z" fill="#C00810"/>
<path d="M172.838 166.998H165.792V174.044H172.838V166.998Z" fill="#C00810"/>
<path d="M186.933 166.998H179.886V174.044H186.933V166.998Z" fill="#C00810"/>
<path d="M201.026 166.998H193.98V174.044H201.026V166.998Z" fill="#C00810"/>
<path d="M229.215 166.998H222.169V174.044H229.215V166.998Z" fill="#C00810"/>
<path d="M243.308 166.998H236.262V174.044H243.308V166.998Z" fill="#C00810"/>
<path d="M271.496 166.998H264.45V174.044H271.496V166.998Z" fill="#C00810"/>
<path d="M116.462 174.044H109.416V181.09H116.462V174.044Z" fill="#C00810"/>
<path d="M137.604 174.044H130.557V181.09H137.604V174.044Z" fill="#C00810"/>
<path d="M144.651 174.044H137.605V181.09H144.651V174.044Z" fill="#C00810"/>
<path d="M151.698 174.044H144.651V181.09H151.698V174.044Z" fill="#C00810"/>
<path d="M158.745 174.044H151.698V181.09H158.745V174.044Z" fill="#C00810"/>
<path d="M172.838 174.044H165.792V181.09H172.838V174.044Z" fill="#C00810"/>
<path d="M193.979 174.044H186.933V181.09H193.979V174.044Z" fill="#C00810"/>
<path d="M201.027 174.044H193.98V181.09H201.027V174.044Z" fill="#C00810"/>
<path d="M222.167 174.044H215.121V181.09H222.167V174.044Z" fill="#C00810"/>
<path d="M243.308 174.044H236.262V181.09H243.308V174.044Z" fill="#C00810"/>
<path d="M250.356 174.044H243.309V181.09H250.356V174.044Z" fill="#C00810"/>
<path d="M109.416 181.092H102.37V188.138H109.416V181.092Z" fill="#C00810"/>
<path d="M116.462 181.092H109.416V188.138H116.462V181.092Z" fill="#C00810"/>
<path d="M144.651 181.092H137.604V188.138H144.651V181.092Z" fill="#C00810"/>
<path d="M158.745 181.092H151.698V188.138H158.745V181.092Z" fill="#C00810"/>
<path d="M165.792 181.092H158.746V188.138H165.792V181.092Z" fill="#C00810"/>
<path d="M172.838 181.092H165.792V188.138H172.838V181.092Z" fill="#C00810"/>
<path d="M179.886 181.092H172.839V188.138H179.886V181.092Z" fill="#C00810"/>
<path d="M186.932 181.092H179.886V188.138H186.932V181.092Z" fill="#C00810"/>
<path d="M193.979 181.092H186.933V188.138H193.979V181.092Z" fill="#C00810"/>
<path d="M201.026 181.092H193.98V188.138H201.026V181.092Z" fill="#C00810"/>
<path d="M208.073 181.092H201.027V188.138H208.073V181.092Z" fill="#C00810"/>
<path d="M229.215 181.092H222.168V188.138H229.215V181.092Z" fill="#C00810"/>
<path d="M243.309 181.092H236.262V188.138H243.309V181.092Z" fill="#C00810"/>
<path d="M257.402 181.092H250.356V188.138H257.402V181.092Z" fill="#C00810"/>
<path d="M264.449 181.092H257.403V188.138H264.449V181.092Z" fill="#C00810"/>
<path d="M116.463 188.138H109.416V195.184H116.463V188.138Z" fill="#C00810"/>
<path d="M123.509 188.138H116.463V195.184H123.509V188.138Z" fill="#C00810"/>
<path d="M130.556 188.138H123.51V195.184H130.556V188.138Z" fill="#C00810"/>
<path d="M151.698 188.138H144.651V195.184H151.698V188.138Z" fill="#C00810"/>
<path d="M165.791 188.138H158.745V195.184H165.791V188.138Z" fill="#C00810"/>
<path d="M172.838 188.138H165.792V195.184H172.838V188.138Z" fill="#C00810"/>
<path d="M179.886 188.138H172.839V195.184H179.886V188.138Z" fill="#C00810"/>
<path d="M229.215 188.138H222.168V195.184H229.215V188.138Z" fill="#C00810"/>
<path d="M236.262 188.138H229.215V195.184H236.262V188.138Z" fill="#C00810"/>
<path d="M243.308 188.138H236.262V195.184H243.308V188.138Z" fill="#C00810"/>
<path d="M250.355 188.138H243.309V195.184H250.355V188.138Z" fill="#C00810"/>
<path d="M264.45 188.138H257.403V195.184H264.45V188.138Z" fill="#C00810"/>
<path d="M271.496 188.138H264.45V195.184H271.496V188.138Z" fill="#C00810"/>
<path d="M278.543 188.138H271.497V195.184H278.543V188.138Z" fill="#C00810"/>
<path d="M116.462 195.184H109.416V202.23H116.462V195.184Z" fill="#C00810"/>
<path d="M144.651 195.184H137.604V202.23H144.651V195.184Z" fill="#C00810"/>
<path d="M165.792 195.184H158.746V202.23H165.792V195.184Z" fill="#C00810"/>
<path d="M172.838 195.184H165.792V202.23H172.838V195.184Z" fill="#C00810"/>
<path d="M179.886 195.184H172.839V202.23H179.886V195.184Z" fill="#C00810"/>
<path d="M186.932 195.184H179.886V202.23H186.932V195.184Z" fill="#C00810"/>
<path d="M201.026 195.184H193.98V202.23H201.026V195.184Z" fill="#C00810"/>
<path d="M208.073 195.184H201.027V202.23H208.073V195.184Z" fill="#C00810"/>
<path d="M215.121 195.184H208.074V202.23H215.121V195.184Z" fill="#C00810"/>
<path d="M222.167 195.184H215.121V202.23H222.167V195.184Z" fill="#C00810"/>
<path d="M229.215 195.184H222.168V202.23H229.215V195.184Z" fill="#C00810"/>
<path d="M236.262 195.184H229.215V202.23H236.262V195.184Z" fill="#C00810"/>
<path d="M243.309 195.184H236.262V202.23H243.309V195.184Z" fill="#C00810"/>
<path d="M250.355 195.184H243.309V202.23H250.355V195.184Z" fill="#C00810"/>
<path d="M278.543 195.184H271.497V202.23H278.543V195.184Z" fill="#C00810"/>
<path d="M116.462 202.231H109.416V209.278H116.462V202.231Z" fill="#C00810"/>
<path d="M123.509 202.231H116.463V209.278H123.509V202.231Z" fill="#C00810"/>
<path d="M144.651 202.231H137.605V209.278H144.651V202.231Z" fill="#C00810"/>
<path d="M151.697 202.231H144.651V209.278H151.697V202.231Z" fill="#C00810"/>
<path d="M158.744 202.231H151.698V209.278H158.744V202.231Z" fill="#C00810"/>
<path d="M165.791 202.231H158.745V209.278H165.791V202.231Z" fill="#C00810"/>
<path d="M179.886 202.231H172.839V209.278H179.886V202.231Z" fill="#C00810"/>
<path d="M193.98 202.231H186.933V209.278H193.98V202.231Z" fill="#C00810"/>
<path d="M208.073 202.231H201.027V209.278H208.073V202.231Z" fill="#C00810"/>
<path d="M236.261 202.231H229.215V209.278H236.261V202.231Z" fill="#C00810"/>
<path d="M250.355 202.231H243.309V209.278H250.355V202.231Z" fill="#C00810"/>
<path d="M264.449 202.231H257.403V209.278H264.449V202.231Z" fill="#C00810"/>
<path d="M271.497 202.231H264.45V209.278H271.497V202.231Z" fill="#C00810"/>
<path d="M109.416 209.279H102.37V216.325H109.416V209.279Z" fill="#C00810"/>
<path d="M158.745 209.279H151.698V216.325H158.745V209.279Z" fill="#C00810"/>
<path d="M193.98 209.279H186.933V216.325H193.98V209.279Z" fill="#C00810"/>
<path d="M201.026 209.279H193.98V216.325H201.026V209.279Z" fill="#C00810"/>
<path d="M222.167 209.279H215.121V216.325H222.167V209.279Z" fill="#C00810"/>
<path d="M229.215 209.279H222.168V216.325H229.215V209.279Z" fill="#C00810"/>
<path d="M236.262 209.279H229.215V216.325H236.262V209.279Z" fill="#C00810"/>
<path d="M243.308 209.279H236.262V216.325H243.308V209.279Z" fill="#C00810"/>
<path d="M250.355 209.279H243.309V216.325H250.355V209.279Z" fill="#C00810"/>
<path d="M278.543 209.279H271.497V216.325H278.543V209.279Z" fill="#C00810"/>
<path d="M123.51 216.327H116.464V223.373H123.51V216.327Z" fill="#C00810"/>
<path d="M130.557 216.327H123.51V223.373H130.557V216.327Z" fill="#C00810"/>
<path d="M144.651 216.327H137.604V223.373H144.651V216.327Z" fill="#C00810"/>
<path d="M151.698 216.327H144.651V223.373H151.698V216.327Z" fill="#C00810"/>
<path d="M158.744 216.327H151.698V223.373H158.744V216.327Z" fill="#C00810"/>
<path d="M165.792 216.327H158.745V223.373H165.792V216.327Z" fill="#C00810"/>
<path d="M179.886 216.327H172.84V223.373H179.886V216.327Z" fill="#C00810"/>
<path d="M186.933 216.327H179.886V223.373H186.933V216.327Z" fill="#C00810"/>
<path d="M215.121 216.327H208.074V223.373H215.121V216.327Z" fill="#C00810"/>
<path d="M222.168 216.327H215.121V223.373H222.168V216.327Z" fill="#C00810"/>
<path d="M229.215 216.327H222.169V223.373H229.215V216.327Z" fill="#C00810"/>
<path d="M236.262 216.327H229.215V223.373H236.262V216.327Z" fill="#C00810"/>
<path d="M243.308 216.327H236.262V223.373H243.308V216.327Z" fill="#C00810"/>
<path d="M250.355 216.327H243.309V223.373H250.355V216.327Z" fill="#C00810"/>
<path d="M257.402 216.327H250.356V223.373H257.402V216.327Z" fill="#C00810"/>
<path d="M264.449 216.327H257.403V223.373H264.449V216.327Z" fill="#C00810"/>
<path d="M271.496 216.327H264.45V223.373H271.496V216.327Z" fill="#C00810"/>
<path d="M278.543 216.327H271.497V223.373H278.543V216.327Z" fill="#C00810"/>
<path d="M165.791 223.374H158.745V230.42H165.791V223.374Z" fill="#C00810"/>
<path d="M179.886 223.374H172.839V230.42H179.886V223.374Z" fill="#C00810"/>
<path d="M193.98 223.374H186.933V230.42H193.98V223.374Z" fill="#C00810"/>
<path d="M201.027 223.374H193.981V230.42H201.027V223.374Z" fill="#C00810"/>
<path d="M222.168 223.374H215.121V230.42H222.168V223.374Z" fill="#C00810"/>
<path d="M250.355 223.374H243.309V230.42H250.355V223.374Z" fill="#C00810"/>
<path d="M264.449 223.374H257.403V230.42H264.449V223.374Z" fill="#C00810"/>
<path d="M278.544 223.374H271.497V230.42H278.544V223.374Z" fill="#C00810"/>
<path d="M165.792 230.423H158.745V237.469H165.792V230.423Z" fill="#C00810"/>
<path d="M172.838 230.423H165.792V237.469H172.838V230.423Z" fill="#C00810"/>
<path d="M186.933 230.423H179.886V237.469H186.933V230.423Z" fill="#C00810"/>
<path d="M193.979 230.423H186.933V237.469H193.979V230.423Z" fill="#C00810"/>
<path d="M222.168 230.423H215.121V237.469H222.168V230.423Z" fill="#C00810"/>
<path d="M236.262 230.423H229.215V237.469H236.262V230.423Z" fill="#C00810"/>
<path d="M250.355 230.423H243.309V237.469H250.355V230.423Z" fill="#C00810"/>
<path d="M264.449 230.423H257.403V237.469H264.449V230.423Z" fill="#C00810"/>
<path d="M271.496 230.423H264.45V237.469H271.496V230.423Z" fill="#C00810"/>
<path d="M278.543 230.423H271.497V237.469H278.543V230.423Z" fill="#C00810"/>
<path d="M165.792 237.466H158.745V244.512H165.792V237.466Z" fill="#C00810"/>
<path d="M172.838 237.466H165.792V244.512H172.838V237.466Z" fill="#C00810"/>
<path d="M193.98 237.466H186.934V244.512H193.98V237.466Z" fill="#C00810"/>
<path d="M215.12 237.466H208.074V244.512H215.12V237.466Z" fill="#C00810"/>
<path d="M222.168 237.466H215.121V244.512H222.168V237.466Z" fill="#C00810"/>
<path d="M250.355 237.466H243.309V244.512H250.355V237.466Z" fill="#C00810"/>
<path d="M271.496 237.466H264.45V244.512H271.496V237.466Z" fill="#C00810"/>
<path d="M172.838 244.512H165.792V251.558H172.838V244.512Z" fill="#C00810"/>
<path d="M179.886 244.512H172.839V251.558H179.886V244.512Z" fill="#C00810"/>
<path d="M186.932 244.512H179.886V251.558H186.932V244.512Z" fill="#C00810"/>
<path d="M193.98 244.512H186.933V251.558H193.98V244.512Z" fill="#C00810"/>
<path d="M201.027 244.512H193.98V251.558H201.027V244.512Z" fill="#C00810"/>
<path d="M222.167 244.512H215.121V251.558H222.167V244.512Z" fill="#C00810"/>
<path d="M229.214 244.512H222.168V251.558H229.214V244.512Z" fill="#C00810"/>
<path d="M236.261 244.512H229.215V251.558H236.261V244.512Z" fill="#C00810"/>
<path d="M243.308 244.512H236.262V251.558H243.308V244.512Z" fill="#C00810"/>
<path d="M250.355 244.512H243.309V251.558H250.355V244.512Z" fill="#C00810"/>
<path d="M257.402 244.512H250.356V251.558H257.402V244.512Z" fill="#C00810"/>
<path d="M271.496 244.512H264.45V251.558H271.496V244.512Z" fill="#C00810"/>
<path d="M165.792 251.558H158.745V258.604H165.792V251.558Z" fill="#C00810"/>
<path d="M172.838 251.558H165.792V258.604H172.838V251.558Z" fill="#C00810"/>
<path d="M193.979 251.558H186.933V258.604H193.979V251.558Z" fill="#C00810"/>
<path d="M201.026 251.558H193.98V258.604H201.026V251.558Z" fill="#C00810"/>
<path d="M208.073 251.558H201.027V258.604H208.073V251.558Z" fill="#C00810"/>
<path d="M222.168 251.558H215.121V258.604H222.168V251.558Z" fill="#C00810"/>
<path d="M229.214 251.558H222.168V258.604H229.214V251.558Z" fill="#C00810"/>
<path d="M236.262 251.558H229.215V258.604H236.262V251.558Z" fill="#C00810"/>
<path d="M250.355 251.558H243.309V258.604H250.355V251.558Z" fill="#C00810"/>
<path d="M257.402 251.558H250.356V258.604H257.402V251.558Z" fill="#C00810"/>
<path d="M264.449 251.558H257.403V258.604H264.449V251.558Z" fill="#C00810"/>
<path d="M271.496 251.558H264.45V258.604H271.496V251.558Z" fill="#C00810"/>
<path d="M278.543 251.558H271.497V258.604H278.543V251.558Z" fill="#C00810"/>
<path d="M165.791 258.61H158.745V265.657H165.791V258.61Z" fill="#C00810"/>
<path d="M172.838 258.61H165.792V265.657H172.838V258.61Z" fill="#C00810"/>
<path d="M186.933 258.61H179.886V265.657H186.933V258.61Z" fill="#C00810"/>
<path d="M193.98 258.61H186.934V265.657H193.98V258.61Z" fill="#C00810"/>
<path d="M201.027 258.61H193.981V265.657H201.027V258.61Z" fill="#C00810"/>
<path d="M222.168 258.61H215.121V265.657H222.168V258.61Z" fill="#C00810"/>
<path d="M229.215 258.61H222.168V265.657H229.215V258.61Z" fill="#C00810"/>
<path d="M236.261 258.61H229.215V265.657H236.261V258.61Z" fill="#C00810"/>
<path d="M250.355 258.61H243.309V265.657H250.355V258.61Z" fill="#C00810"/>
<path d="M264.45 258.61H257.403V265.657H264.45V258.61Z" fill="#C00810"/>
<path d="M271.497 258.61H264.45V265.657H271.497V258.61Z" fill="#C00810"/>
<path d="M250.355 265.655H243.309V272.701H250.355V265.655Z" fill="#C00810"/>
<path d="M264.45 265.655H257.403V272.701H264.45V265.655Z" fill="#C00810"/>
<path d="M165.791 272.703H158.745V279.749H165.791V272.703Z" fill="#C00810"/>
<path d="M193.98 272.703H186.933V279.749H193.98V272.703Z" fill="#C00810"/>
<path d="M208.073 272.703H201.027V279.749H208.073V272.703Z" fill="#C00810"/>
<path d="M229.214 272.703H222.168V279.749H229.214V272.703Z" fill="#C00810"/>
<path d="M243.308 272.703H236.262V279.749H243.308V272.703Z" fill="#C00810"/>
<path d="M250.355 272.703H243.309V279.749H250.355V272.703Z" fill="#C00810"/>
<path d="M257.402 272.703H250.356V279.749H257.402V272.703Z" fill="#C00810"/>
<path d="M264.449 272.703H257.403V279.749H264.449V272.703Z" fill="#C00810"/>
<path d="M271.497 272.703H264.45V279.749H271.497V272.703Z" fill="#C00810"/>
<path d="M278.544 272.703H271.497V279.749H278.544V272.703Z" fill="#C00810"/>
<path d="M127.034 104.05C113.68 104.05 102.853 114.877 102.853 128.231C102.853 141.585 113.68 152.411 127.034 152.411C140.388 152.411 151.215 141.585 151.215 128.231C151.215 114.877 140.388 104.05 127.034 104.05ZM127.034 145.157C117.701 145.157 110.107 137.564 110.107 128.231C110.107 118.897 117.701 111.304 127.034 111.304C136.367 111.304 143.96 118.897 143.96 128.231C143.96 137.564 136.367 145.157 127.034 145.157Z" fill="#C00810"/>
<path d="M253.879 104.05C240.525 104.05 229.698 114.877 229.698 128.231C229.698 141.585 240.525 152.411 253.879 152.411C267.233 152.411 278.06 141.585 278.06 128.231C278.06 114.877 267.233 104.05 253.879 104.05ZM253.879 145.157C244.546 145.157 236.953 137.564 236.953 128.231C236.953 118.897 244.546 111.304 253.879 111.304C263.213 111.304 270.806 118.897 270.806 128.231C270.806 137.564 263.213 145.157 253.879 145.157Z" fill="#C00810"/>
<path d="M127.034 230.899C113.68 230.899 102.853 241.726 102.853 255.08C102.853 268.434 113.68 279.261 127.034 279.261C140.388 279.261 151.215 268.434 151.215 255.08C151.215 241.726 140.388 230.899 127.034 230.899ZM127.034 272.007C117.701 272.007 110.108 264.414 110.108 255.08C110.108 245.747 117.701 238.154 127.034 238.154C136.368 238.154 143.961 245.747 143.961 255.08C143.961 264.414 136.368 272.007 127.034 272.007Z" fill="#C00810"/>
<path d="M126.826 138.392C132.549 138.392 137.189 133.752 137.189 128.029C137.189 122.306 132.549 117.666 126.826 117.666C121.103 117.666 116.463 122.306 116.463 128.029C116.463 133.752 121.103 138.392 126.826 138.392Z" fill="#C00810"/>
<path d="M253.672 138.392C259.395 138.392 264.035 133.752 264.035 128.029C264.035 122.306 259.395 117.666 253.672 117.666C247.949 117.666 243.309 122.306 243.309 128.029C243.309 133.752 247.949 138.392 253.672 138.392Z" fill="#C00810"/>
<path d="M126.826 265.238C132.549 265.238 137.189 260.598 137.189 254.875C137.189 249.151 132.549 244.512 126.826 244.512C121.103 244.512 116.463 249.151 116.463 254.875C116.463 260.598 121.103 265.238 126.826 265.238Z" fill="#C00810"/>
<defs>
<linearGradient id="paint0_linear_40_26570" x1="57.6198" y1="334.683" x2="367.483" y2="67.8556" gradientUnits="userSpaceOnUse">
<stop stop-color="#C00810"/>
<stop offset="1" stop-color="#E63320"/>
</linearGradient>
</defs>
</svg>
