<svg width="62" height="16" viewBox="0 0 62 16" fill="none" xmlns="http://www.w3.org/2000/svg">
<path d="M6.19773 2.58905H5.86914V2.91764H6.19773V2.58905Z" fill="url(#paint0_linear_438_31133)"/>
<path d="M7.50685 2.58905V2.91712H6.85148V3.2452H6.52344V2.58905H7.50685Z" fill="url(#paint1_linear_438_31133)"/>
<path d="M9.47464 2.91712V3.57327H9.14655V4.22864H8.81926V4.88478H8.49124V4.22864H8.16315V3.90056H8.49124V3.57327H7.17969V3.2452H7.83506V2.91712H8.49124V3.2452H8.81926V2.91712H8.49124V2.58905H9.14655V2.91712H9.47464Z" fill="url(#paint2_linear_438_31133)"/>
<path d="M10.4591 3.57327H10.7872V3.90056H10.1318V3.2452H9.80371V2.91712H10.1318V2.58905H10.7872V2.91712H10.4591V3.57327Z" fill="url(#paint3_linear_438_31133)"/>
<path d="M5.86831 2.91718H5.54102V3.90062H5.86831V2.91718Z" fill="url(#paint4_linear_438_31133)"/>
<path d="M5.54049 3.90002H5.21191V4.2286H5.54049V3.90002Z" fill="url(#paint5_linear_438_31133)"/>
<path d="M7.50778 4.22809V4.88424H7.18049V4.55617H6.8524V4.22809H6.52436V4.55617H6.19629V3.90002H7.18049V4.22809H7.50778Z" fill="url(#paint6_linear_438_31133)"/>
<path d="M5.86816 4.88435V5.53972H5.54086V6.19586H5.21279V5.86779H4.88471V5.53972H4.55664V5.21164H5.21279V4.55627H5.54086V4.88435H5.86816Z" fill="url(#paint7_linear_438_31133)"/>
<path d="M6.19773 4.55627H5.86914V4.88486H6.19773V4.55627Z" fill="url(#paint8_linear_438_31133)"/>
<path d="M6.85199 4.55627H6.52344V4.88486H6.85199V4.55627Z" fill="url(#paint9_linear_438_31133)"/>
<path d="M8.16402 4.22815H7.83594V4.8843H8.16402V4.22815Z" fill="url(#paint10_linear_438_31133)"/>
<path d="M7.18114 4.8844H6.85254V5.21299H7.18114V4.8844Z" fill="url(#paint11_linear_438_31133)"/>
<path d="M9.14891 4.8844H8.82031V5.21299H9.14891V4.8844Z" fill="url(#paint12_linear_438_31133)"/>
<path d="M6.52436 6.11179V5.86788H6.19629V5.21173H6.52436V5.5398H6.8524V5.86788H6.90545C6.83257 5.90497 6.76181 5.94607 6.69345 5.991C6.6171 6.04243 6.52436 6.11179 6.52436 6.11179Z" fill="url(#paint13_linear_438_31133)"/>
<path d="M9.80314 5.21173H9.47461V5.54032H9.80314V5.21173Z" fill="url(#paint14_linear_438_31133)"/>
<path d="M12.4267 6.19595V6.52402H12.0986V6.85131H11.7713V7.1794H11.4432V6.52402H11.1151V5.86788H10.7871V5.21173H11.4432V6.19595H12.4267Z" fill="url(#paint15_linear_438_31133)"/>
<path d="M12.0991 5.21173H11.7705V5.54032H12.0991V5.21173Z" fill="url(#paint16_linear_438_31133)"/>
<path d="M2.91713 5.86793V6.196H3.24521V6.52408H2.58984V5.53986H3.24521V5.86793H2.91713Z" fill="url(#paint17_linear_438_31133)"/>
<path d="M4.22933 5.5398V5.86788H3.57319V5.5398H3.24512V5.21173H3.90127V5.5398H4.22933Z" fill="url(#paint18_linear_438_31133)"/>
<path d="M13.4091 5.53986V6.196H12.7538V5.86793H12.0977V5.53986H13.4091Z" fill="url(#paint19_linear_438_31133)"/>
<path d="M4.88523 5.86798H4.55664V6.19657H4.88523V5.86798Z" fill="url(#paint20_linear_438_31133)"/>
<path d="M4.22933 6.19611V6.52418H3.90127V7.17958H3.57319V6.85149H3.24512V6.52418H3.57319V6.19611H4.22933Z" fill="url(#paint21_linear_438_31133)"/>
<path d="M5.8696 6.19611H5.54102V6.52469H5.8696V6.19611Z" fill="url(#paint22_linear_438_31133)"/>
<path d="M6.19727 6.42323V6.19611H6.42361C6.42361 6.19611 6.35493 6.25699 6.31044 6.30147C6.26595 6.34596 6.19727 6.42323 6.19727 6.42323Z" fill="url(#paint23_linear_438_31133)"/>
<path d="M4.88523 6.52423H4.55664V6.85278H4.88523V6.52423Z" fill="url(#paint24_linear_438_31133)"/>
<path d="M5.21335 6.8512H4.88477V7.17973H5.21335V6.8512Z" fill="url(#paint25_linear_438_31133)"/>
<path d="M8.8201 5.74783V5.21169H8.4944V4.8844H8.16632V5.21169H7.83823V4.8844H7.50781V5.65432C7.74185 5.60694 7.98141 5.59329 8.2193 5.6138C8.42451 5.63225 8.62646 5.67731 8.8201 5.74783ZM7.8359 5.61068V5.54133H8.4944V5.65588C8.3913 5.63584 8.28726 5.62102 8.18269 5.61146C8.06721 5.60443 7.95139 5.60417 7.8359 5.61068Z" fill="url(#paint26_linear_438_31133)"/>
<path d="M13.0828 8.49077V8.81885H13.4101V9.14688H13.0828V9.47496H12.7547V9.80225H12.0986V9.14688H12.7547V8.81885H12.4266V8.16268H12.0986V8.81885H11.7713V8.49077H10.7871V8.16268H10.459V7.83539H10.7871V7.5073H11.1152V7.83539H11.7713V7.5073H12.0986V6.8512H12.7547V7.17922H12.4266V7.5073H13.0828V7.83539H12.7547V8.16268H13.0828V7.83539H13.4101V8.49077H13.0828Z" fill="url(#paint27_linear_438_31133)"/>
<path d="M3.57314 7.17922V7.5073H2.91699V6.8512H3.24507V7.17922H3.57314Z" fill="url(#paint28_linear_438_31133)"/>
<path d="M5.54049 7.17932H5.21191V7.50792H5.54049V7.17932Z" fill="url(#paint29_linear_438_31133)"/>
<path d="M9.47555 6.11165V5.86773H10.1309V5.21159H9.80357V4.55622H9.47555V4.8843H9.14746V4.22815H10.1309V4.8843H10.4582V4.22815H10.7862V5.21159H10.4582V6.19581H10.7862V6.52388H11.1143V6.85115H10.7862V7.50733H10.4582V6.52388H10.1309V6.19581H9.57759L9.53632 6.15996L9.47555 6.11165Z" fill="url(#paint30_linear_438_31133)"/>
<path d="M3.90127 7.83514H3.24512V8.16243H3.90127V7.83514Z" fill="url(#paint31_linear_438_31133)"/>
<path d="M5.21288 7.83539V8.16268H4.22944V7.5073H3.90137V7.17922H4.22944V6.8512H4.55674V7.17922H4.8848V7.5073H4.55674V7.83539H5.21288Z" fill="url(#paint32_linear_438_31133)"/>
<path d="M10.3899 7.83553H10.4585V7.50745H10.3447C10.3447 7.50745 10.3674 7.6212 10.3751 7.6867C10.3782 7.71472 10.3899 7.83553 10.3899 7.83553ZM10.3447 8.49091H10.4585V8.16282H10.3899C10.3899 8.16282 10.3821 8.26253 10.3751 8.31246C10.3642 8.3896 10.3447 8.49404 10.3447 8.49404V8.49091Z" fill="url(#paint33_linear_438_31133)"/>
<path d="M3.24521 8.16282V8.49091H2.91713V8.819H2.58984V7.50745H2.91713V8.16282H3.24521Z" fill="url(#paint34_linear_438_31133)"/>
<path d="M5.54049 8.16327H5.21191V8.4918H5.54049V8.16327Z" fill="url(#paint35_linear_438_31133)"/>
<path d="M3.5737 8.49103H3.24512V8.81963H3.5737V8.49103Z" fill="url(#paint36_linear_438_31133)"/>
<path d="M4.88523 8.49103H4.55664V8.81963H4.88523V8.49103Z" fill="url(#paint37_linear_438_31133)"/>
<path d="M5.54089 9.14761V9.80298H5.21283V9.47569H4.55668V9.80298H4.22938V9.14761H3.57324V8.81952H4.55668V9.14761H5.54089Z" fill="url(#paint38_linear_438_31133)"/>
<path d="M6.19622 9.57662V10.1307H5.54086V10.4588H5.21279V10.1307H4.88471V10.4588H4.55664V10.7869H5.21279V11.4422H5.54086V11.1149H6.19622V10.7869H5.86816V10.4588H6.19622V10.7869H6.5243V11.4422H7.18047V11.1149H6.85238V10.1019C6.85238 10.1019 6.77443 10.0621 6.68717 10.0029C6.63339 9.9678 6.57729 9.92494 6.52041 9.88287C6.46351 9.8408 6.3965 9.78003 6.33961 9.72705C6.25779 9.64677 6.19622 9.57662 6.19622 9.57662ZM5.74815 8.8192H5.54086V9.14729H5.86816V9.47531H6.11285C6.11285 9.47531 6.07155 9.42545 6.02245 9.35223C5.98348 9.29379 5.93907 9.2213 5.90089 9.15427C5.84378 9.04551 5.79279 8.93362 5.74815 8.8192ZM5.65542 7.50765H5.54086V8.16302H5.61099C5.60462 8.04388 5.60462 7.92446 5.61099 7.80538C5.62082 7.70547 5.63564 7.60609 5.65542 7.50765ZM6.11363 6.52423H5.86816V6.90532C5.86816 6.90532 5.93439 6.78138 5.9905 6.69565C6.04661 6.60995 6.11363 6.52423 6.11363 6.52423Z" fill="url(#paint39_linear_438_31133)"/>
<path d="M11.1157 8.81952H10.7871V9.14812H11.1157V8.81952Z" fill="url(#paint40_linear_438_31133)"/>
<path d="M11.771 8.81952H11.4424V9.14812H11.771V8.81952Z" fill="url(#paint41_linear_438_31133)"/>
<path d="M3.24521 9.14728V9.47537H2.91713V9.80265H2.58984V9.14728H3.24521Z" fill="url(#paint42_linear_438_31133)"/>
<path d="M3.90182 9.4754H3.57324V9.80394H3.90182V9.4754Z" fill="url(#paint43_linear_438_31133)"/>
<path d="M11.7704 9.80269V10.1307H11.1143V9.4754H11.4423V9.80269H11.7704Z" fill="url(#paint44_linear_438_31133)"/>
<path d="M13.4103 9.4754V10.4588H12.7549V9.80269H13.083V9.4754H13.4103Z" fill="url(#paint45_linear_438_31133)"/>
<path d="M4.88523 9.80237H4.55664V10.1309H4.88523V9.80237Z" fill="url(#paint46_linear_438_31133)"/>
<path d="M3.24558 10.1301H2.91699V10.4587H3.24558V10.1301Z" fill="url(#paint47_linear_438_31133)"/>
<path d="M3.90127 10.1301V10.7862H3.24512V10.4582H3.57319V10.1301H3.90127Z" fill="url(#paint48_linear_438_31133)"/>
<path d="M12.4272 10.1301H12.0986V10.4587H12.4272V10.1301Z" fill="url(#paint49_linear_438_31133)"/>
<path d="M2.91842 10.4586H2.58984V10.7872H2.91842V10.4586Z" fill="url(#paint50_linear_438_31133)"/>
<path d="M8.49124 10.7867V11.1148H7.83506V11.4421H7.50698V11.1148H7.17969V10.4586H7.50698V10.7867H8.49124Z" fill="url(#paint51_linear_438_31133)"/>
<path d="M9.80378 10.7867V11.4421H9.1476V11.1148H8.82031V10.4586H9.47569V10.7867H9.80378Z" fill="url(#paint52_linear_438_31133)"/>
<path d="M11.4428 11.1152H11.1143V11.4438H11.4428V11.1152Z" fill="url(#paint53_linear_438_31133)"/>
<path d="M13.41 11.7672V11.4391H12.7546V11.1118H13.0827V10.7838H12.4265V11.1118H12.0984V10.4557H11.115V10.1307H10.7869V9.80269H10.4588V9.4754H10.1308V10.1307H9.80347V10.7869H10.1308V11.7672H9.80347V12.4233H9.47538V12.7506H9.14736V13.0787H7.83581V12.7506H8.1639V12.0953H7.50772V11.4391H7.18043V12.0953H6.85241V11.7672H6.52431V11.4391H5.86816V11.7672H6.19624V12.4233H6.52431V13.4068H10.4588V13.0787H10.7869V12.7506H10.4588V12.4233H10.1308V12.0953H11.4423V12.4233H11.7703V12.0953H12.0976V11.7672H12.4257V12.0953H12.0976V12.4233H13.4092V12.0953H13.0819V11.7672H13.41ZM7.50772 13.0818H7.18043V12.7537H6.85241V12.4265H7.18043V12.7537H7.50772V13.0818ZM10.1316 13.0818H9.80347V12.7537H10.1308L10.1316 13.0818ZM11.768 11.7703H10.7869V10.7869H11.7711L11.768 11.7703Z" fill="url(#paint54_linear_438_31133)"/>
<path d="M5.8696 11.7703H5.54102V12.0989H5.8696V11.7703Z" fill="url(#paint55_linear_438_31133)"/>
<path d="M6.19535 12.4265V13.4099H5.86728V12.7538H5.21191V12.0984H5.53998V12.4265H6.19535Z" fill="url(#paint56_linear_438_31133)"/>
<path d="M9.14742 11.4422V11.7703H8.82013V12.7538H8.49205V12.0984H8.16402V11.7703H7.83594V11.4422H9.14742Z" fill="url(#paint57_linear_438_31133)"/>
<path d="M11.4432 12.4261H10.7871V12.7534H11.4432V12.4261Z" fill="url(#paint58_linear_438_31133)"/>
<path d="M12.4272 12.7547H12.0986V13.0833H12.4272V12.7547Z" fill="url(#paint59_linear_438_31133)"/>
<path d="M13.4106 12.7547H13.082V13.0833H13.4106V12.7547Z" fill="url(#paint60_linear_438_31133)"/>
<path d="M12.0977 13.0812H11.1143V13.4093H12.0977V13.0812Z" fill="url(#paint61_linear_438_31133)"/>
<path d="M12.7543 13.0812H12.4258V13.4098H12.7543V13.0812Z" fill="url(#paint62_linear_438_31133)"/>
<path d="M2.58984 2.58905V4.88478H4.88479V2.58905H2.58984ZM4.53802 4.53723H2.93428V2.93349H4.54113L4.53802 4.53723Z" fill="url(#paint63_linear_438_31133)"/>
<path d="M11.1143 2.58905V4.88478H13.4099V2.58905H11.1143ZM13.0624 4.53723H11.4587V2.93349H13.0655L13.0624 4.53723Z" fill="url(#paint64_linear_438_31133)"/>
<path d="M2.58984 11.1152V13.4102H4.88479V11.1152H2.58984ZM4.53802 13.0635H2.93428V11.4558H4.54113L4.53802 13.0635Z" fill="url(#paint65_linear_438_31133)"/>
<path d="M4.22855 3.24493H3.24512V4.22837H4.22855V3.24493Z" fill="url(#paint66_linear_438_31133)"/>
<path d="M12.754 3.24493H11.7705V4.22837H12.754V3.24493Z" fill="url(#paint67_linear_438_31133)"/>
<path d="M4.22855 11.7703H3.24512V12.7538H4.22855V11.7703Z" fill="url(#paint68_linear_438_31133)"/>
<path d="M8 10.1779C7.56841 10.1779 7.14654 10.0499 6.78776 9.8101C6.42892 9.57034 6.14925 9.22954 5.98411 8.8309C5.81896 8.43219 5.77575 7.99347 5.85994 7.5702C5.94414 7.14693 6.15194 6.75814 6.45709 6.45299C6.76227 6.14784 7.15106 5.94003 7.57427 5.85584C7.99754 5.77165 8.43625 5.81486 8.83496 5.98001C9.23368 6.14516 9.57448 6.42482 9.81423 6.78363C10.0539 7.14247 10.1819 7.56435 10.1819 7.99587C10.1819 8.28242 10.1255 8.56611 10.0159 8.8309C9.90616 9.09562 9.74548 9.33611 9.54286 9.53873C9.34024 9.74134 9.09968 9.90209 8.83496 10.0117C8.57025 10.1214 8.28649 10.1779 8 10.1779ZM8 5.60352C7.52621 5.60352 7.06307 5.744 6.66915 6.00722C6.27518 6.27044 5.96814 6.64456 5.78684 7.0823C5.60553 7.52001 5.55809 8.00166 5.65052 8.46634C5.74296 8.93101 5.9711 9.35781 6.30612 9.69282C6.64113 10.0278 7.06799 10.256 7.53267 10.3485C7.99734 10.4409 8.47899 10.3935 8.9167 10.2121C9.35442 10.0308 9.7285 9.72377 9.99176 9.32985C10.2549 8.93594 10.3955 8.47279 10.3955 7.999C10.3955 7.68442 10.3335 7.37291 10.2131 7.0823C10.0927 6.79162 9.91628 6.52757 9.69382 6.30513C9.47137 6.08269 9.20732 5.90624 8.9167 5.78586C8.62602 5.66547 8.31458 5.60352 8 5.60352Z" fill="url(#paint69_linear_438_31133)"/>
<path d="M8.54402 8.25001H8.5721C8.56279 8.24894 8.55333 8.24894 8.54402 8.25001ZM8.78484 8.72693C8.66636 8.72693 8.55107 8.72693 8.42793 8.72693H8.20508H8.82225H8.78484Z" fill="url(#paint70_linear_438_31133)"/>
<path d="M9.77312 7.5757C9.62735 7.33028 9.48324 7.084 9.34292 6.83466C9.29427 6.73907 9.23882 6.64717 9.17698 6.55957C9.10756 6.46463 9.01644 6.38765 8.91127 6.33506C8.8061 6.28247 8.68981 6.25577 8.57226 6.25721C8.09141 6.25721 7.60983 6.25721 7.12905 6.25721C7.08965 6.25554 7.05064 6.26505 7.01643 6.28463C6.98221 6.30421 6.95426 6.33307 6.93575 6.36787C6.90853 6.41462 6.88204 6.46137 6.85787 6.50891C6.81108 6.57826 6.76668 6.64996 6.72382 6.72243C6.69899 6.75944 6.68182 6.80104 6.67316 6.84477C6.6715 6.92039 6.69453 6.99454 6.73859 7.05598C6.77654 7.12194 6.81547 7.18817 6.85548 7.25467C6.74272 7.26152 6.63221 7.28955 6.52977 7.33727C6.41534 7.39545 6.31798 7.48231 6.24722 7.58941C6.17645 7.69651 6.13472 7.82012 6.12611 7.94825C6.11752 8.11026 6.15887 8.27101 6.24456 8.4088C6.39028 8.65421 6.53445 8.9005 6.67469 9.14984C6.72342 9.24542 6.77886 9.33735 6.8407 9.42494C6.91026 9.52046 7.00185 9.59781 7.10768 9.65046C7.21345 9.70304 7.3304 9.7294 7.44855 9.72727H8.8925C8.93163 9.72853 8.97024 9.71875 9.00399 9.69905C9.0378 9.67934 9.06529 9.65052 9.08346 9.61584C9.12939 9.53797 9.17153 9.46002 9.21439 9.38208C9.25719 9.30413 9.23543 9.25348 9.13645 9.25348H7.48123C7.42166 9.25627 7.36255 9.24189 7.3109 9.21207C7.25918 9.18219 7.21718 9.13819 7.18982 9.08521L7.01217 8.77349C6.99113 8.73682 6.99187 8.73609 7.03553 8.73609H8.2091H8.43195C8.55123 8.73609 8.67044 8.73609 8.78886 8.73609H8.82627C9.05464 8.74307 9.29387 8.75166 9.49489 8.65115C9.60818 8.59291 9.70463 8.50644 9.77478 8.40014C9.84494 8.29378 9.88648 8.17117 9.89546 8.0441C9.90451 7.87902 9.86171 7.71528 9.77312 7.5757ZM8.53871 6.73255C8.59855 6.72949 8.65806 6.74373 8.71005 6.77355C8.76197 6.80344 8.80423 6.84764 8.83172 6.90089L9.00938 7.2126C9.03048 7.24921 9.02968 7.25001 8.98602 7.25001H7.95742C7.80153 7.25001 7.65117 7.25001 7.49841 7.25001H7.40336C7.36748 7.18764 7.33087 7.12534 7.29426 7.06377L7.2872 7.05125C7.287 7.04972 7.287 7.04819 7.2872 7.04659C7.22543 6.94009 7.16333 6.83333 7.10096 6.72636C7.58021 6.73335 8.05946 6.73415 8.53871 6.73255ZM7.91063 7.5321H8.00568C8.02206 7.56092 8.03763 7.58974 8.0548 7.61783C8.05853 7.62409 8.06266 7.63008 8.06725 7.63574H7.63712C7.63246 7.62875 7.62774 7.62096 7.62155 7.61311L7.57402 7.53523L7.91063 7.5321ZM7.51631 7.43938C7.49994 7.41056 7.48283 7.38167 7.46566 7.35285H7.49841H7.83661H7.9075C7.91003 7.35937 7.91316 7.36563 7.91689 7.37155C7.92933 7.39418 7.94105 7.41675 7.9535 7.43858H7.83814L7.51631 7.43938ZM7.43843 8.25058H6.76588C6.66537 8.25058 6.59056 8.07911 6.59056 7.98952C6.59056 7.98566 6.59056 7.98173 6.59056 7.9778C6.59861 7.92196 6.62375 7.86997 6.66251 7.8289C6.70132 7.7879 6.75184 7.75988 6.80722 7.74876C6.87478 7.73245 6.94421 7.7254 7.0137 7.72766H7.12745L7.18669 7.82824C7.19368 7.84148 7.20154 7.85473 7.20933 7.86797C7.25452 7.94585 7.30125 8.0238 7.34798 8.10174C7.35736 8.12045 7.36748 8.13835 7.3776 8.15626L7.43843 8.25058ZM7.0137 7.52744L7.01995 7.53756C7.02927 7.55706 7.03939 7.5765 7.05031 7.5944L7.07374 7.63421H7.0137C6.93502 7.63188 6.85634 7.64026 6.77993 7.6591C6.70578 7.67488 6.63837 7.71342 6.58711 7.76926C6.53586 7.82511 6.50328 7.8956 6.49393 7.97081C6.49292 8.08078 6.5323 8.18721 6.60458 8.27008C6.62362 8.29331 6.64734 8.31221 6.67423 8.32566C6.70105 8.33911 6.73047 8.34669 6.76043 8.34796H7.48909L7.49448 8.35734C7.50074 8.36906 7.50699 8.37991 7.51398 8.39083L7.52104 8.40334L7.53735 8.43449C7.27868 8.43449 7.01995 8.43449 6.7581 8.43449C6.7137 8.43456 6.66977 8.42497 6.6294 8.4064C6.58904 8.38783 6.55318 8.36074 6.52432 8.32693C6.43419 8.22402 6.38558 8.09123 6.38795 7.95444C6.39966 7.85799 6.44165 7.76773 6.50787 7.69658C6.5741 7.62549 6.66118 7.57716 6.75657 7.55859C6.84043 7.53643 6.92697 7.52598 7.0137 7.52744ZM7.03473 8.63245C7.01217 8.62772 6.98874 8.63025 6.96764 8.63957C6.94654 8.64882 6.9289 8.66453 6.91712 8.6843C6.9054 8.70414 6.90008 8.72717 6.90207 8.75013C6.904 8.77309 6.91306 8.79486 6.92797 8.81243L6.98954 8.92153L7.10569 9.12727C7.14123 9.19537 7.19541 9.25201 7.26191 9.29049C7.32841 9.32896 7.40449 9.3478 7.48123 9.34467H8.23792H9.12553L9.11927 9.35638C9.08113 9.42647 9.04133 9.49663 9.00239 9.56599C8.99261 9.58622 8.97696 9.60313 8.95753 9.61451C8.93809 9.62583 8.91579 9.63122 8.89329 9.62989H7.44855C7.34498 9.63189 7.24241 9.60872 7.14975 9.56246C7.05703 9.5162 6.97696 9.44817 6.91632 9.36417C6.87039 9.30193 6.82972 9.23597 6.79471 9.16701L6.7581 9.09998C6.60225 8.82721 6.44639 8.55996 6.32716 8.35734C6.25057 8.2366 6.21377 8.09489 6.22196 7.95211C6.22951 7.84168 6.26547 7.73505 6.32637 7.64266C6.38727 7.5502 6.47103 7.47506 6.56952 7.42453C6.67516 7.37634 6.78931 7.34985 6.9054 7.34666L6.95446 7.43159C6.83664 7.42939 6.71976 7.45249 6.6116 7.49935C6.52796 7.54242 6.45689 7.60638 6.40528 7.68506C6.35366 7.76367 6.32326 7.85433 6.31703 7.94825C6.3108 8.07179 6.34291 8.19427 6.40899 8.2989C6.529 8.50152 6.68641 8.76644 6.8415 9.04307L6.87891 9.1117C6.91139 9.1758 6.94893 9.2373 6.99113 9.29561C7.04292 9.3681 7.11168 9.42687 7.19142 9.46668C7.27116 9.50648 7.35942 9.52612 7.44855 9.52392H8.8925C8.90734 9.52392 8.90887 9.52392 8.91899 9.50602C8.92917 9.48804 8.94861 9.45536 8.96265 9.42807H8.23639C7.98392 9.42807 7.73217 9.42807 7.4797 9.42807C7.38565 9.43147 7.29253 9.40823 7.21106 9.36111C7.12958 9.31398 7.06309 9.24482 7.01916 9.16155L6.89914 8.94955L6.8415 8.84751C6.8198 8.81476 6.80729 8.77682 6.80536 8.73755C6.80349 8.69834 6.81215 8.65934 6.83058 8.62466C6.85175 8.59118 6.88164 8.56415 6.91712 8.54658C6.95259 8.52901 6.9922 8.52149 7.0316 8.52488H7.59346L7.61842 8.57088C7.62894 8.59131 7.64118 8.61088 7.65503 8.62932L7.03473 8.63245ZM9.21672 8.23187C9.13352 8.25118 9.04792 8.25856 8.96265 8.25371C8.83638 8.25371 8.71018 8.25371 8.58318 8.25371H8.43508C8.28937 8.25371 8.1444 8.25371 7.99949 8.25371C7.98079 8.22255 7.96208 8.1906 7.94418 8.15865C7.86157 8.01761 7.7797 7.87576 7.69636 7.73472H7.91768C8.02911 7.73472 8.13974 7.73472 8.25116 7.73472H9.25879C9.36396 7.73472 9.44037 7.92176 9.43332 8.00742C9.42393 8.06347 9.39737 8.11512 9.3573 8.15533C9.31723 8.19553 9.26565 8.22229 9.20967 8.23187H9.21672Z" fill="url(#paint71_linear_438_31133)"/>
<path d="M15.6936 14.5339L14.0026 12.8195V12.828C14.0026 13.1381 13.8795 13.4354 13.6602 13.6546C13.441 13.8738 13.1437 13.9969 12.8337 13.9969H12.79L14.4943 15.7114C15.0082 15.4551 15.4281 15.043 15.6936 14.5339Z" fill="url(#paint72_linear_438_31133)"/>
<path d="M12.1909 14.0035H3.16851C2.8585 14.0035 2.56118 13.8803 2.34197 13.6611C2.12276 13.4419 1.99961 13.1446 1.99961 12.8346V3.17163C1.99961 2.86162 2.12276 2.5643 2.34197 2.34509C2.56118 2.12588 2.8585 2.00272 3.16851 2.00272H12.8315C13.1415 2.00272 13.4388 2.12588 13.658 2.34509C13.8772 2.5643 14.0004 2.86162 14.0004 3.17163V12.2345L15.8651 14.1211C15.9527 13.8518 15.9973 13.5705 15.9976 13.2873V2.71498C15.9976 1.99532 15.7119 1.30511 15.2032 0.796023C14.6946 0.286935 14.0046 0.000619677 13.285 0H2.71498C1.99492 0 1.30436 0.286042 0.795197 0.795197C0.286042 1.30436 0 1.99492 0 2.71498V13.285C0 14.005 0.286042 14.6956 0.795197 15.2048C1.30436 15.7139 1.99492 16 2.71498 16H13.285C13.5514 15.9999 13.8163 15.9606 14.0713 15.8831L12.1909 14.0035Z" fill="url(#paint73_linear_438_31133)"/>
<path d="M24.1483 10.6394C24.1483 11.1854 24.1119 11.7223 24.039 12.2502C23.9723 12.778 23.7721 13.2664 23.4384 13.7153C23.1412 14.1097 22.759 14.3948 22.2918 14.5707C21.8246 14.7406 21.3484 14.8255 20.8631 14.8255C20.3534 14.8255 19.8771 14.7406 19.4343 14.5707C18.9974 14.3948 18.6183 14.1097 18.2967 13.7153C17.9631 13.2785 17.7598 12.7871 17.687 12.241C17.6203 11.695 17.5869 11.1611 17.5869 10.6394V2.21247H19.507V10.9488C19.507 11.1975 19.5192 11.4463 19.5435 11.695C19.5678 11.9438 19.6254 12.1682 19.7164 12.3685C19.8134 12.5687 19.95 12.7294 20.1259 12.8508C20.3079 12.9661 20.5536 13.0237 20.8631 13.0237C21.1785 13.0237 21.4242 12.9661 21.6002 12.8508C21.7822 12.7294 21.9187 12.5687 22.0097 12.3685C22.1067 12.1682 22.1674 11.9438 22.1917 11.695C22.2159 11.4463 22.2281 11.1975 22.2281 10.9488V2.21247H24.1483V10.6394ZM25.4911 14.6436V2.21247H27.4113V14.6436H25.4911ZM35.4065 10.694C35.4065 11.2764 35.3519 11.8194 35.2427 12.323C35.1335 12.8265 34.9454 13.2664 34.6785 13.6425C34.4116 14.0126 34.0596 14.3038 33.6229 14.5162C33.186 14.7224 32.6461 14.8255 32.003 14.8255C31.4145 14.8255 30.8836 14.7224 30.4104 14.5162C29.9433 14.3038 29.5489 13.9489 29.2273 13.4514C29.0635 13.2148 28.9392 12.96 28.8542 12.687C28.7754 12.414 28.7177 12.1319 28.6813 11.8407C28.6449 11.5495 28.6267 11.2612 28.6267 10.9761C28.6267 10.6849 28.6267 10.3967 28.6267 10.1116V6.62614C28.6267 6.31673 28.6298 6.01339 28.6358 5.7161C28.6419 5.41883 28.6661 5.12458 28.7086 4.83337C28.7511 4.54216 28.8209 4.26005 28.9179 3.98703C29.021 3.70796 29.1667 3.43798 29.3547 3.1771C29.6642 2.77062 30.0555 2.47941 30.5287 2.30347C31.002 2.12146 31.4873 2.03046 31.9848 2.03046C32.5672 2.03046 33.0707 2.13056 33.4955 2.33077C33.9262 2.52491 34.278 2.79489 34.5511 3.1407C34.824 3.48045 35.0243 3.88693 35.1517 4.36015C35.2852 4.8273 35.3519 5.33389 35.3519 5.87991V6.25303H33.4317C33.4317 5.99215 33.4196 5.72217 33.3953 5.44309C33.3711 5.16401 33.3074 4.90314 33.2042 4.66046C33.1071 4.41779 32.9616 4.22061 32.7674 4.06894C32.5794 3.9112 32.3184 3.83233 31.9848 3.83233C31.6329 3.83233 31.3599 3.9112 31.1658 4.06894C30.9777 4.22061 30.8351 4.41475 30.738 4.65136C30.647 4.88797 30.5924 5.14582 30.5742 5.42489C30.556 5.70397 30.5469 5.97395 30.5469 6.23483V10.3755C30.5469 10.6364 30.553 10.9215 30.5651 11.2309C30.5772 11.5403 30.6288 11.8255 30.7198 12.0864C30.8169 12.3472 30.9625 12.5687 31.1566 12.7507C31.3569 12.9327 31.639 13.0237 32.003 13.0237C32.3609 13.0237 32.6431 12.9296 32.8493 12.7416C33.0555 12.5535 33.2042 12.323 33.2952 12.0499C33.3862 11.777 33.4408 11.4796 33.459 11.1581C33.4833 10.8366 33.4955 10.5454 33.4955 10.2845H35.4065V10.694ZM41.5089 14.6436L39.4249 8.79204L38.3965 10.5211V14.6436H36.4763V2.21247H38.3965V7.37239L41.1721 2.21247H43.2379L40.617 6.74444L43.6111 14.6436H41.5089ZM50.8509 10.694C50.8509 11.2279 50.8145 11.7406 50.7417 12.232C50.6689 12.7234 50.4717 13.1906 50.1502 13.6334C49.8347 14.0703 49.4374 14.3796 48.958 14.5617C48.4848 14.7376 47.9873 14.8255 47.4656 14.8255C46.9438 14.8255 46.4464 14.7376 45.9731 14.5617C45.4999 14.3796 45.1025 14.0703 44.781 13.6334C44.4594 13.2148 44.2592 12.7477 44.1804 12.232C44.1075 11.7163 44.0711 11.2036 44.0711 10.694V6.16202C44.0711 5.64027 44.1106 5.13065 44.1894 4.63316C44.2744 4.13567 44.4716 3.67156 44.781 3.24081C45.0904 2.80399 45.4847 2.49458 45.964 2.31257C46.4433 2.1245 46.9438 2.03046 47.4656 2.03046C47.9995 2.03046 48.497 2.1245 48.958 2.31257C49.4252 2.49458 49.8225 2.80399 50.1502 3.24081C50.4717 3.65942 50.6689 4.12354 50.7417 4.63316C50.8145 5.14278 50.8509 5.6524 50.8509 6.16202V10.694ZM48.9399 6.19842C48.9399 5.91328 48.9307 5.6251 48.9125 5.33389C48.9004 5.04268 48.8276 4.76663 48.6941 4.50576C48.5667 4.28128 48.3908 4.11444 48.1663 4.00524C47.9479 3.88996 47.7143 3.83233 47.4656 3.83233C47.1015 3.83233 46.8194 3.90513 46.6192 4.05074C46.4251 4.19028 46.2795 4.37532 46.1824 4.60586C46.0914 4.83641 46.0368 5.09121 46.0186 5.37029C46.0004 5.64937 45.9913 5.92541 45.9913 6.19842V10.6576C45.9913 10.9306 46.0004 11.2067 46.0186 11.4858C46.0368 11.7648 46.0914 12.0196 46.1824 12.2502C46.2795 12.4807 46.4251 12.6688 46.6192 12.8144C46.8194 12.9539 47.1015 13.0237 47.4656 13.0237C47.8235 13.0237 48.1026 12.9539 48.3028 12.8144C48.503 12.6688 48.6486 12.4807 48.7396 12.2502C48.8306 12.0196 48.8852 11.7648 48.9035 11.4858C48.9277 11.2067 48.9399 10.9306 48.9399 10.6576V6.19842ZM59.283 14.6436V5.5068L57.0988 14.6436H56.0341L53.8955 5.5068V14.6436H52.0664V2.21247H54.8784L56.5984 10.0206L58.3274 2.21247H61.103V14.6436H59.283Z" fill="#222222"/>
<defs>
<linearGradient id="paint0_linear_438_31133" x1="2.10251" y1="2.75373" x2="13.0051" y2="2.75373" gradientUnits="userSpaceOnUse">
<stop stop-color="#BB070C"/>
<stop offset="0.43" stop-color="#C80815"/>
<stop offset="0.7" stop-color="#D42215"/>
<stop offset="1" stop-color="#EB3722"/>
</linearGradient>
<linearGradient id="paint1_linear_438_31133" x1="6.52344" y1="2.91712" x2="7.50685" y2="2.91712" gradientUnits="userSpaceOnUse">
<stop stop-color="#BB070C"/>
<stop offset="0.43" stop-color="#C80815"/>
<stop offset="0.7" stop-color="#D42215"/>
<stop offset="1" stop-color="#EB3722"/>
</linearGradient>
<linearGradient id="paint2_linear_438_31133" x1="7.17969" y1="3.73692" x2="9.47464" y2="3.73692" gradientUnits="userSpaceOnUse">
<stop stop-color="#BB070C"/>
<stop offset="0.43" stop-color="#C80815"/>
<stop offset="0.7" stop-color="#D42215"/>
<stop offset="1" stop-color="#EB3722"/>
</linearGradient>
<linearGradient id="paint3_linear_438_31133" x1="9.80371" y1="3.2452" x2="10.7872" y2="3.2452" gradientUnits="userSpaceOnUse">
<stop stop-color="#BB070C"/>
<stop offset="0.43" stop-color="#C80815"/>
<stop offset="0.7" stop-color="#D42215"/>
<stop offset="1" stop-color="#EB3722"/>
</linearGradient>
<linearGradient id="paint4_linear_438_31133" x1="5.54102" y1="3.4089" x2="5.86831" y2="3.4089" gradientUnits="userSpaceOnUse">
<stop stop-color="#BB070C"/>
<stop offset="0.43" stop-color="#C80815"/>
<stop offset="0.7" stop-color="#D42215"/>
<stop offset="1" stop-color="#EB3722"/>
</linearGradient>
<linearGradient id="paint5_linear_438_31133" x1="2.10245" y1="4.0647" x2="13.0051" y2="4.0647" gradientUnits="userSpaceOnUse">
<stop stop-color="#BB070C"/>
<stop offset="0.43" stop-color="#C80815"/>
<stop offset="0.7" stop-color="#D42215"/>
<stop offset="1" stop-color="#EB3722"/>
</linearGradient>
<linearGradient id="paint6_linear_438_31133" x1="6.19629" y1="4.39252" x2="7.50778" y2="4.39252" gradientUnits="userSpaceOnUse">
<stop stop-color="#BB070C"/>
<stop offset="0.43" stop-color="#C80815"/>
<stop offset="0.7" stop-color="#D42215"/>
<stop offset="1" stop-color="#EB3722"/>
</linearGradient>
<linearGradient id="paint7_linear_438_31133" x1="4.55664" y1="5.37607" x2="5.86816" y2="5.37607" gradientUnits="userSpaceOnUse">
<stop stop-color="#BB070C"/>
<stop offset="0.43" stop-color="#C80815"/>
<stop offset="0.7" stop-color="#D42215"/>
<stop offset="1" stop-color="#EB3722"/>
</linearGradient>
<linearGradient id="paint8_linear_438_31133" x1="2.10251" y1="4.72018" x2="13.0051" y2="4.72018" gradientUnits="userSpaceOnUse">
<stop stop-color="#BB070C"/>
<stop offset="0.43" stop-color="#C80815"/>
<stop offset="0.7" stop-color="#D42215"/>
<stop offset="1" stop-color="#EB3722"/>
</linearGradient>
<linearGradient id="paint9_linear_438_31133" x1="2.10041" y1="4.72018" x2="13.0031" y2="4.72018" gradientUnits="userSpaceOnUse">
<stop stop-color="#BB070C"/>
<stop offset="0.43" stop-color="#C80815"/>
<stop offset="0.7" stop-color="#D42215"/>
<stop offset="1" stop-color="#EB3722"/>
</linearGradient>
<linearGradient id="paint10_linear_438_31133" x1="7.83594" y1="4.55622" x2="8.16402" y2="4.55622" gradientUnits="userSpaceOnUse">
<stop stop-color="#BB070C"/>
<stop offset="0.43" stop-color="#C80815"/>
<stop offset="0.7" stop-color="#D42215"/>
<stop offset="1" stop-color="#EB3722"/>
</linearGradient>
<linearGradient id="paint11_linear_438_31133" x1="2.10095" y1="5.0483" x2="13.0036" y2="5.0483" gradientUnits="userSpaceOnUse">
<stop stop-color="#BB070C"/>
<stop offset="0.43" stop-color="#C80815"/>
<stop offset="0.7" stop-color="#D42215"/>
<stop offset="1" stop-color="#EB3722"/>
</linearGradient>
<linearGradient id="paint12_linear_438_31133" x1="2.09797" y1="5.0483" x2="13.0006" y2="5.0483" gradientUnits="userSpaceOnUse">
<stop stop-color="#BB070C"/>
<stop offset="0.43" stop-color="#C80815"/>
<stop offset="0.7" stop-color="#D42215"/>
<stop offset="1" stop-color="#EB3722"/>
</linearGradient>
<linearGradient id="paint13_linear_438_31133" x1="6.19629" y1="5.66215" x2="6.90545" y2="5.66215" gradientUnits="userSpaceOnUse">
<stop stop-color="#BB070C"/>
<stop offset="0.43" stop-color="#C80815"/>
<stop offset="0.7" stop-color="#D42215"/>
<stop offset="1" stop-color="#EB3722"/>
</linearGradient>
<linearGradient id="paint14_linear_438_31133" x1="2.09585" y1="5.37641" x2="12.9985" y2="5.37641" gradientUnits="userSpaceOnUse">
<stop stop-color="#BB070C"/>
<stop offset="0.43" stop-color="#C80815"/>
<stop offset="0.7" stop-color="#D42215"/>
<stop offset="1" stop-color="#EB3722"/>
</linearGradient>
<linearGradient id="paint15_linear_438_31133" x1="10.7871" y1="6.19595" x2="12.4267" y2="6.19595" gradientUnits="userSpaceOnUse">
<stop stop-color="#BB070C"/>
<stop offset="0.43" stop-color="#C80815"/>
<stop offset="0.7" stop-color="#D42215"/>
<stop offset="1" stop-color="#EB3722"/>
</linearGradient>
<linearGradient id="paint16_linear_438_31133" x1="2.09246" y1="5.37641" x2="12.9951" y2="5.37641" gradientUnits="userSpaceOnUse">
<stop stop-color="#BB070C"/>
<stop offset="0.43" stop-color="#C80815"/>
<stop offset="0.7" stop-color="#D42215"/>
<stop offset="1" stop-color="#EB3722"/>
</linearGradient>
<linearGradient id="paint17_linear_438_31133" x1="2.58984" y1="6.03236" x2="3.24521" y2="6.03236" gradientUnits="userSpaceOnUse">
<stop stop-color="#BB070C"/>
<stop offset="0.43" stop-color="#C80815"/>
<stop offset="0.7" stop-color="#D42215"/>
<stop offset="1" stop-color="#EB3722"/>
</linearGradient>
<linearGradient id="paint18_linear_438_31133" x1="3.24512" y1="5.5398" x2="4.22933" y2="5.5398" gradientUnits="userSpaceOnUse">
<stop stop-color="#BB070C"/>
<stop offset="0.43" stop-color="#C80815"/>
<stop offset="0.7" stop-color="#D42215"/>
<stop offset="1" stop-color="#EB3722"/>
</linearGradient>
<linearGradient id="paint19_linear_438_31133" x1="12.0977" y1="5.86793" x2="13.4091" y2="5.86793" gradientUnits="userSpaceOnUse">
<stop stop-color="#BB070C"/>
<stop offset="0.43" stop-color="#C80815"/>
<stop offset="0.7" stop-color="#D42215"/>
<stop offset="1" stop-color="#EB3722"/>
</linearGradient>
<linearGradient id="paint20_linear_438_31133" x1="2.10357" y1="6.03188" x2="13.0062" y2="6.03188" gradientUnits="userSpaceOnUse">
<stop stop-color="#BB070C"/>
<stop offset="0.43" stop-color="#C80815"/>
<stop offset="0.7" stop-color="#D42215"/>
<stop offset="1" stop-color="#EB3722"/>
</linearGradient>
<linearGradient id="paint21_linear_438_31133" x1="3.24512" y1="6.68781" x2="4.22933" y2="6.68781" gradientUnits="userSpaceOnUse">
<stop stop-color="#BB070C"/>
<stop offset="0.43" stop-color="#C80815"/>
<stop offset="0.7" stop-color="#D42215"/>
<stop offset="1" stop-color="#EB3722"/>
</linearGradient>
<linearGradient id="paint22_linear_438_31133" x1="2.10297" y1="6.36001" x2="13.0056" y2="6.36001" gradientUnits="userSpaceOnUse">
<stop stop-color="#BB070C"/>
<stop offset="0.43" stop-color="#C80815"/>
<stop offset="0.7" stop-color="#D42215"/>
<stop offset="1" stop-color="#EB3722"/>
</linearGradient>
<linearGradient id="paint23_linear_438_31133" x1="3.36798" y1="6.30928" x2="10.8997" y2="6.30928" gradientUnits="userSpaceOnUse">
<stop stop-color="#BB070C"/>
<stop offset="0.43" stop-color="#C80815"/>
<stop offset="0.7" stop-color="#D42215"/>
<stop offset="1" stop-color="#EB3722"/>
</linearGradient>
<linearGradient id="paint24_linear_438_31133" x1="2.10357" y1="6.68812" x2="13.0062" y2="6.68812" gradientUnits="userSpaceOnUse">
<stop stop-color="#BB070C"/>
<stop offset="0.43" stop-color="#C80815"/>
<stop offset="0.7" stop-color="#D42215"/>
<stop offset="1" stop-color="#EB3722"/>
</linearGradient>
<linearGradient id="paint25_linear_438_31133" x1="2.10389" y1="7.01586" x2="13.0065" y2="7.01586" gradientUnits="userSpaceOnUse">
<stop stop-color="#BB070C"/>
<stop offset="0.43" stop-color="#C80815"/>
<stop offset="0.7" stop-color="#D42215"/>
<stop offset="1" stop-color="#EB3722"/>
</linearGradient>
<linearGradient id="paint26_linear_438_31133" x1="7.50781" y1="5.31612" x2="8.8201" y2="5.31612" gradientUnits="userSpaceOnUse">
<stop stop-color="#BB070C"/>
<stop offset="0.43" stop-color="#C80815"/>
<stop offset="0.7" stop-color="#D42215"/>
<stop offset="1" stop-color="#EB3722"/>
</linearGradient>
<linearGradient id="paint27_linear_438_31133" x1="10.459" y1="8.32709" x2="13.4101" y2="8.32709" gradientUnits="userSpaceOnUse">
<stop stop-color="#BB070C"/>
<stop offset="0.43" stop-color="#C80815"/>
<stop offset="0.7" stop-color="#D42215"/>
<stop offset="1" stop-color="#EB3722"/>
</linearGradient>
<linearGradient id="paint28_linear_438_31133" x1="2.91699" y1="7.17922" x2="3.57314" y2="7.17922" gradientUnits="userSpaceOnUse">
<stop stop-color="#BB070C"/>
<stop offset="0.43" stop-color="#C80815"/>
<stop offset="0.7" stop-color="#D42215"/>
<stop offset="1" stop-color="#EB3722"/>
</linearGradient>
<linearGradient id="paint29_linear_438_31133" x1="2.10245" y1="7.34405" x2="13.0051" y2="7.34405" gradientUnits="userSpaceOnUse">
<stop stop-color="#BB070C"/>
<stop offset="0.43" stop-color="#C80815"/>
<stop offset="0.7" stop-color="#D42215"/>
<stop offset="1" stop-color="#EB3722"/>
</linearGradient>
<linearGradient id="paint30_linear_438_31133" x1="9.14746" y1="5.86773" x2="11.1151" y2="5.86773" gradientUnits="userSpaceOnUse">
<stop stop-color="#BB070C"/>
<stop offset="0.43" stop-color="#C80815"/>
<stop offset="0.7" stop-color="#D42215"/>
<stop offset="1" stop-color="#EB3722"/>
</linearGradient>
<linearGradient id="paint31_linear_438_31133" x1="3.24512" y1="7.99876" x2="3.90127" y2="7.99876" gradientUnits="userSpaceOnUse">
<stop stop-color="#BB070C"/>
<stop offset="0.43" stop-color="#C80815"/>
<stop offset="0.7" stop-color="#D42215"/>
<stop offset="1" stop-color="#EB3722"/>
</linearGradient>
<linearGradient id="paint32_linear_438_31133" x1="3.90137" y1="7.5073" x2="5.21288" y2="7.5073" gradientUnits="userSpaceOnUse">
<stop stop-color="#BB070C"/>
<stop offset="0.43" stop-color="#C80815"/>
<stop offset="0.7" stop-color="#D42215"/>
<stop offset="1" stop-color="#EB3722"/>
</linearGradient>
<linearGradient id="paint33_linear_438_31133" x1="10.3447" y1="7.99914" x2="10.4585" y2="7.99914" gradientUnits="userSpaceOnUse">
<stop stop-color="#BB070C"/>
<stop offset="0.43" stop-color="#C80815"/>
<stop offset="0.7" stop-color="#D42215"/>
<stop offset="1" stop-color="#EB3722"/>
</linearGradient>
<linearGradient id="paint34_linear_438_31133" x1="2.58984" y1="8.16362" x2="3.24521" y2="8.16362" gradientUnits="userSpaceOnUse">
<stop stop-color="#BB070C"/>
<stop offset="0.43" stop-color="#C80815"/>
<stop offset="0.7" stop-color="#D42215"/>
<stop offset="1" stop-color="#EB3722"/>
</linearGradient>
<linearGradient id="paint35_linear_438_31133" x1="2.10245" y1="8.32714" x2="13.0051" y2="8.32714" gradientUnits="userSpaceOnUse">
<stop stop-color="#BB070C"/>
<stop offset="0.43" stop-color="#C80815"/>
<stop offset="0.7" stop-color="#D42215"/>
<stop offset="1" stop-color="#EB3722"/>
</linearGradient>
<linearGradient id="paint36_linear_438_31133" x1="2.1056" y1="8.65576" x2="13.0083" y2="8.65576" gradientUnits="userSpaceOnUse">
<stop stop-color="#BB070C"/>
<stop offset="0.43" stop-color="#C80815"/>
<stop offset="0.7" stop-color="#D42215"/>
<stop offset="1" stop-color="#EB3722"/>
</linearGradient>
<linearGradient id="paint37_linear_438_31133" x1="2.10357" y1="8.65576" x2="13.0062" y2="8.65576" gradientUnits="userSpaceOnUse">
<stop stop-color="#BB070C"/>
<stop offset="0.43" stop-color="#C80815"/>
<stop offset="0.7" stop-color="#D42215"/>
<stop offset="1" stop-color="#EB3722"/>
</linearGradient>
<linearGradient id="paint38_linear_438_31133" x1="3.57324" y1="9.31122" x2="5.54089" y2="9.31122" gradientUnits="userSpaceOnUse">
<stop stop-color="#BB070C"/>
<stop offset="0.43" stop-color="#C80815"/>
<stop offset="0.7" stop-color="#D42215"/>
<stop offset="1" stop-color="#EB3722"/>
</linearGradient>
<linearGradient id="paint39_linear_438_31133" x1="4.55664" y1="8.98361" x2="7.18047" y2="8.98361" gradientUnits="userSpaceOnUse">
<stop stop-color="#BB070C"/>
<stop offset="0.43" stop-color="#C80815"/>
<stop offset="0.7" stop-color="#D42215"/>
<stop offset="1" stop-color="#EB3722"/>
</linearGradient>
<linearGradient id="paint40_linear_438_31133" x1="2.09403" y1="8.98419" x2="12.9967" y2="8.98419" gradientUnits="userSpaceOnUse">
<stop stop-color="#BB070C"/>
<stop offset="0.43" stop-color="#C80815"/>
<stop offset="0.7" stop-color="#D42215"/>
<stop offset="1" stop-color="#EB3722"/>
</linearGradient>
<linearGradient id="paint41_linear_438_31133" x1="2.09294" y1="8.98419" x2="12.9956" y2="8.98419" gradientUnits="userSpaceOnUse">
<stop stop-color="#BB070C"/>
<stop offset="0.43" stop-color="#C80815"/>
<stop offset="0.7" stop-color="#D42215"/>
<stop offset="1" stop-color="#EB3722"/>
</linearGradient>
<linearGradient id="paint42_linear_438_31133" x1="2.58984" y1="9.47537" x2="3.24521" y2="9.47537" gradientUnits="userSpaceOnUse">
<stop stop-color="#BB070C"/>
<stop offset="0.43" stop-color="#C80815"/>
<stop offset="0.7" stop-color="#D42215"/>
<stop offset="1" stop-color="#EB3722"/>
</linearGradient>
<linearGradient id="paint43_linear_438_31133" x1="2.10592" y1="9.63927" x2="13.0086" y2="9.63927" gradientUnits="userSpaceOnUse">
<stop stop-color="#BB070C"/>
<stop offset="0.43" stop-color="#C80815"/>
<stop offset="0.7" stop-color="#D42215"/>
<stop offset="1" stop-color="#EB3722"/>
</linearGradient>
<linearGradient id="paint44_linear_438_31133" x1="11.1143" y1="9.80342" x2="11.7704" y2="9.80342" gradientUnits="userSpaceOnUse">
<stop stop-color="#BB070C"/>
<stop offset="0.43" stop-color="#C80815"/>
<stop offset="0.7" stop-color="#D42215"/>
<stop offset="1" stop-color="#EB3722"/>
</linearGradient>
<linearGradient id="paint45_linear_438_31133" x1="12.7549" y1="9.9671" x2="13.4103" y2="9.9671" gradientUnits="userSpaceOnUse">
<stop stop-color="#BB070C"/>
<stop offset="0.43" stop-color="#C80815"/>
<stop offset="0.7" stop-color="#D42215"/>
<stop offset="1" stop-color="#EB3722"/>
</linearGradient>
<linearGradient id="paint46_linear_438_31133" x1="2.10357" y1="9.96703" x2="13.0062" y2="9.96703" gradientUnits="userSpaceOnUse">
<stop stop-color="#BB070C"/>
<stop offset="0.43" stop-color="#C80815"/>
<stop offset="0.7" stop-color="#D42215"/>
<stop offset="1" stop-color="#EB3722"/>
</linearGradient>
<linearGradient id="paint47_linear_438_31133" x1="2.10607" y1="10.2948" x2="13.0087" y2="10.2948" gradientUnits="userSpaceOnUse">
<stop stop-color="#BB070C"/>
<stop offset="0.43" stop-color="#C80815"/>
<stop offset="0.7" stop-color="#D42215"/>
<stop offset="1" stop-color="#EB3722"/>
</linearGradient>
<linearGradient id="paint48_linear_438_31133" x1="3.24512" y1="10.4582" x2="3.90127" y2="10.4582" gradientUnits="userSpaceOnUse">
<stop stop-color="#BB070C"/>
<stop offset="0.43" stop-color="#C80815"/>
<stop offset="0.7" stop-color="#D42215"/>
<stop offset="1" stop-color="#EB3722"/>
</linearGradient>
<linearGradient id="paint49_linear_438_31133" x1="2.09196" y1="10.2948" x2="12.9946" y2="10.2948" gradientUnits="userSpaceOnUse">
<stop stop-color="#BB070C"/>
<stop offset="0.43" stop-color="#C80815"/>
<stop offset="0.7" stop-color="#D42215"/>
<stop offset="1" stop-color="#EB3722"/>
</linearGradient>
<linearGradient id="paint50_linear_438_31133" x1="2.1075" y1="10.6226" x2="13.0101" y2="10.6226" gradientUnits="userSpaceOnUse">
<stop stop-color="#BB070C"/>
<stop offset="0.43" stop-color="#C80815"/>
<stop offset="0.7" stop-color="#D42215"/>
<stop offset="1" stop-color="#EB3722"/>
</linearGradient>
<linearGradient id="paint51_linear_438_31133" x1="7.17969" y1="10.9503" x2="8.49124" y2="10.9503" gradientUnits="userSpaceOnUse">
<stop stop-color="#BB070C"/>
<stop offset="0.43" stop-color="#C80815"/>
<stop offset="0.7" stop-color="#D42215"/>
<stop offset="1" stop-color="#EB3722"/>
</linearGradient>
<linearGradient id="paint52_linear_438_31133" x1="8.82031" y1="10.9503" x2="9.80378" y2="10.9503" gradientUnits="userSpaceOnUse">
<stop stop-color="#BB070C"/>
<stop offset="0.43" stop-color="#C80815"/>
<stop offset="0.7" stop-color="#D42215"/>
<stop offset="1" stop-color="#EB3722"/>
</linearGradient>
<linearGradient id="paint53_linear_438_31133" x1="2.09337" y1="11.2792" x2="12.996" y2="11.2792" gradientUnits="userSpaceOnUse">
<stop stop-color="#BB070C"/>
<stop offset="0.43" stop-color="#C80815"/>
<stop offset="0.7" stop-color="#D42215"/>
<stop offset="1" stop-color="#EB3722"/>
</linearGradient>
<linearGradient id="paint54_linear_438_31133" x1="5.86816" y1="11.4431" x2="13.41" y2="11.4431" gradientUnits="userSpaceOnUse">
<stop stop-color="#BB070C"/>
<stop offset="0.43" stop-color="#C80815"/>
<stop offset="0.7" stop-color="#D42215"/>
<stop offset="1" stop-color="#EB3722"/>
</linearGradient>
<linearGradient id="paint55_linear_438_31133" x1="2.10297" y1="11.935" x2="13.0056" y2="11.935" gradientUnits="userSpaceOnUse">
<stop stop-color="#BB070C"/>
<stop offset="0.43" stop-color="#C80815"/>
<stop offset="0.7" stop-color="#D42215"/>
<stop offset="1" stop-color="#EB3722"/>
</linearGradient>
<linearGradient id="paint56_linear_438_31133" x1="5.21191" y1="12.7546" x2="6.19535" y2="12.7546" gradientUnits="userSpaceOnUse">
<stop stop-color="#BB070C"/>
<stop offset="0.43" stop-color="#C80815"/>
<stop offset="0.7" stop-color="#D42215"/>
<stop offset="1" stop-color="#EB3722"/>
</linearGradient>
<linearGradient id="paint57_linear_438_31133" x1="7.83594" y1="12.0984" x2="9.14742" y2="12.0984" gradientUnits="userSpaceOnUse">
<stop stop-color="#BB070C"/>
<stop offset="0.43" stop-color="#C80815"/>
<stop offset="0.7" stop-color="#D42215"/>
<stop offset="1" stop-color="#EB3722"/>
</linearGradient>
<linearGradient id="paint58_linear_438_31133" x1="10.7871" y1="12.5898" x2="11.4432" y2="12.5898" gradientUnits="userSpaceOnUse">
<stop stop-color="#BB070C"/>
<stop offset="0.43" stop-color="#C80815"/>
<stop offset="0.7" stop-color="#D42215"/>
<stop offset="1" stop-color="#EB3722"/>
</linearGradient>
<linearGradient id="paint59_linear_438_31133" x1="2.09196" y1="12.9186" x2="12.9946" y2="12.9186" gradientUnits="userSpaceOnUse">
<stop stop-color="#BB070C"/>
<stop offset="0.43" stop-color="#C80815"/>
<stop offset="0.7" stop-color="#D42215"/>
<stop offset="1" stop-color="#EB3722"/>
</linearGradient>
<linearGradient id="paint60_linear_438_31133" x1="2.09047" y1="12.9186" x2="12.993" y2="12.9186" gradientUnits="userSpaceOnUse">
<stop stop-color="#BB070C"/>
<stop offset="0.43" stop-color="#C80815"/>
<stop offset="0.7" stop-color="#D42215"/>
<stop offset="1" stop-color="#EB3722"/>
</linearGradient>
<linearGradient id="paint61_linear_438_31133" x1="11.1143" y1="13.2457" x2="12.0977" y2="13.2457" gradientUnits="userSpaceOnUse">
<stop stop-color="#BB070C"/>
<stop offset="0.43" stop-color="#C80815"/>
<stop offset="0.7" stop-color="#D42215"/>
<stop offset="1" stop-color="#EB3722"/>
</linearGradient>
<linearGradient id="paint62_linear_438_31133" x1="2.09134" y1="13.246" x2="12.9939" y2="13.246" gradientUnits="userSpaceOnUse">
<stop stop-color="#BB070C"/>
<stop offset="0.43" stop-color="#C80815"/>
<stop offset="0.7" stop-color="#D42215"/>
<stop offset="1" stop-color="#EB3722"/>
</linearGradient>
<linearGradient id="paint63_linear_438_31133" x1="2.10825" y1="3.73692" x2="12.9939" y2="3.73692" gradientUnits="userSpaceOnUse">
<stop stop-color="#BB070C"/>
<stop offset="0.43" stop-color="#C80815"/>
<stop offset="0.7" stop-color="#D42215"/>
<stop offset="1" stop-color="#EB3722"/>
</linearGradient>
<linearGradient id="paint64_linear_438_31133" x1="2.10742" y1="3.73692" x2="12.9931" y2="3.73692" gradientUnits="userSpaceOnUse">
<stop stop-color="#BB070C"/>
<stop offset="0.43" stop-color="#C80815"/>
<stop offset="0.7" stop-color="#D42215"/>
<stop offset="1" stop-color="#EB3722"/>
</linearGradient>
<linearGradient id="paint65_linear_438_31133" x1="2.10825" y1="12.2623" x2="12.9939" y2="12.2623" gradientUnits="userSpaceOnUse">
<stop stop-color="#BB070C"/>
<stop offset="0.43" stop-color="#C80815"/>
<stop offset="0.7" stop-color="#D42215"/>
<stop offset="1" stop-color="#EB3722"/>
</linearGradient>
<linearGradient id="paint66_linear_438_31133" x1="2.10738" y1="3.73665" x2="12.993" y2="3.73665" gradientUnits="userSpaceOnUse">
<stop stop-color="#BB070C"/>
<stop offset="0.43" stop-color="#C80815"/>
<stop offset="0.7" stop-color="#D42215"/>
<stop offset="1" stop-color="#EB3722"/>
</linearGradient>
<linearGradient id="paint67_linear_438_31133" x1="2.10755" y1="3.73665" x2="12.9932" y2="3.73665" gradientUnits="userSpaceOnUse">
<stop stop-color="#BB070C"/>
<stop offset="0.43" stop-color="#C80815"/>
<stop offset="0.7" stop-color="#D42215"/>
<stop offset="1" stop-color="#EB3722"/>
</linearGradient>
<linearGradient id="paint68_linear_438_31133" x1="2.10738" y1="12.262" x2="12.993" y2="12.262" gradientUnits="userSpaceOnUse">
<stop stop-color="#BB070C"/>
<stop offset="0.43" stop-color="#C80815"/>
<stop offset="0.7" stop-color="#D42215"/>
<stop offset="1" stop-color="#EB3722"/>
</linearGradient>
<linearGradient id="paint69_linear_438_31133" x1="1.88348" y1="7.12776" x2="11.442" y2="8.4899" gradientUnits="userSpaceOnUse">
<stop stop-color="#BB070C"/>
<stop offset="0.43" stop-color="#C80815"/>
<stop offset="0.7" stop-color="#D42215"/>
<stop offset="1" stop-color="#EB3722"/>
</linearGradient>
<linearGradient id="paint70_linear_438_31133" x1="6.57794" y1="7.75438" x2="9.55004" y2="8.17832" gradientUnits="userSpaceOnUse">
<stop stop-color="#BB070C" stop-opacity="0.7"/>
<stop offset="0.3" stop-color="#C80815" stop-opacity="0.6"/>
<stop offset="0.64" stop-color="#D42215" stop-opacity="0.6"/>
<stop offset="1" stop-color="#FD3722" stop-opacity="0.5"/>
</linearGradient>
<linearGradient id="paint71_linear_438_31133" x1="6.15884" y1="7.71288" x2="9.85958" y2="8.26848" gradientUnits="userSpaceOnUse">
<stop stop-color="#BB070C"/>
<stop offset="0.43" stop-color="#C80815"/>
<stop offset="0.7" stop-color="#D42215"/>
<stop offset="1" stop-color="#EB3722"/>
</linearGradient>
<linearGradient id="paint72_linear_438_31133" x1="-9.93635e-05" y1="14.2674" x2="15.9999" y2="14.2674" gradientUnits="userSpaceOnUse">
<stop stop-color="#BB070C"/>
<stop offset="0.43" stop-color="#C80815"/>
<stop offset="0.7" stop-color="#D42215"/>
<stop offset="1" stop-color="#EB3722"/>
</linearGradient>
<linearGradient id="paint73_linear_438_31133" x1="0" y1="7.99997" x2="16" y2="7.99997" gradientUnits="userSpaceOnUse">
<stop stop-color="#BB070C"/>
<stop offset="0.43" stop-color="#C80815"/>
<stop offset="0.7" stop-color="#D42215"/>
<stop offset="1" stop-color="#EB3722"/>
</linearGradient>
</defs>
</svg>
