<svg width="18" height="18" viewBox="0 0 18 18" fill="none" xmlns="http://www.w3.org/2000/svg">
<g id="party_mode">
<mask id="mask0_4941_11" style="mask-type:alpha" maskUnits="userSpaceOnUse" x="0" y="0" width="18" height="18">
<rect id="Bounding box" width="18" height="18" fill="#D9D9D9"/>
</mask>
<g mask="url(#mask0_4941_11)">
<path id="party_mode_2" d="M9 13.125C9.9375 13.125 10.7344 12.7969 11.3906 12.1406C12.0469 11.4844 12.375 10.6875 12.375 9.75C12.375 9.6875 12.3719 9.625 12.3656 9.5625C12.3594 9.5 12.35 9.4375 12.3375 9.375H10.8375C10.8625 9.4375 10.875 9.5 10.875 9.5625V9.75C10.875 10.275 10.6938 10.7188 10.3313 11.0813C9.96875 11.4438 9.525 11.625 9 11.625H6.1875C6.4875 12.075 6.88438 12.4375 7.37813 12.7125C7.87188 12.9875 8.4125 13.125 9 13.125ZM5.6625 10.125H7.1625C7.1375 10.0625 7.125 10 7.125 9.9375V9.75C7.125 9.225 7.30625 8.78125 7.66875 8.41875C8.03125 8.05625 8.475 7.875 9 7.875H11.8125C11.5125 7.425 11.1156 7.0625 10.6219 6.7875C10.1281 6.5125 9.5875 6.375 9 6.375C8.0625 6.375 7.26562 6.70312 6.60938 7.35938C5.95312 8.01562 5.625 8.8125 5.625 9.75C5.625 9.8125 5.62813 9.875 5.63438 9.9375C5.64062 10 5.65 10.0625 5.6625 10.125ZM3 15.75C2.5875 15.75 2.23438 15.6031 1.94063 15.3094C1.64688 15.0156 1.5 14.6625 1.5 14.25V5.25C1.5 4.8375 1.64688 4.48438 1.94063 4.19063C2.23438 3.89688 2.5875 3.75 3 3.75H5.3625L6.75 2.25H11.25L12.6375 3.75H15C15.4125 3.75 15.7656 3.89688 16.0594 4.19063C16.3531 4.48438 16.5 4.8375 16.5 5.25V14.25C16.5 14.6625 16.3531 15.0156 16.0594 15.3094C15.7656 15.6031 15.4125 15.75 15 15.75H3ZM3 14.25H15V5.25H11.9625L10.5938 3.75H7.40625L6.0375 5.25H3V14.25Z" fill="#E91D23"/>
</g>
</g>
</svg>
