<svg width="24" height="24" viewBox="0 0 24 24" fill="none" xmlns="http://www.w3.org/2000/svg">
<g id="party_mode">
<mask id="mask0_4941_77" style="mask-type:alpha" maskUnits="userSpaceOnUse" x="0" y="0" width="24" height="24">
<rect id="Bounding box" width="24" height="24" fill="#D9D9D9"/>
</mask>
<g mask="url(#mask0_4941_77)">
<path id="party_mode_2" d="M12 17.5C13.25 17.5 14.3125 17.0625 15.1875 16.1875C16.0625 15.3125 16.5 14.25 16.5 13C16.5 12.9167 16.4958 12.8333 16.4875 12.75C16.4792 12.6667 16.4667 12.5833 16.45 12.5H14.45C14.4833 12.5833 14.5 12.6667 14.5 12.75V13C14.5 13.7 14.2583 14.2917 13.775 14.775C13.2917 15.2583 12.7 15.5 12 15.5H8.25C8.65 16.1 9.17917 16.5833 9.8375 16.95C10.4958 17.3167 11.2167 17.5 12 17.5ZM7.55 13.5H9.55C9.51667 13.4167 9.5 13.3333 9.5 13.25V13C9.5 12.3 9.74167 11.7083 10.225 11.225C10.7083 10.7417 11.3 10.5 12 10.5H15.75C15.35 9.9 14.8208 9.41667 14.1625 9.05C13.5042 8.68333 12.7833 8.5 12 8.5C10.75 8.5 9.6875 8.9375 8.8125 9.8125C7.9375 10.6875 7.5 11.75 7.5 13C7.5 13.0833 7.50417 13.1667 7.5125 13.25C7.52083 13.3333 7.53333 13.4167 7.55 13.5ZM4 21C3.45 21 2.97917 20.8042 2.5875 20.4125C2.19583 20.0208 2 19.55 2 19V7C2 6.45 2.19583 5.97917 2.5875 5.5875C2.97917 5.19583 3.45 5 4 5H7.15L9 3H15L16.85 5H20C20.55 5 21.0208 5.19583 21.4125 5.5875C21.8042 5.97917 22 6.45 22 7V19C22 19.55 21.8042 20.0208 21.4125 20.4125C21.0208 20.8042 20.55 21 20 21H4ZM4 19H20V7H15.95L14.125 5H9.875L8.05 7H4V19Z" fill="#1F1F1F"/>
</g>
</g>
</svg>
